<svg width="351" height="305" viewBox="0 0 351 305" fill="none" xmlns="http://www.w3.org/2000/svg">
<path d="M136.97 152.59H135.08C134.57 152.59 134.22 152.08 134.4 151.6L134.82 150.52L135.35 149.15C135.59 148.53 136.47 148.53 136.71 149.15L137.24 150.52L137.66 151.6C137.84 152.08 137.49 152.59 136.98 152.59H136.97ZM151.82 148.38C151.82 149.1 151.52 149.79 151 150.27L150.46 148.88C150.21 148.24 149.53 147.88 148.82 148.09C148.42 148.21 148.11 148.54 147.96 148.93L147.44 150.27C146.72 149.6 146.42 148.57 146.75 147.55C146.98 146.84 147.54 146.27 148.22 145.99V81.46L138.05 71.28C137.6 71.56 137.08 71.74 136.51 71.74C134.93 71.74 133.64 70.45 133.64 68.87C133.64 67.29 134.93 66 136.51 66C138.09 66 139.38 67.29 139.38 68.87C139.38 69.34 139.26 69.78 139.06 70.17L149.72 80.85V145.85C150.91 146.09 151.82 147.13 151.82 148.39V148.38ZM137.88 68.87C137.88 68.12 137.27 67.5 136.51 67.5C135.75 67.5 135.14 68.11 135.14 68.87C135.14 69.63 135.75 70.24 136.51 70.24C137.27 70.24 137.88 69.63 137.88 68.87ZM148.28 152.59H150.17C150.68 152.59 151.03 152.08 150.85 151.6L150.43 150.52L149.9 149.15C149.66 148.53 148.78 148.53 148.54 149.15L148.01 150.52L147.59 151.6C147.41 152.08 147.76 152.59 148.27 152.59H148.28ZM161.43 152.59H163.32C163.83 152.59 164.18 152.08 164 151.6L163.58 150.52L163.05 149.15C162.81 148.53 161.93 148.53 161.69 149.15L161.16 150.52L160.74 151.6C160.56 152.08 160.91 152.59 161.42 152.59H161.43ZM177.17 151.6L176.75 150.52L176.22 149.15C175.98 148.53 175.1 148.53 174.86 149.15L174.33 150.52L173.91 151.6C173.73 152.08 174.08 152.59 174.59 152.59H176.48C176.99 152.59 177.34 152.08 177.16 151.6H177.17ZM190.35 151.6L189.93 150.52L189.4 149.15C189.16 148.53 188.28 148.53 188.04 149.15L187.51 150.52L187.09 151.6C186.91 152.08 187.26 152.59 187.77 152.59H189.66C190.17 152.59 190.52 152.08 190.34 151.6H190.35ZM203.55 151.6L203.13 150.52L202.6 149.15C202.36 148.53 201.48 148.53 201.24 149.15L200.71 150.52L200.29 151.6C200.11 152.08 200.46 152.59 200.97 152.59H202.86C203.37 152.59 203.72 152.08 203.54 151.6H203.55ZM214.16 152.59H216.05C216.56 152.59 216.91 152.08 216.73 151.6L216.31 150.52L215.78 149.15C215.54 148.53 214.66 148.53 214.42 149.15L213.89 150.52L213.47 151.6C213.29 152.08 213.64 152.59 214.15 152.59H214.16ZM136.97 247.45H135.08C134.57 247.45 134.22 247.96 134.4 248.44L134.82 249.52L135.35 250.89C135.59 251.51 136.47 251.51 136.71 250.89L137.24 249.52L137.66 248.44C137.84 247.96 137.49 247.45 136.98 247.45H136.97ZM151 249.77C151.52 250.26 151.82 250.94 151.82 251.66C151.82 252.83 151.04 253.82 149.97 254.14V263.58L137.68 275.87V298.35C138.9 298.68 139.8 299.79 139.8 301.11C139.8 302.69 138.51 303.98 136.93 303.98C135.35 303.98 134.06 302.69 134.06 301.11C134.06 299.79 134.96 298.69 136.18 298.35V275.25L148.47 262.96V254.13C147.67 253.89 147.01 253.28 146.75 252.48C146.43 251.47 146.73 250.43 147.44 249.76L147.96 251.1C148.11 251.49 148.41 251.83 148.82 251.94C149.53 252.15 150.22 251.79 150.46 251.15L151 249.76V249.77ZM136.94 299.74C136.19 299.74 135.57 300.35 135.57 301.11C135.57 301.87 136.18 302.48 136.94 302.48C137.7 302.48 138.31 301.87 138.31 301.11C138.31 300.35 137.7 299.74 136.94 299.74ZM147.6 248.44L148.02 249.52L148.55 250.89C148.79 251.51 149.67 251.51 149.91 250.89L150.44 249.52L150.86 248.44C151.04 247.96 150.69 247.45 150.18 247.45H148.29C147.78 247.45 147.43 247.96 147.61 248.44H147.6ZM164.15 249.77C164.67 250.26 164.97 250.94 164.97 251.66C164.97 252.83 164.19 253.82 163.12 254.14V276.88L156.45 282.84L156.5 298.37C157.69 298.72 158.56 299.81 158.56 301.11C158.56 302.69 157.27 303.98 155.69 303.98C154.11 303.98 152.82 302.69 152.82 301.11C152.82 299.77 153.75 298.65 154.99 298.34L154.93 282.18L161.6 276.22V254.14C160.8 253.9 160.14 253.29 159.88 252.49C159.56 251.48 159.86 250.44 160.57 249.77L161.09 251.11C161.24 251.5 161.54 251.84 161.95 251.95C162.66 252.16 163.35 251.8 163.59 251.16L164.13 249.77H164.15ZM155.7 299.74C154.95 299.74 154.33 300.35 154.33 301.11C154.33 301.87 154.94 302.48 155.7 302.48C156.46 302.48 157.07 301.87 157.07 301.11C157.07 300.35 156.46 299.74 155.7 299.74ZM160.75 248.44L161.17 249.52L161.7 250.89C161.94 251.51 162.82 251.51 163.06 250.89L163.59 249.52L164.01 248.44C164.19 247.96 163.84 247.45 163.33 247.45H161.44C160.93 247.45 160.58 247.96 160.76 248.44H160.75ZM176.49 247.45H174.6C174.09 247.45 173.74 247.96 173.92 248.44L174.34 249.52L174.87 250.89C175.11 251.51 175.99 251.51 176.23 250.89L176.76 249.52L177.18 248.44C177.36 247.96 177.01 247.45 176.5 247.45H176.49ZM189.67 247.45H187.78C187.27 247.45 186.92 247.96 187.1 248.44L187.52 249.52L188.05 250.89C188.29 251.51 189.17 251.51 189.41 250.89L189.94 249.52L190.36 248.44C190.54 247.96 190.19 247.45 189.68 247.45H189.67ZM202.87 247.45H200.98C200.47 247.45 200.12 247.96 200.3 248.44L200.72 249.52L201.25 250.89C201.49 251.51 202.37 251.51 202.61 250.89L203.14 249.52L203.56 248.44C203.74 247.96 203.39 247.45 202.88 247.45H202.87ZM213.48 248.44L213.9 249.52L214.43 250.89C214.67 251.51 215.55 251.51 215.79 250.89L216.32 249.52L216.74 248.44C216.92 247.96 216.57 247.45 216.06 247.45H214.17C213.66 247.45 213.31 247.96 213.49 248.44H213.48ZM127.84 159.61C127.84 159.1 127.33 158.75 126.85 158.93L125.77 159.35L124.4 159.88C123.78 160.12 123.78 161 124.4 161.24L125.77 161.77L126.85 162.19C127.33 162.37 127.84 162.02 127.84 161.51V159.62V159.61ZM127.84 172.81C127.84 172.3 127.33 171.95 126.85 172.13L125.77 172.55L124.4 173.08C123.78 173.32 123.78 174.2 124.4 174.44L125.77 174.97L126.85 175.39C127.33 175.57 127.84 175.22 127.84 174.71V172.82V172.81ZM127.84 185.96C127.84 185.45 127.33 185.1 126.85 185.28L125.77 185.7L124.4 186.23C123.78 186.47 123.78 187.35 124.4 187.59L125.77 188.12L126.85 188.54C127.33 188.72 127.84 188.37 127.84 187.86V185.97V185.96ZM127.84 199.13C127.84 198.62 127.33 198.27 126.85 198.45L125.77 198.87L124.4 199.4C123.78 199.64 123.78 200.52 124.4 200.76L125.77 201.29L126.85 201.71C127.33 201.89 127.84 201.54 127.84 201.03V199.14V199.13ZM127.84 212.31C127.84 211.8 127.33 211.45 126.85 211.63L125.77 212.05L124.4 212.58C123.78 212.82 123.78 213.7 124.4 213.94L125.77 214.47L126.85 214.89C127.33 215.07 127.84 214.72 127.84 214.21V212.32V212.31ZM127.84 225.51C127.84 225 127.33 224.65 126.85 224.83L125.77 225.25L124.4 225.78C123.78 226.02 123.78 226.9 124.4 227.14L125.77 227.67L126.85 228.09C127.33 228.27 127.84 227.92 127.84 227.41V225.52V225.51ZM126.85 238.01L125.77 238.43L124.4 238.96C123.78 239.2 123.78 240.08 124.4 240.32L125.77 240.85L126.85 241.27C127.33 241.45 127.84 241.1 127.84 240.59V238.7C127.84 238.19 127.33 237.84 126.85 238.02V238.01ZM223.09 238.69V240.58C223.09 241.09 223.6 241.44 224.08 241.26L225.16 240.84L226.53 240.31C227.15 240.07 227.15 239.19 226.53 238.95L225.16 238.42L224.08 238C223.6 237.82 223.09 238.17 223.09 238.68V238.69ZM226.53 225.76L225.16 225.23L224.08 224.81C223.6 224.63 223.09 224.98 223.09 225.49V227.38C223.09 227.89 223.6 228.24 224.08 228.06L225.16 227.64L226.53 227.11C227.15 226.87 227.15 225.99 226.53 225.75V225.76ZM223.09 214.23C223.09 214.74 223.6 215.09 224.08 214.91L225.16 214.49L226.53 213.96C227.15 213.72 227.15 212.84 226.53 212.6L225.16 212.07L224.08 211.65C223.6 211.47 223.09 211.82 223.09 212.33V214.22V214.23ZM223.09 201.06C223.09 201.57 223.6 201.92 224.08 201.74L225.16 201.32L226.53 200.79C227.15 200.55 227.15 199.67 226.53 199.43L225.16 198.9L224.08 198.48C223.6 198.3 223.09 198.65 223.09 199.16V201.05V201.06ZM223.09 187.88C223.09 188.39 223.6 188.74 224.08 188.56L225.16 188.14L226.53 187.61C227.15 187.37 227.15 186.49 226.53 186.25L225.16 185.72L224.08 185.3C223.6 185.12 223.09 185.47 223.09 185.98V187.87V187.88ZM223.09 174.68C223.09 175.19 223.6 175.54 224.08 175.36L225.16 174.94L226.53 174.41C227.15 174.17 227.15 173.29 226.53 173.05L225.16 172.52L224.08 172.1C223.6 171.92 223.09 172.27 223.09 172.78V174.67V174.68ZM224.08 162.18L225.16 161.76L226.53 161.23C227.15 160.99 227.15 160.11 226.53 159.87L225.16 159.34L224.08 158.92C223.6 158.74 223.09 159.09 223.09 159.6V161.49C223.09 162 223.6 162.35 224.08 162.17V162.18ZM249.12 136.21C248.88 135.79 248.73 135.31 248.73 134.79C248.73 133.21 250.02 131.92 251.6 131.92C253.18 131.92 254.47 133.21 254.47 134.79C254.47 136.37 253.18 137.66 251.6 137.66C251.08 137.66 250.61 137.51 250.19 137.27L228.94 158.56C229.4 158.94 229.75 159.46 229.86 160.05C230.18 161.71 228.91 163.16 227.31 163.16C226.59 163.16 225.9 162.86 225.42 162.34L226.81 161.8C227.45 161.55 227.81 160.87 227.6 160.16C227.48 159.76 227.15 159.45 226.76 159.3L225.42 158.78C225.93 158.24 226.65 157.93 227.41 157.96L249.13 136.2L249.12 136.21ZM250.23 134.79C250.23 135.54 250.84 136.16 251.6 136.16C252.36 136.16 252.97 135.55 252.97 134.79C252.97 134.03 252.36 133.42 251.6 133.42C250.84 133.42 250.23 134.03 250.23 134.79ZM258.75 152.71C258.47 152.27 258.3 151.74 258.3 151.18C258.3 149.6 259.59 148.31 261.17 148.31C262.75 148.31 264.04 149.6 264.04 151.18C264.04 152.76 262.75 154.05 261.17 154.05C260.7 154.05 260.26 153.92 259.87 153.72L239.14 174.45H229.81C229.5 175.54 228.5 176.34 227.31 176.34C226.59 176.34 225.9 176.04 225.42 175.52L226.81 174.98C227.45 174.73 227.81 174.05 227.6 173.34C227.48 172.94 227.15 172.63 226.76 172.48L225.42 171.96C226.09 171.24 227.12 170.94 228.14 171.27C228.92 171.52 229.53 172.17 229.77 172.95H238.52L258.75 152.71ZM259.8 151.18C259.8 151.93 260.41 152.55 261.17 152.55C261.93 152.55 262.54 151.94 262.54 151.18C262.54 150.42 261.93 149.81 261.17 149.81C260.41 149.81 259.8 150.42 259.8 151.18ZM268.33 169.23C268.09 168.81 267.94 168.34 267.94 167.82C267.94 166.24 269.23 164.95 270.81 164.95C272.39 164.95 273.68 166.24 273.68 167.82C273.68 169.4 272.39 170.69 270.81 170.69C270.29 170.69 269.81 170.54 269.38 170.3L251.98 187.69L229.74 187.78C229.48 188.54 228.89 189.16 228.12 189.41C227.11 189.73 226.07 189.43 225.4 188.72L226.74 188.2C227.13 188.05 227.47 187.75 227.58 187.34C227.79 186.63 227.43 185.94 226.79 185.7L225.4 185.16C225.89 184.64 226.57 184.34 227.29 184.34C228.49 184.34 229.51 185.16 229.8 186.28L251.34 186.19L268.3 169.24L268.33 169.23ZM269.44 167.82C269.44 168.57 270.05 169.19 270.81 169.19C271.57 169.19 272.18 168.58 272.18 167.82C272.18 167.06 271.57 166.45 270.81 166.45C270.05 166.45 269.44 167.06 269.44 167.82ZM277.76 185.81C277.49 185.37 277.32 184.86 277.32 184.3C277.32 182.72 278.61 181.43 280.19 181.43C281.77 181.43 283.06 182.72 283.06 184.3C283.06 185.88 281.77 187.17 280.19 187.17C279.71 187.17 279.26 187.04 278.86 186.83L264.65 200.78H229.79C229.57 201.61 228.94 202.31 228.12 202.58C227.11 202.9 226.07 202.6 225.4 201.89L226.74 201.37C227.13 201.22 227.47 200.92 227.58 200.51C227.79 199.8 227.43 199.11 226.79 198.87L225.4 198.33C225.89 197.81 226.57 197.51 227.29 197.51C228.43 197.51 229.39 198.26 229.74 199.28H264.03L277.75 185.81H277.76ZM278.82 184.3C278.82 184.61 278.93 184.89 279.1 185.12C279.19 185.16 279.28 185.21 279.35 185.29C279.4 185.34 279.43 185.4 279.46 185.45C279.67 185.58 279.92 185.66 280.19 185.66C280.94 185.66 281.56 185.05 281.56 184.29C281.56 183.53 280.95 182.92 280.19 182.92C279.43 182.92 278.82 183.53 278.82 184.29V184.3ZM287.37 202.29C287.14 201.88 287 201.41 287 200.91C287 199.33 288.29 198.04 289.87 198.04C291.45 198.04 292.74 199.33 292.74 200.91C292.74 202.49 291.45 203.78 289.87 203.78C289.34 203.78 288.84 203.62 288.41 203.37L282.78 208.96H263C262.59 208.96 262.25 208.62 262.25 208.21C262.25 207.8 262.59 207.46 263 207.46H282.16L287.37 202.29ZM288.5 200.91C288.5 201.15 288.57 201.38 288.68 201.57C288.79 201.61 288.89 201.66 288.98 201.75C289.07 201.84 289.12 201.95 289.16 202.07C289.37 202.2 289.61 202.28 289.87 202.28C290.62 202.28 291.24 201.67 291.24 200.91C291.24 200.15 290.63 199.54 289.87 199.54C289.11 199.54 288.5 200.15 288.5 200.91ZM251.9 216.57H296.58C296.91 215.35 298.02 214.45 299.34 214.45C300.92 214.45 302.21 215.74 302.21 217.32C302.21 218.9 300.92 220.19 299.34 220.19C298.02 220.19 296.92 219.29 296.58 218.07H251.28L247.44 214.23H229.7C229.42 214.93 228.85 215.51 228.12 215.74C227.11 216.06 226.07 215.76 225.4 215.05L226.74 214.53C227.13 214.38 227.47 214.08 227.58 213.67C227.79 212.96 227.43 212.27 226.79 212.03L225.4 211.49C225.89 210.97 226.57 210.67 227.29 210.67C228.54 210.67 229.57 211.55 229.82 212.72H248.05L251.89 216.56L251.9 216.57ZM297.97 217.32C297.97 218.07 298.58 218.69 299.34 218.69C300.1 218.69 300.71 218.08 300.71 217.32C300.71 216.56 300.1 215.95 299.34 215.95C298.58 215.95 297.97 216.56 297.97 217.32ZM286.75 265.82H325.67C326 264.6 327.11 263.7 328.43 263.7C330.01 263.7 331.3 264.99 331.3 266.57C331.3 268.15 330.01 269.44 328.43 269.44C327.11 269.44 326.01 268.54 325.67 267.32H286.13L245.99 227.18H229.77C229.53 227.98 228.92 228.64 228.12 228.9C227.11 229.22 226.07 228.92 225.4 228.21L226.74 227.69C227.13 227.54 227.47 227.24 227.58 226.83C227.79 226.12 227.43 225.43 226.79 225.19L225.4 224.65C225.89 224.13 226.57 223.83 227.29 223.83C228.46 223.83 229.45 224.61 229.77 225.68H246.6L286.74 265.82H286.75ZM327.06 266.57C327.06 267.32 327.67 267.94 328.43 267.94C329.19 267.94 329.8 267.33 329.8 266.57C329.8 265.81 329.19 265.2 328.43 265.2C327.67 265.2 327.06 265.81 327.06 266.57ZM230.16 103.05C229.91 102.62 229.75 102.13 229.75 101.6C229.75 100.02 231.04 98.73 232.62 98.73C234.2 98.73 235.49 100.02 235.49 101.6C235.49 103.18 234.2 104.47 232.62 104.47C232.12 104.47 231.65 104.33 231.24 104.1L215.76 119.57L215.89 145.93C216.67 146.18 217.32 146.78 217.57 147.56C217.89 148.57 217.59 149.61 216.88 150.28L216.36 148.94C216.21 148.55 215.91 148.21 215.5 148.1C214.79 147.89 214.1 148.25 213.86 148.89L213.32 150.28C212.8 149.79 212.5 149.11 212.5 148.39C212.5 147.2 213.3 146.21 214.39 145.89L214.25 118.95L230.16 103.05ZM231.25 101.6C231.25 102.35 231.86 102.97 232.62 102.97C233.38 102.97 233.99 102.36 233.99 101.6C233.99 100.84 233.38 100.23 232.62 100.23C231.86 100.23 231.25 100.84 231.25 101.6ZM220.47 86.64C220.24 86.23 220.09 85.76 220.09 85.25C220.09 83.67 221.38 82.38 222.96 82.38C224.54 82.38 225.83 83.67 225.83 85.25C225.83 86.83 224.54 88.12 222.96 88.12C222.43 88.12 221.94 87.97 221.52 87.71L202.68 106.55V145.91C203.48 146.15 204.14 146.76 204.4 147.56C204.72 148.57 204.42 149.61 203.71 150.28L203.19 148.94C203.04 148.55 202.74 148.21 202.33 148.1C201.62 147.89 200.93 148.25 200.69 148.89L200.15 150.28C199.63 149.79 199.33 149.11 199.33 148.39C199.33 147.22 200.11 146.23 201.18 145.91V105.94L220.47 86.65V86.64ZM221.59 85.25C221.59 86 222.2 86.62 222.96 86.62C223.72 86.62 224.33 86.01 224.33 85.25C224.33 84.49 223.72 83.88 222.96 83.88C222.2 83.88 221.59 84.49 221.59 85.25ZM210.95 70.11C210.77 69.73 210.66 69.32 210.66 68.87C210.66 67.29 211.95 66 213.53 66C215.11 66 216.4 67.29 216.4 68.87C216.4 70.45 215.11 71.74 213.53 71.74C212.94 71.74 212.39 71.56 211.94 71.25L195.67 87.52V129.85C195.67 130.26 195.33 130.6 194.92 130.6C194.51 130.6 194.17 130.26 194.17 129.85V86.9L210.96 70.11H210.95ZM212.16 68.87C212.16 69.62 212.77 70.24 213.53 70.24C214.29 70.24 214.9 69.63 214.9 68.87C214.9 68.11 214.29 67.5 213.53 67.5C212.77 67.5 212.16 68.11 212.16 68.87ZM182.78 48.2V136.14C182.78 136.55 182.45 136.89 182.03 136.89C181.61 136.89 181.28 136.55 181.28 136.14V47.57L191.86 37.04C191.58 36.6 191.41 36.08 191.41 35.52C191.41 33.94 192.7 32.65 194.28 32.65C195.86 32.65 197.15 33.94 197.15 35.52C197.15 37.1 195.86 38.39 194.28 38.39C193.8 38.39 193.36 38.26 192.97 38.06L182.78 48.2ZM192.92 35.52C192.92 36.27 193.53 36.89 194.29 36.89C195.05 36.89 195.66 36.28 195.66 35.52C195.66 34.76 195.05 34.15 194.29 34.15C193.53 34.15 192.92 34.76 192.92 35.52ZM43.49 299.74C43.73 300.16 43.88 300.64 43.88 301.16C43.88 302.74 42.59 304.03 41.01 304.03C39.43 304.03 38.14 302.74 38.14 301.16C38.14 299.58 39.43 298.29 41.01 298.29C41.53 298.29 42.01 298.44 42.43 298.68L58.45 282.66H63.67L102.82 243.51C103.11 243.22 103.59 243.22 103.88 243.51C104.17 243.8 104.17 244.28 103.88 244.57L64.29 284.16H59.07L43.49 299.74ZM42.38 301.16C42.38 300.41 41.77 299.79 41.01 299.79C40.25 299.79 39.64 300.4 39.64 301.16C39.64 301.92 40.25 302.53 41.01 302.53C41.77 302.53 42.38 301.92 42.38 301.16ZM201.47 53.6C201.22 53.18 201.07 52.69 201.07 52.17C201.07 50.59 202.36 49.3 203.94 49.3C205.52 49.3 206.81 50.59 206.81 52.17C206.81 53.75 205.52 55.04 203.94 55.04C203.43 55.04 202.96 54.89 202.54 54.66L189.52 67.59L189.48 145.9C190.55 146.22 191.33 147.21 191.33 148.38C191.33 149.1 191.03 149.79 190.51 150.27L189.97 148.88C189.72 148.24 189.04 147.88 188.33 148.09C187.93 148.21 187.62 148.54 187.47 148.93L186.95 150.27C186.23 149.6 185.93 148.57 186.26 147.55C186.52 146.75 187.18 146.14 187.98 145.9L188.02 66.95L201.47 53.59V53.6ZM202.57 52.17C202.57 52.92 203.18 53.54 203.94 53.54C204.7 53.54 205.31 52.93 205.31 52.17C205.31 51.41 204.7 50.8 203.94 50.8C203.18 50.8 202.57 51.41 202.57 52.17ZM239.72 119.76C239.47 119.34 239.32 118.85 239.32 118.33C239.32 116.75 240.61 115.46 242.19 115.46C243.77 115.46 245.06 116.75 245.06 118.33C245.06 119.91 243.77 121.2 242.19 121.2C241.68 121.2 241.2 121.05 240.79 120.82L228.91 132.7V147.46L217.38 158.99C217.23 159.14 217.04 159.21 216.85 159.21C216.66 159.21 216.47 159.14 216.32 158.99C216.03 158.7 216.03 158.22 216.32 157.93L227.41 146.84V132.08L239.72 119.77V119.76ZM240.82 118.33C240.82 118.58 240.89 118.81 241.01 119.01C241.13 119.04 241.25 119.1 241.35 119.19C241.44 119.28 241.5 119.4 241.53 119.52C241.73 119.63 241.95 119.7 242.19 119.7C242.94 119.7 243.56 119.09 243.56 118.33C243.56 117.57 242.95 116.96 242.19 116.96C241.43 116.96 240.82 117.57 240.82 118.33ZM62.33 299.28C62.77 299.78 63.05 300.44 63.05 301.16C63.05 302.74 61.76 304.03 60.18 304.03C58.6 304.03 57.31 302.74 57.31 301.16C57.31 299.58 58.6 298.29 60.18 298.29C60.48 298.29 60.77 298.35 61.05 298.44L121.31 238.46C121.74 237.61 122.62 237.02 123.63 237.02C124.35 237.02 125.04 237.32 125.52 237.84L124.13 238.38C123.49 238.63 123.13 239.31 123.34 240.02C123.46 240.42 123.79 240.73 124.18 240.88L125.52 241.4C124.85 242.12 123.82 242.42 122.8 242.09C122.09 241.86 121.53 241.31 121.24 240.64L62.32 299.28H62.33ZM61.55 301.16C61.55 300.41 60.94 299.79 60.18 299.79C59.42 299.79 58.81 300.4 58.81 301.16C58.81 301.92 59.42 302.53 60.18 302.53C60.94 302.53 61.55 301.92 61.55 301.16ZM325.7 282.66H334.75C335.08 281.44 336.19 280.54 337.51 280.54C339.09 280.54 340.38 281.83 340.38 283.41C340.38 284.99 339.09 286.28 337.51 286.28C336.19 286.28 335.09 285.38 334.75 284.16H325.08L318.02 277.1H292.51C292.1 277.1 291.76 276.76 291.76 276.35C291.76 275.94 292.1 275.6 292.51 275.6H318.64L325.7 282.66ZM336.14 283.41C336.14 284.16 336.75 284.78 337.51 284.78C338.27 284.78 338.88 284.17 338.88 283.41C338.88 282.65 338.27 282.04 337.51 282.04C336.75 282.04 336.14 282.65 336.14 283.41ZM16.94 292.79C16.94 293.2 16.6 293.54 16.19 293.54H11.54L5.35 299.73C5.59 300.15 5.74 300.63 5.74 301.16C5.74 302.74 4.45 304.03 2.87 304.03C1.29 304.03 0 302.74 0 301.16C0 299.58 1.29 298.29 2.87 298.29C3.38 298.29 3.86 298.44 4.28 298.68L10.92 292.04H16.19C16.6 292.04 16.94 292.38 16.94 292.79ZM4.24 301.16C4.24 300.41 3.63 299.79 2.87 299.79C2.11 299.79 1.5 300.4 1.5 301.16C1.5 301.92 2.11 302.53 2.87 302.53C3.63 302.53 4.24 301.92 4.24 301.16ZM31.66 289.76C31.95 290.05 31.95 290.53 31.66 290.82L23.49 298.99C24.1 299.52 24.5 300.29 24.5 301.16C24.5 302.74 23.21 304.03 21.63 304.03C20.05 304.03 18.76 302.74 18.76 301.16C18.76 299.58 20.05 298.29 21.63 298.29C21.77 298.29 21.9 298.31 22.03 298.33L30.6 289.76C30.89 289.47 31.37 289.47 31.66 289.76ZM23 301.16C23 300.41 22.39 299.79 21.63 299.79C20.87 299.79 20.26 300.4 20.26 301.16C20.26 301.92 20.87 302.53 21.63 302.53C22.39 302.53 23 301.92 23 301.16ZM271.12 233.14H306.29C306.62 231.92 307.73 231.02 309.05 231.02C310.63 231.02 311.92 232.31 311.92 233.89C311.92 235.47 310.63 236.76 309.05 236.76C307.73 236.76 306.63 235.86 306.29 234.64H270.81C270.71 234.64 270.62 234.62 270.52 234.58C270.43 234.54 270.35 234.49 270.28 234.42L259.59 223.73C259.3 223.44 259.3 222.96 259.59 222.67C259.88 222.38 260.36 222.38 260.65 222.67L271.12 233.14ZM307.68 233.89C307.68 234.64 308.29 235.26 309.05 235.26C309.81 235.26 310.42 234.65 310.42 233.89C310.42 233.13 309.81 232.52 309.05 232.52C308.29 232.52 307.68 233.13 307.68 233.89ZM287.01 249.75H316.18C316.51 248.53 317.62 247.63 318.94 247.63C320.52 247.63 321.81 248.92 321.81 250.5C321.81 252.08 320.52 253.37 318.94 253.37C317.62 253.37 316.52 252.47 316.18 251.25H287.01C286.6 251.25 286.26 250.91 286.26 250.5C286.26 250.09 286.6 249.75 287.01 249.75ZM317.57 250.5C317.57 251.25 318.18 251.87 318.94 251.87C319.7 251.87 320.31 251.26 320.31 250.5C320.31 249.74 319.7 249.13 318.94 249.13C318.18 249.13 317.57 249.74 317.57 250.5ZM38.16 233.89C38.16 232.31 39.45 231.02 41.03 231.02C42.35 231.02 43.45 231.92 43.79 233.14H73.99L94.63 212.5L121.14 212.62C121.35 211.77 121.99 211.05 122.83 210.78C123.84 210.46 124.88 210.76 125.55 211.47L124.21 211.99C123.82 212.14 123.48 212.44 123.37 212.85C123.16 213.56 123.52 214.25 124.16 214.49L125.55 215.03C125.06 215.55 124.38 215.85 123.66 215.85C122.54 215.85 121.59 215.12 121.23 214.12L95.27 214L74.63 234.64H43.81C43.48 235.86 42.37 236.76 41.05 236.76C39.47 236.76 38.18 235.47 38.18 233.89H38.16ZM39.66 233.89C39.66 234.64 40.27 235.26 41.03 235.26C41.79 235.26 42.4 234.65 42.4 233.89C42.4 233.13 41.79 232.52 41.03 232.52C40.27 232.52 39.66 233.13 39.66 233.89ZM67.01 184.3C67.01 182.72 68.3 181.43 69.88 181.43C71.2 181.43 72.3 182.33 72.64 183.55H104.11L106.73 186.17H121.17C121.41 185.37 122.02 184.69 122.82 184.44C123.83 184.12 124.87 184.42 125.54 185.13L124.2 185.65C123.81 185.8 123.47 186.1 123.36 186.51C123.15 187.22 123.51 187.91 124.15 188.15L125.54 188.69C125.05 189.21 124.37 189.51 123.65 189.51C122.48 189.51 121.5 188.73 121.17 187.67H106.11L103.49 185.05H72.64C72.31 186.27 71.2 187.17 69.88 187.17C68.3 187.17 67.01 185.88 67.01 184.3ZM68.51 184.3C68.51 185.05 69.12 185.67 69.88 185.67C70.64 185.67 71.25 185.06 71.25 184.3C71.25 183.54 70.64 182.93 69.88 182.93C69.12 182.93 68.51 183.54 68.51 184.3ZM76.39 167.82C76.39 166.24 77.68 164.95 79.26 164.95C80.84 164.95 82.13 166.24 82.13 167.82C82.13 168.33 81.98 168.81 81.75 169.22L85.27 172.74L121.2 172.94C121.45 172.17 122.05 171.54 122.82 171.29C123.83 170.97 124.87 171.27 125.54 171.98L124.2 172.5C123.81 172.65 123.47 172.95 123.36 173.36C123.15 174.07 123.51 174.76 124.15 175L125.54 175.54C125.05 176.06 124.37 176.36 123.65 176.36C122.45 176.36 121.44 175.55 121.14 174.44L84.65 174.24L80.71 170.3C80.29 170.55 79.8 170.7 79.28 170.7C77.7 170.7 76.41 169.41 76.41 167.83L76.39 167.82ZM77.89 167.82C77.89 168.57 78.5 169.19 79.26 169.19C80.02 169.19 80.63 168.58 80.63 167.82C80.63 167.06 80.02 166.45 79.26 166.45C78.5 166.45 77.89 167.06 77.89 167.82ZM95.6 134.78C95.6 133.2 96.89 131.91 98.47 131.91C100.05 131.91 101.34 133.2 101.34 134.78C101.34 135.33 101.18 135.84 100.91 136.28L122.8 157.98C122.8 157.98 122.84 158.05 122.87 158.08C123.87 157.78 124.88 158.08 125.54 158.78L124.2 159.3C123.81 159.45 123.47 159.75 123.36 160.16C123.15 160.87 123.51 161.56 124.15 161.8L125.54 162.34C125.05 162.86 124.37 163.16 123.65 163.16C122.05 163.16 120.78 161.7 121.1 160.05C121.18 159.64 121.37 159.26 121.64 158.94L99.83 137.32C99.43 137.53 98.98 137.67 98.49 137.67C96.91 137.67 95.62 136.38 95.62 134.8L95.6 134.78ZM97.1 134.78C97.1 135.53 97.71 136.15 98.47 136.15C99.23 136.15 99.84 135.54 99.84 134.78C99.84 134.02 99.23 133.41 98.47 133.41C97.71 133.41 97.1 134.02 97.1 134.78ZM124.23 85.25C124.23 83.67 125.52 82.38 127.1 82.38C128.68 82.38 129.97 83.67 129.97 85.25C129.97 85.73 129.84 86.18 129.63 86.58L141.29 98.27V107.19C141.29 107.6 140.96 107.94 140.54 107.94C140.13 107.94 139.79 107.6 139.79 107.19V98.89L128.61 87.68C128.17 87.95 127.66 88.12 127.11 88.12C125.53 88.12 124.24 86.83 124.24 85.25H124.23ZM125.73 85.25C125.73 86 126.34 86.62 127.1 86.62C127.86 86.62 128.47 86.01 128.47 85.25C128.47 84.49 127.86 83.88 127.1 83.88C126.34 83.88 125.73 84.49 125.73 85.25ZM143.25 52.18C143.25 50.6 144.54 49.31 146.12 49.31C147.7 49.31 148.99 50.6 148.99 52.18C148.99 52.7 148.84 53.18 148.6 53.61L163.14 68.15V127.07C163.14 127.48 162.8 127.82 162.39 127.82C161.98 127.82 161.64 127.48 161.64 127.07V68.77L147.53 54.66C147.11 54.9 146.64 55.05 146.12 55.05C144.54 55.05 143.25 53.76 143.25 52.18ZM144.75 52.18C144.75 52.93 145.36 53.55 146.12 53.55C146.88 53.55 147.49 52.94 147.49 52.18C147.49 51.42 146.88 50.81 146.12 50.81C145.36 50.81 144.75 51.42 144.75 52.18ZM158.17 37.09L171.86 50.78V129.96L163.09 139.26L163.13 145.91C164.2 146.23 164.98 147.22 164.98 148.39C164.98 149.11 164.68 149.8 164.16 150.28L163.62 148.89C163.37 148.25 162.69 147.89 161.98 148.1C161.58 148.22 161.27 148.55 161.12 148.94L160.6 150.28C159.88 149.61 159.58 148.58 159.91 147.56C160.17 146.76 160.83 146.15 161.62 145.91L161.57 138.65L170.35 129.35V51.39L157.03 38.07C156.65 38.26 156.22 38.38 155.76 38.38C154.18 38.38 152.89 37.09 152.89 35.51C152.89 33.93 154.18 32.64 155.76 32.64C157.34 32.64 158.63 33.93 158.63 35.51C158.63 36.09 158.46 36.62 158.16 37.07L158.17 37.09ZM157.14 35.53C157.14 34.78 156.53 34.16 155.77 34.16C155.01 34.16 154.4 34.77 154.4 35.53C154.4 36.29 155.01 36.9 155.77 36.9C156.53 36.9 157.14 36.29 157.14 35.53ZM162.29 19.09C162.29 17.51 163.58 16.22 165.16 16.22C166.74 16.22 168.03 17.51 168.03 19.09C168.03 19.63 167.87 20.13 167.61 20.56L171.83 24.78V42C171.83 42.41 171.49 42.75 171.08 42.75C170.67 42.75 170.33 42.41 170.33 42V25.4L166.53 21.6C166.12 21.82 165.66 21.96 165.16 21.96C163.58 21.96 162.29 20.67 162.29 19.09ZM163.79 19.09C163.79 19.84 164.4 20.46 165.16 20.46C165.92 20.46 166.53 19.85 166.53 19.09C166.53 18.33 165.92 17.72 165.16 17.72C164.4 17.72 163.79 18.33 163.79 19.09ZM18.75 266.56C18.75 264.98 20.04 263.69 21.62 263.69C22.96 263.69 24.07 264.61 24.39 265.85L67.38 265.8L107.49 225.69H121.14C121.46 224.62 122.45 223.84 123.62 223.84C124.34 223.84 125.03 224.14 125.51 224.66L124.12 225.2C123.48 225.45 123.12 226.13 123.33 226.84C123.45 227.24 123.78 227.55 124.17 227.7L125.51 228.22C124.84 228.94 123.81 229.24 122.79 228.91C121.99 228.65 121.38 227.99 121.14 227.19H108.1L67.99 267.3L24.35 267.35C24 268.54 22.91 269.42 21.61 269.42C20.03 269.42 18.74 268.13 18.74 266.55L18.75 266.56ZM20.25 266.56C20.25 267.31 20.86 267.93 21.62 267.93C22.38 267.93 22.99 267.32 22.99 266.56C22.99 265.8 22.38 265.19 21.62 265.19C20.86 265.19 20.25 265.8 20.25 266.56ZM9.68 283.41C9.68 281.83 10.97 280.54 12.55 280.54C13.87 280.54 14.97 281.44 15.31 282.66H37.84L45.31 275.19H57.04C57.45 275.19 57.79 275.53 57.79 275.94C57.79 276.35 57.45 276.69 57.04 276.69H45.93L38.46 284.16H15.3C14.97 285.38 13.86 286.28 12.54 286.28C10.96 286.28 9.67 284.99 9.67 283.41H9.68ZM11.18 283.41C11.18 284.16 11.79 284.78 12.55 284.78C13.31 284.78 13.92 284.17 13.92 283.41C13.92 282.65 13.31 282.04 12.55 282.04C11.79 282.04 11.18 282.65 11.18 283.41ZM82.12 301.16C82.12 302.74 80.83 304.03 79.25 304.03C77.67 304.03 76.38 302.74 76.38 301.16C76.38 299.84 77.28 298.74 78.5 298.4V294.35L132.87 239.98C133.16 239.69 133.64 239.69 133.93 239.98C134.22 240.27 134.22 240.75 133.93 241.04L80 294.97V298.4C81.22 298.73 82.12 299.84 82.12 301.16ZM80.62 301.16C80.62 300.41 80.01 299.79 79.25 299.79C78.49 299.79 77.88 300.4 77.88 301.16C77.88 301.92 78.49 302.53 79.25 302.53C80.01 302.53 80.62 301.92 80.62 301.16ZM101.33 301.16C101.33 302.74 100.04 304.03 98.46 304.03C96.88 304.03 95.59 302.74 95.59 301.16C95.59 299.84 96.49 298.74 97.71 298.4V287.63L119.29 266.05C119.58 265.76 120.06 265.76 120.35 266.05C120.64 266.34 120.64 266.82 120.35 267.11L99.21 288.25V298.4C100.43 298.73 101.33 299.84 101.33 301.16ZM99.83 301.16C99.83 300.41 99.22 299.79 98.46 299.79C97.7 299.79 97.09 300.4 97.09 301.16C97.09 301.92 97.7 302.53 98.46 302.53C99.22 302.53 99.83 301.92 99.83 301.16ZM120.3 301.16C120.3 302.74 119.01 304.03 117.43 304.03C115.85 304.03 114.56 302.74 114.56 301.16C114.56 299.84 115.46 298.74 116.68 298.4V281.6L135.21 263.07V254.59C135.21 254.42 135.27 254.28 135.37 254.15C134.53 253.93 133.83 253.3 133.56 252.47C133.24 251.46 133.54 250.42 134.25 249.75L134.77 251.09C134.92 251.48 135.22 251.82 135.63 251.93C136.34 252.14 137.03 251.78 137.27 251.14L137.81 249.75C138.33 250.24 138.63 250.92 138.63 251.64C138.63 252.88 137.75 253.92 136.58 254.17C136.66 254.29 136.71 254.42 136.71 254.57V263.68L118.18 282.21V298.39C119.4 298.72 120.3 299.83 120.3 301.15V301.16ZM118.8 301.16C118.8 300.41 118.19 299.79 117.43 299.79C116.67 299.79 116.06 300.4 116.06 301.16C116.06 301.92 116.67 302.53 117.43 302.53C118.19 302.53 118.8 301.92 118.8 301.16ZM178.42 301.1C178.42 302.68 177.13 303.97 175.55 303.97C173.97 303.97 172.68 302.68 172.68 301.1C172.68 299.78 173.58 298.68 174.8 298.34V254.12C174 253.88 173.34 253.27 173.08 252.47C172.76 251.46 173.06 250.42 173.77 249.75L174.29 251.09C174.44 251.48 174.74 251.82 175.15 251.93C175.86 252.14 176.55 251.78 176.79 251.14L177.33 249.75C177.85 250.24 178.15 250.92 178.15 251.64C178.15 252.81 177.37 253.8 176.3 254.12V298.32C177.52 298.65 178.42 299.76 178.42 301.08V301.1ZM176.92 301.1C176.92 300.35 176.31 299.73 175.55 299.73C174.79 299.73 174.18 300.34 174.18 301.1C174.18 301.86 174.79 302.47 175.55 302.47C176.31 302.47 176.92 301.86 176.92 301.1ZM28.25 250.5C28.25 248.92 29.54 247.63 31.12 247.63C32.46 247.63 33.58 248.56 33.89 249.81C33.98 249.77 34.08 249.75 34.18 249.75H70.6L89.83 230.52C90.12 230.23 90.6 230.23 90.89 230.52C91.18 230.81 91.18 231.29 90.89 231.58L71.22 251.25H34.18C34.08 251.25 33.98 251.23 33.89 251.19C33.58 252.44 32.46 253.37 31.12 253.37C29.54 253.37 28.25 252.08 28.25 250.5ZM29.75 250.5C29.75 251.25 30.36 251.87 31.12 251.87C31.88 251.87 32.49 251.26 32.49 250.5C32.49 249.74 31.88 249.13 31.12 249.13C30.36 249.13 29.75 249.74 29.75 250.5ZM47.84 217.32C47.84 215.74 49.13 214.45 50.71 214.45C52.03 214.45 53.13 215.35 53.47 216.57H77.17L94.37 199.37H121.14C121.37 198.55 121.99 197.86 122.8 197.6C123.81 197.28 124.85 197.58 125.52 198.29L124.18 198.81C123.79 198.96 123.45 199.26 123.34 199.67C123.13 200.38 123.49 201.07 124.13 201.31L125.52 201.85C125.03 202.37 124.35 202.67 123.63 202.67C122.48 202.67 121.51 201.91 121.17 200.87H95L77.8 218.07H53.47C53.14 219.29 52.03 220.19 50.71 220.19C49.13 220.19 47.84 218.9 47.84 217.32ZM49.34 217.32C49.34 218.07 49.95 218.69 50.71 218.69C51.47 218.69 52.08 218.08 52.08 217.32C52.08 216.56 51.47 215.95 50.71 215.95C49.95 215.95 49.34 216.56 49.34 217.32ZM57.31 200.91C57.31 199.33 58.6 198.04 60.18 198.04C61.51 198.04 62.62 198.95 62.94 200.18L80.91 200.16L89.45 191.62H101.33C101.74 191.62 102.08 191.96 102.08 192.37C102.08 192.78 101.74 193.12 101.33 193.12H90.07L81.53 201.66L62.93 201.68C62.59 202.89 61.49 203.78 60.18 203.78C58.6 203.78 57.31 202.49 57.31 200.91ZM58.81 200.91C58.81 201.66 59.42 202.28 60.18 202.28C60.94 202.28 61.55 201.67 61.55 200.91C61.55 200.15 60.94 199.54 60.18 199.54C59.42 199.54 58.81 200.15 58.81 200.91ZM86.02 151.17C86.02 149.59 87.31 148.3 88.89 148.3C90.47 148.3 91.76 149.59 91.76 151.17C91.76 151.73 91.59 152.26 91.31 152.7L101.49 162.88H107.86C108.27 162.88 108.61 163.22 108.61 163.63C108.61 164.04 108.27 164.38 107.86 164.38H100.87L90.2 153.71C89.81 153.91 89.37 154.04 88.9 154.04C87.32 154.04 86.03 152.75 86.03 151.17H86.02ZM87.52 151.17C87.52 151.92 88.13 152.54 88.89 152.54C89.65 152.54 90.26 151.93 90.26 151.17C90.26 150.41 89.65 149.8 88.89 149.8C88.13 149.8 87.52 150.41 87.52 151.17ZM104.98 118.33C104.98 116.75 106.27 115.46 107.85 115.46C109.43 115.46 110.72 116.75 110.72 118.33C110.72 118.8 110.59 119.24 110.39 119.64L121.36 130.62V146.43L132.85 157.92C133.14 158.21 133.14 158.69 132.85 158.98C132.7 159.13 132.51 159.2 132.32 159.2C132.13 159.2 131.94 159.13 131.79 158.98L119.86 147.05V131.24L109.38 120.75C108.94 121.03 108.42 121.2 107.85 121.2C106.27 121.2 104.98 119.91 104.98 118.33ZM106.48 118.33C106.48 119.08 107.09 119.7 107.85 119.7C108.61 119.7 109.22 119.09 109.22 118.33C109.22 117.57 108.61 116.96 107.85 116.96C107.09 116.96 106.48 117.57 106.48 118.33ZM114.55 101.59C114.55 100.01 115.84 98.72 117.42 98.72C119 98.72 120.29 100.01 120.29 101.59C120.29 102.12 120.13 102.62 119.88 103.05L136.7 119.77V145.87C137.81 146.17 138.62 147.18 138.62 148.38C138.62 149.1 138.32 149.79 137.8 150.27L137.26 148.88C137.01 148.24 136.33 147.88 135.62 148.09C135.22 148.21 134.91 148.54 134.76 148.93L134.24 150.27C133.52 149.6 133.22 148.57 133.55 147.55C133.8 146.78 134.43 146.18 135.2 145.93V120.39L118.8 104.09C118.39 104.32 117.93 104.46 117.42 104.46C115.84 104.46 114.55 103.17 114.55 101.59ZM116.05 101.59C116.05 102.34 116.66 102.96 117.42 102.96C118.18 102.96 118.79 102.35 118.79 101.59C118.79 100.83 118.18 100.22 117.42 100.22C116.66 100.22 116.05 100.83 116.05 101.59ZM183.6 21.62L179.83 25.39V33.03C179.83 33.44 179.49 33.78 179.08 33.78C178.67 33.78 178.33 33.44 178.33 33.03V24.77L182.49 20.61C182.21 20.17 182.04 19.64 182.04 19.08C182.04 17.5 183.33 16.21 184.91 16.21C186.49 16.21 187.78 17.5 187.78 19.08C187.78 20.66 186.49 21.95 184.91 21.95C184.44 21.95 184 21.82 183.6 21.62ZM183.54 19.08C183.54 19.83 184.15 20.45 184.91 20.45C185.67 20.45 186.28 19.84 186.28 19.08C186.28 18.32 185.67 17.71 184.91 17.71C184.15 17.71 183.54 18.32 183.54 19.08ZM350.05 301.16C350.05 302.74 348.76 304.03 347.18 304.03C345.6 304.03 344.31 302.74 344.31 301.16C344.31 300.89 344.36 300.63 344.43 300.37L336.47 292.41H331.29C330.88 292.41 330.54 292.07 330.54 291.66C330.54 291.25 330.88 290.91 331.29 290.91H337.1L345.24 299.05C345.75 298.58 346.43 298.28 347.18 298.28C348.76 298.28 350.05 299.57 350.05 301.15V301.16ZM348.55 301.16C348.55 300.41 347.94 299.79 347.18 299.79C346.42 299.79 345.81 300.4 345.81 301.16C345.81 301.92 346.42 302.53 347.18 302.53C347.94 302.53 348.55 301.92 348.55 301.16ZM331.3 301.16C331.3 302.74 330.01 304.03 328.43 304.03C326.85 304.03 325.56 302.74 325.56 301.16C325.56 300.64 325.71 300.16 325.95 299.74L310.15 283.94C309.86 283.65 309.86 283.17 310.15 282.88C310.44 282.59 310.92 282.59 311.21 282.88L327.01 298.68C327.43 298.44 327.91 298.29 328.43 298.29C330.01 298.29 331.3 299.58 331.3 301.16ZM329.8 301.16C329.8 300.41 329.19 299.79 328.43 299.79C327.67 299.79 327.06 300.4 327.06 301.16C327.06 301.92 327.67 302.53 328.43 302.53C329.19 302.53 329.8 301.92 329.8 301.16ZM311.91 301.16C311.91 302.74 310.62 304.03 309.04 304.03C307.46 304.03 306.17 302.74 306.17 301.16C306.17 300.65 306.32 300.17 306.55 299.75L295.97 289.17H289.55L238.58 238.2C238.29 237.91 238.29 237.43 238.58 237.14C238.87 236.85 239.35 236.85 239.64 237.14L290.17 287.67H296.59L307.61 298.69C308.03 298.45 308.52 298.29 309.04 298.29C310.62 298.29 311.91 299.58 311.91 301.16ZM310.41 301.16C310.41 300.41 309.8 299.79 309.04 299.79C308.28 299.79 307.67 300.4 307.67 301.16C307.67 301.92 308.28 302.53 309.04 302.53C309.8 302.53 310.41 301.92 310.41 301.16ZM292.74 301.16C292.74 302.74 291.45 304.03 289.87 304.03C288.29 304.03 287 302.74 287 301.16C287 300.41 287.3 299.72 287.78 299.21L229.54 240.92C229.22 241.46 228.73 241.9 228.12 242.09C227.11 242.41 226.07 242.11 225.4 241.4L226.74 240.88C227.13 240.73 227.47 240.43 227.58 240.02C227.79 239.31 227.43 238.62 226.79 238.38L225.4 237.84C225.89 237.32 226.57 237.02 227.29 237.02C228.54 237.02 229.57 237.91 229.82 239.09L289.09 298.41C289.34 298.34 289.59 298.29 289.86 298.29C291.44 298.29 292.73 299.58 292.73 301.16H292.74ZM291.24 301.16C291.24 300.41 290.63 299.79 289.87 299.79C289.76 299.79 289.66 299.81 289.55 299.83C289.54 299.85 289.53 299.87 289.51 299.89C289.37 300.03 289.19 300.1 289 300.1C288.69 300.35 288.49 300.73 288.49 301.16C288.49 301.91 289.1 302.53 289.86 302.53C290.62 302.53 291.23 301.92 291.23 301.16H291.24ZM273.67 301.16C273.67 302.74 272.38 304.03 270.8 304.03C269.22 304.03 267.93 302.74 267.93 301.16C267.93 299.84 268.83 298.74 270.05 298.4V293.59L216.39 239.88C216.1 239.59 216.1 239.11 216.39 238.82C216.68 238.53 217.16 238.53 217.45 238.82L271.54 292.97V298.4C272.76 298.73 273.66 299.84 273.66 301.16H273.67ZM272.17 301.16C272.17 300.41 271.56 299.79 270.8 299.79C270.04 299.79 269.43 300.4 269.43 301.16C269.43 301.92 270.04 302.53 270.8 302.53C271.56 302.53 272.17 301.92 272.17 301.16ZM254.46 301.16C254.46 302.74 253.17 304.03 251.59 304.03C250.01 304.03 248.72 302.74 248.72 301.16C248.72 299.84 249.62 298.74 250.84 298.4V288.25L216.45 253.86C216.19 254.02 215.92 254.15 215.62 254.2C213.96 254.52 212.51 253.25 212.51 251.65C212.51 250.93 212.81 250.24 213.33 249.76L213.87 251.15C214.12 251.79 214.8 252.15 215.51 251.94C215.91 251.82 216.22 251.49 216.37 251.1L216.89 249.76C217.61 250.43 217.91 251.46 217.58 252.48C217.55 252.57 217.49 252.65 217.45 252.74L252.35 287.64V298.41C253.57 298.74 254.47 299.85 254.47 301.17L254.46 301.16ZM252.96 301.16C252.96 300.41 252.35 299.79 251.59 299.79C250.83 299.79 250.22 300.4 250.22 301.16C250.22 301.92 250.83 302.53 251.59 302.53C252.35 302.53 252.96 301.92 252.96 301.16ZM235.49 301.16C235.49 302.74 234.2 304.03 232.62 304.03C231.04 304.03 229.75 302.74 229.75 301.16C229.75 299.83 230.66 298.73 231.88 298.4V287.76L214.6 270.48C214.31 270.19 214.31 269.71 214.6 269.42C214.89 269.13 215.37 269.13 215.66 269.42L233.38 287.14V298.41C234.59 298.75 235.48 299.85 235.48 301.16H235.49ZM233.99 301.16C233.99 300.41 233.38 299.79 232.62 299.79C231.86 299.79 231.25 300.4 231.25 301.16C231.25 301.92 231.86 302.53 232.62 302.53C233.38 302.53 233.99 301.92 233.99 301.16ZM216.4 301.16C216.4 302.74 215.11 304.03 213.53 304.03C211.95 304.03 210.66 302.74 210.66 301.16C210.66 299.84 211.56 298.74 212.78 298.4V289.11L201.17 277.5V254.13C200.1 253.81 199.32 252.82 199.32 251.65C199.32 250.93 199.62 250.24 200.14 249.76L200.68 251.15C200.93 251.79 201.61 252.15 202.32 251.94C202.72 251.82 203.03 251.49 203.18 251.1L203.7 249.76C204.42 250.43 204.72 251.46 204.39 252.48C204.13 253.28 203.47 253.89 202.67 254.13V276.89L214.28 288.5V298.41C215.5 298.74 216.4 299.85 216.4 301.17V301.16ZM214.9 301.16C214.9 300.41 214.29 299.79 213.53 299.79C212.77 299.79 212.16 300.4 212.16 301.16C212.16 301.92 212.77 302.53 213.53 302.53C214.29 302.53 214.9 301.92 214.9 301.16ZM196.49 301.16C196.49 302.74 195.2 304.03 193.62 304.03C192.04 304.03 190.75 302.74 190.75 301.16C190.75 299.83 191.66 298.72 192.89 298.4C192.89 298.36 192.87 298.33 192.87 298.29V282.46L188.02 277.51L187.88 254.09C187.12 253.83 186.5 253.24 186.25 252.47C185.93 251.46 186.23 250.42 186.94 249.75L187.46 251.09C187.61 251.48 187.91 251.82 188.32 251.93C189.03 252.14 189.72 251.78 189.96 251.14L190.5 249.75C191.02 250.24 191.32 250.92 191.32 251.64C191.32 252.85 190.49 253.86 189.38 254.15L189.51 276.88L194.37 281.84V298.28C194.37 298.28 194.35 298.35 194.35 298.39C195.58 298.71 196.49 299.82 196.49 301.15V301.16ZM194.99 301.16C194.99 300.41 194.38 299.79 193.62 299.79C192.86 299.79 192.25 300.4 192.25 301.16C192.25 301.92 192.86 302.53 193.62 302.53C194.38 302.53 194.99 301.92 194.99 301.16ZM172.68 2.87C172.68 1.29 173.97 0 175.55 0C177.13 0 178.42 1.29 178.42 2.87C178.42 4.19 177.52 5.29 176.3 5.63V145.9C177.37 146.22 178.15 147.21 178.15 148.38C178.15 149.1 177.85 149.79 177.33 150.27L176.79 148.88C176.54 148.24 175.86 147.88 175.15 148.09C174.75 148.21 174.44 148.54 174.29 148.93L173.77 150.27C173.05 149.6 172.75 148.57 173.08 147.55C173.34 146.75 174 146.14 174.8 145.9V5.62C173.58 5.29 172.68 4.18 172.68 2.86V2.87ZM174.18 2.87C174.18 3.62 174.79 4.24 175.55 4.24C176.3 4.24 176.92 3.63 176.92 2.87C176.92 2.11 176.31 1.5 175.55 1.5C174.79 1.5 174.18 2.11 174.18 2.87Z" fill="#213F82"/>
<path d="M207.89 165.97H144.45C142.837 165.97 141.53 167.277 141.53 168.89V232.33C141.53 233.943 142.837 235.25 144.45 235.25H207.89C209.503 235.25 210.81 233.943 210.81 232.33V168.89C210.81 167.277 209.503 165.97 207.89 165.97Z" fill="#1B1C3B"/>
<path d="M130.28 162.72V237.32C130.28 241.72 133.85 245.29 138.25 245.29H212.85C217.25 245.29 220.82 241.72 220.82 237.32V162.72C220.82 158.32 217.25 154.75 212.85 154.75H138.25C133.85 154.75 130.28 158.32 130.28 162.72ZM218.26 215.58C218.26 217.41 217.45 219.15 216.06 220.33L216.01 220.38C215.24 221.04 214.79 222 214.79 223.01V232.96C214.79 236.43 211.97 239.25 208.5 239.25H142.61C139.14 239.25 136.32 236.43 136.32 232.96V223.01C136.32 222 135.87 221.03 135.1 220.38L135.04 220.33C133.64 219.15 132.84 217.41 132.84 215.58V183.71C132.84 181.86 133.86 180.14 135.53 179.34C136.02 179.11 136.32 178.62 136.32 178.09V167.08C136.32 163.61 139.14 160.79 142.61 160.79H208.5C211.97 160.79 214.79 163.61 214.79 167.08V176.99C214.79 178.07 215.23 179.05 215.97 179.59C217.48 180.7 218.27 182.55 218.27 184.43V215.59L218.26 215.58Z" fill="#1B1C3B"/>
<path d="M214.39 181.43C213.05 180.37 212.36 178.69 212.36 176.98V167.07C212.36 164.93 210.63 163.2 208.49 163.2H142.6C140.46 163.2 138.73 164.93 138.73 167.07V178.08C138.73 179.51 137.96 180.86 136.67 181.47C135.8 181.88 135.25 182.75 135.25 183.71V215.58C135.25 216.7 135.74 217.76 136.6 218.49L136.66 218.54C137.98 219.66 138.73 221.29 138.73 223.02V232.97C138.73 235.11 140.46 236.84 142.6 236.84H208.49C210.63 236.84 212.36 235.11 212.36 232.97V223.02C212.36 221.29 213.12 219.66 214.44 218.54L214.49 218.5C215.35 217.78 215.84 216.71 215.84 215.59V184.43C215.84 183.27 215.31 182.17 214.39 181.44V181.43ZM209.15 230.24C209.15 232.09 207.65 233.59 205.8 233.59H145.48C143.63 233.59 142.13 232.09 142.13 230.24V169.92C142.13 168.07 143.63 166.57 145.48 166.57H205.8C207.65 166.57 209.15 168.07 209.15 169.92V230.24Z" fill="white"/>
<path d="M162.63 198.32C164.81 198.92 166.31 199.66 167.13 200.54C167.95 201.42 168.36 202.64 168.36 204.18C168.36 206.54 167.6 208.3 166.09 209.45C164.58 210.61 162.24 211.18 159.07 211.18H150.33C149.97 211.18 149.79 211.04 149.79 210.75V209.91C149.79 209.68 149.95 209.5 150.27 209.39C150.95 209.14 151.29 208.77 151.29 208.28V191.4C151.29 191.17 151.24 191.01 151.15 190.92C151.05 190.84 150.77 190.71 150.29 190.53C150.05 190.45 149.91 190.35 149.87 190.25C149.83 190.15 149.81 189.9 149.81 189.49C149.81 189.14 149.87 188.9 150 188.78C150.12 188.66 150.34 188.6 150.65 188.6H160.44C162.8 188.6 164.61 189.07 165.87 190.01C167.13 190.95 167.76 192.15 167.76 193.6C167.76 194.81 167.26 195.83 166.27 196.65C165.28 197.47 164.06 198.02 162.62 198.3L162.63 198.32ZM157.95 190.19V197.53H158.9C159.5 197.53 159.96 197.39 160.3 197.12C160.64 196.85 160.84 196.4 160.89 195.77C160.94 195.14 160.97 194.35 160.97 193.39C160.97 192.05 160.81 191.18 160.48 190.78C160.15 190.38 159.62 190.19 158.9 190.19H157.95ZM157.95 199.13V209.58C159.05 209.58 159.78 209.46 160.16 209.23C160.54 209 160.76 208.54 160.82 207.85C160.89 207.16 160.92 205.99 160.92 204.35C160.92 204.01 160.9 203.25 160.87 202.06C160.83 200.87 160.76 200.16 160.66 199.91C160.55 199.67 160.37 199.48 160.1 199.34C159.83 199.2 159.44 199.13 158.91 199.13H157.96H157.95ZM170.65 189.79V189.05C170.65 188.76 170.85 188.62 171.24 188.62H179.8C180.12 188.62 180.33 188.65 180.43 188.72C180.52 188.79 180.57 188.98 180.57 189.31C180.57 189.8 180.54 190.11 180.47 190.23C180.4 190.35 180.26 190.43 180.03 190.45C179.29 190.55 178.92 190.92 178.92 191.55V208.36C178.92 208.71 179.19 208.99 179.72 209.2C180.07 209.33 180.27 209.45 180.35 209.55C180.42 209.65 180.46 209.83 180.46 210.08V210.63C180.46 210.93 180.42 211.1 180.35 211.13C180.28 211.17 180.09 211.19 179.8 211.19H171.08C170.75 211.19 170.58 211.09 170.58 210.88C170.58 210.21 170.61 209.8 170.67 209.65C170.73 209.5 170.94 209.38 171.3 209.3C171.94 209.16 172.26 208.89 172.26 208.5V191.9C172.26 191.51 172.2 191.21 172.08 191.01C171.96 190.81 171.7 190.64 171.29 190.51C170.99 190.41 170.81 190.32 170.74 190.24C170.67 190.16 170.64 190.01 170.64 189.79H170.65ZM194.61 209.82C193.54 210.9 192.22 211.44 190.64 211.44C188.19 211.44 186.18 210.31 184.62 208.06C183.06 205.8 182.28 203.13 182.28 200.03C182.28 196.52 183.16 193.68 184.92 191.51C186.68 189.33 188.77 188.24 191.17 188.24C192.33 188.24 193.35 188.47 194.24 188.94C194.53 189.08 194.75 189.15 194.9 189.15C195.11 189.15 195.3 188.99 195.45 188.67C195.59 188.38 195.84 188.24 196.2 188.24H196.41L196.98 188.27C197.36 188.32 197.6 188.53 197.69 188.9L198.83 193.35C198.95 193.81 199.01 194.11 199.01 194.27C199.01 194.6 198.69 194.76 198.06 194.76C197.43 194.76 197.04 194.69 196.86 194.55C196.68 194.41 196.32 193.92 195.79 193.08C195.08 191.94 194.45 191.15 193.9 190.71C193.36 190.27 192.78 190.05 192.16 190.05C190.53 190.05 189.71 191.07 189.71 193.1V208.12C189.71 209.22 190.16 209.77 191.05 209.77C192.03 209.77 192.52 209.22 192.52 208.12V200.82C192.52 200.35 192.31 200.04 191.89 199.9C191.44 199.75 191.21 199.44 191.21 198.98C191.21 198.48 191.27 198.18 191.39 198.09C191.51 197.99 191.77 197.94 192.16 197.94H199.72C200.09 197.94 200.34 197.99 200.46 198.09C200.59 198.19 200.65 198.43 200.65 198.79C200.65 199.18 200.61 199.43 200.53 199.56C200.45 199.69 200.26 199.8 199.97 199.88C199.54 200 199.33 200.26 199.33 200.65V210.15C199.33 210.72 199.28 211.07 199.19 211.22C199.1 211.37 198.84 211.44 198.44 211.44C198.07 211.44 197.81 211.42 197.64 211.38C197.48 211.34 197.26 211.21 196.97 211C196.17 210.39 195.37 210 194.58 209.83L194.61 209.82Z" fill="white"/>
</svg>
