<svg viewBox="0 0 1607 120" fill="none" xmlns="http://www.w3.org/2000/svg">
<path d="M45.25 46.5C52.875 49.1667 58.125 52.4792 61 56.4375C63.875 60.3542 65.3125 65.7708 65.3125 72.6875C65.3125 83.2292 62.6667 91.0833 57.375 96.25C52.0833 101.417 43.8958 104 32.8125 104H2.25C1 104 0.375 103.354 0.375 102.062V98.3125C0.375 97.2708 0.9375 96.5 2.0625 96C4.4375 94.875 5.625 93.2292 5.625 91.0625V15.625C5.625 14.5833 5.45833 13.875 5.125 13.5C4.79167 13.125 3.79167 12.5417 2.125 11.75C1.29167 11.375 0.791667 10.9583 0.625 10.5C0.5 10.0417 0.4375 8.91667 0.4375 7.125C0.4375 5.54167 0.645833 4.47917 1.0625 3.9375C1.52083 3.39583 2.29167 3.125 3.375 3.125H37.625C45.875 3.125 52.2083 5.22917 56.625 9.4375C61.0417 13.6458 63.25 19 63.25 25.5C63.25 30.9167 61.5 35.4583 58 39.125C54.5417 42.7917 50.2917 45.25 45.25 46.5ZM28.875 10.1875V43H32.1875C34.2708 43 35.8958 42.3958 37.0625 41.1875C38.2708 39.9792 38.9583 37.9792 39.125 35.1875C39.3333 32.3542 39.4375 28.7917 39.4375 24.5C39.4375 18.5 38.8542 14.625 37.6875 12.875C36.5625 11.0833 34.7292 10.1875 32.1875 10.1875H28.875ZM28.875 50.125V96.8125C32.7083 96.8125 35.2708 96.2917 36.5625 95.25C37.8958 94.2083 38.6667 92.1458 38.875 89.0625C39.125 85.9792 39.25 80.7708 39.25 73.4375C39.25 71.9375 39.1875 68.5417 39.0625 63.25C38.9375 57.9167 38.6875 54.7083 38.3125 53.625C37.9375 52.5417 37.2708 51.6875 36.3125 51.0625C35.3958 50.4375 34.0208 50.125 32.1875 50.125H28.875ZM116.363 43.4375V31.375C116.363 28.0417 115.008 26.375 112.3 26.375C108.592 26.375 106.738 28.8958 106.738 33.9375C106.738 36.7708 106.404 38.7917 105.738 40C105.113 41.2083 103.654 42.25 101.363 43.125C99.1125 43.9583 96.6958 44.375 94.1125 44.375C88.8208 44.375 86.175 41.5417 86.175 35.875C86.175 30.5417 88.4667 26.1875 93.05 22.8125C97.675 19.4375 103.696 17.75 111.113 17.75C115.988 17.75 120.363 18.4167 124.238 19.75C128.154 21.0833 131.279 23.3333 133.613 26.5C135.946 29.6667 137.113 33.1458 137.113 36.9375V94C137.196 94.2917 137.821 94.9167 138.988 95.875C139.821 96.5 140.238 97.4167 140.238 98.625C140.238 100.292 140.008 101.479 139.55 102.188C139.092 102.854 137.967 103.479 136.175 104.062C134.425 104.646 132.217 104.938 129.55 104.938C126.3 104.938 123.592 104.354 121.425 103.188C119.258 101.979 117.571 99.6458 116.363 96.1875C112.738 99.9375 109.8 102.333 107.55 103.375C105.3 104.417 102.988 104.938 100.613 104.938C95.3208 104.938 91.2167 102.875 88.3 98.75C85.425 94.5833 83.9875 87.7917 83.9875 78.375C83.9875 68.9583 85.3417 62.4375 88.05 58.8125C90.7583 55.1458 96.05 51.7708 103.925 48.6875C108.925 46.7708 113.071 45.0208 116.363 43.4375ZM116.363 51.5625C111.654 53.6458 108.842 56 107.925 58.625C107.008 61.2083 106.55 67.0625 106.55 76.1875C106.55 82.8958 106.925 87.1458 107.675 88.9375C108.425 90.6875 109.717 91.5625 111.55 91.5625C114.758 91.5625 116.363 88.8958 116.363 83.5625V51.5625ZM158.163 8.25V5.125C158.163 3.79167 159.038 3.125 160.788 3.125H180.1C181.142 3.125 181.829 3.20833 182.163 3.375C182.496 3.54167 182.663 4.25 182.663 5.5V92.8125C182.663 94.7292 183.288 95.9167 184.538 96.375C185.413 96.7083 185.85 97.4167 185.85 98.5V102.062C185.85 103.354 184.913 104 183.038 104H160.1C158.808 104 158.163 103.354 158.163 102.062V98.5C158.163 97.0417 158.808 95.9583 160.1 95.25C160.933 94.8333 161.454 94.4583 161.663 94.125C161.871 93.75 161.975 93.0625 161.975 92.0625V14.625C161.975 13.1667 161.413 12.1875 160.288 11.6875C158.871 10.9792 158.163 9.83333 158.163 8.25ZM207.525 27.1875H205.087C204.379 27.1875 203.921 27.1042 203.712 26.9375C203.546 26.7708 203.462 26.3125 203.462 25.5625V21.0625C203.462 20.2292 203.546 19.6875 203.712 19.4375C203.921 19.1875 204.483 19 205.4 18.875C208.4 18.4167 211.421 16.75 214.462 13.875C217.504 11 219.317 7.91667 219.9 4.625C220.108 3.45833 220.358 2.75 220.65 2.5C220.983 2.20833 221.629 2.0625 222.587 2.0625H226.65C227.733 2.0625 228.275 2.79167 228.275 4.25V18.625H232.15C233.608 18.625 234.337 19.3125 234.337 20.6875V25.1875C234.337 26.5208 233.608 27.1875 232.15 27.1875H228.275V91.9375C228.275 94.1458 229.254 95.7292 231.212 96.6875C232.171 97.1458 232.796 97.7083 233.087 98.375C233.379 99.0417 233.525 100.25 233.525 102C233.525 103.083 233.442 103.688 233.275 103.812C233.15 103.938 232.65 104 231.775 104H212.025C209.025 101.333 207.525 97.3125 207.525 91.9375V27.1875ZM269.512 0.875C274.221 0.875 276.575 2.45833 276.575 5.625C276.575 8.125 274.992 10.25 271.825 12C268.7 13.7083 265.137 14.5625 261.137 14.5625C255.971 14.5625 253.387 12.8333 253.387 9.375C253.387 6.625 255.2 4.52083 258.825 3.0625C262.45 1.60417 266.012 0.875 269.512 0.875ZM252.012 24.8125V20.6875C252.012 19.3125 252.846 18.625 254.512 18.625H274.45C275.867 18.625 276.575 19.3125 276.575 20.6875V92.5625C276.575 93.5625 276.637 94.2083 276.762 94.5C276.887 94.7917 277.262 95.0625 277.887 95.3125C279.387 95.8958 280.137 97.1875 280.137 99.1875C280.137 101.479 280.033 102.854 279.825 103.312C279.617 103.771 278.95 104 277.825 104H253.575C252.992 103.917 252.617 103.667 252.45 103.25C252.283 102.792 252.2 101.625 252.2 99.75C252.2 97.5 252.742 96.1875 253.825 95.8125C255.158 95.3542 255.825 94.5208 255.825 93.3125V31C255.825 28.5833 254.929 27.125 253.137 26.625C252.387 26.4167 252.012 25.8125 252.012 24.8125ZM321.688 30V90.5625C321.688 92.0208 322.104 93.3333 322.938 94.5C323.812 95.625 325.021 96.1875 326.562 96.1875C328.646 96.1875 330.25 94.9167 331.375 92.375C332.542 89.7917 333.125 86.4583 333.125 82.375L333.062 80.625C333.062 78.4167 333.458 77.1042 334.25 76.6875C335.083 76.2708 336.479 76.0625 338.438 76.0625C340.146 76.0625 341.312 76.375 341.938 77C342.562 77.625 342.875 78.9375 342.875 80.9375C342.875 87.3958 341.188 93.0208 337.812 97.8125C334.438 102.562 329.646 104.938 323.438 104.938C316.146 104.938 310.167 101.271 305.5 93.9375C300.833 86.6042 298.5 76.2083 298.5 62.75C298.5 52.6667 299.688 44.2917 302.062 37.625C304.438 30.9167 307.312 25.9375 310.688 22.6875C314.104 19.3958 318.354 17.75 323.438 17.75C329.479 17.75 334.25 19.7708 337.75 23.8125C341.292 27.8125 343.062 32.4583 343.062 37.75C343.062 40.5 342.479 42.8333 341.312 44.75C340.146 46.6667 338.375 47.625 336 47.625C333.542 47.625 331.646 46.7083 330.312 44.875C329.021 43.0417 328.375 40.75 328.375 38C328.375 36.8333 328.5 35.4792 328.75 33.9375C329.083 32.1458 329.25 30.7292 329.25 29.6875C329.25 28.6042 328.854 27.6875 328.062 26.9375C327.271 26.1875 326.354 25.8125 325.312 25.8125C324.312 25.8125 323.458 26.25 322.75 27.125C322.042 28 321.688 28.9583 321.688 30ZM403.475 8.375V5.0625C403.475 3.77083 404.163 3.125 405.538 3.125H435.475C436.6 3.125 437.329 3.27083 437.663 3.5625C437.996 3.85417 438.163 4.72917 438.163 6.1875C438.163 8.39583 438.038 9.77083 437.788 10.3125C437.579 10.8542 437.079 11.1875 436.288 11.3125C433.704 11.7708 432.413 13.4167 432.413 16.25V91.375C432.413 92.9583 433.35 94.2083 435.225 95.125C436.433 95.7083 437.163 96.2292 437.413 96.6875C437.663 97.1458 437.788 97.9375 437.788 99.0625V101.5C437.788 102.833 437.663 103.583 437.413 103.75C437.163 103.917 436.517 104 435.475 104H404.975C403.808 104 403.225 103.542 403.225 102.625C403.225 99.625 403.329 97.7917 403.538 97.125C403.746 96.4583 404.475 95.9375 405.725 95.5625C407.975 94.9375 409.1 93.75 409.1 92V17.8125C409.1 16.0625 408.892 14.75 408.475 13.875C408.058 12.9583 407.142 12.2083 405.725 11.625C404.683 11.1667 404.038 10.7708 403.788 10.4375C403.579 10.0625 403.475 9.375 403.475 8.375ZM478.712 27.125C483.671 20.875 489.337 17.75 495.712 17.75C500.087 17.75 503.421 19.1667 505.712 22C508.004 24.7917 509.15 28.3125 509.15 32.5625V92.4375C509.15 93.7708 509.671 94.7917 510.712 95.5C511.671 96.0833 512.15 97.5833 512.15 100C512.15 101.917 511.983 103.062 511.65 103.438C511.358 103.812 510.712 104 509.712 104H492.15C489.65 101.875 488.4 99.1042 488.4 95.6875V36.25C488.4 33 487.067 31.375 484.4 31.375C482.65 31.375 480.754 32.2917 478.712 34.125V92.4375C478.712 93.9375 479.442 95.1042 480.9 95.9375C481.775 96.4375 482.212 97.3542 482.212 98.6875V101.875C482.212 103.292 481.192 104 479.15 104H456.962C455.879 104 455.192 103.854 454.9 103.562C454.608 103.229 454.462 102.438 454.462 101.188V98.875C454.462 97.6667 454.837 96.8125 455.587 96.3125C456.587 95.6042 457.233 94.9375 457.525 94.3125C457.817 93.6875 457.962 92.3125 457.962 90.1875V29.0625C457.962 27.6042 457.254 26.5417 455.837 25.875C455.046 25.5 454.65 24.8333 454.65 23.875V20.5625C454.65 19.2708 455.233 18.625 456.4 18.625H476.775C477.65 18.625 478.192 18.75 478.4 19C478.608 19.25 478.712 19.7708 478.712 20.5625V27.125ZM533.325 27.1875H530.888C530.179 27.1875 529.721 27.1042 529.513 26.9375C529.346 26.7708 529.263 26.3125 529.263 25.5625V21.0625C529.263 20.2292 529.346 19.6875 529.513 19.4375C529.721 19.1875 530.283 19 531.2 18.875C534.2 18.4167 537.221 16.75 540.263 13.875C543.304 11 545.117 7.91667 545.7 4.625C545.908 3.45833 546.158 2.75 546.45 2.5C546.783 2.20833 547.429 2.0625 548.388 2.0625H552.45C553.533 2.0625 554.075 2.79167 554.075 4.25V18.625H557.95C559.408 18.625 560.138 19.3125 560.138 20.6875V25.1875C560.138 26.5208 559.408 27.1875 557.95 27.1875H554.075V91.9375C554.075 94.1458 555.054 95.7292 557.013 96.6875C557.971 97.1458 558.596 97.7083 558.888 98.375C559.179 99.0417 559.325 100.25 559.325 102C559.325 103.083 559.242 103.688 559.075 103.812C558.95 103.938 558.45 104 557.575 104H537.825C534.825 101.333 533.325 97.3125 533.325 91.9375V27.1875ZM601.188 60.0625V85.625C601.188 89 601.833 91.6458 603.125 93.5625C604.458 95.4792 606.146 96.4375 608.188 96.4375C611.354 96.4375 613.875 95.1042 615.75 92.4375C617.667 89.7292 618.688 86.0417 618.812 81.375C618.854 78.875 619.083 77.375 619.5 76.875C619.958 76.375 621.479 76.125 624.062 76.125C626.312 76.125 627.729 76.3542 628.312 76.8125C628.938 77.2708 629.25 78.4167 629.25 80.25C629.25 86.6667 627.167 92.375 623 97.375C618.833 102.375 613.312 104.875 606.438 104.875C598.562 104.875 591.875 101.312 586.375 94.1875C580.875 87.0208 578.125 76.25 578.125 61.875C578.125 47.5 580.667 36.5625 585.75 29.0625C590.833 21.5208 597.5 17.75 605.75 17.75C612.833 17.75 618.521 20.9167 622.812 27.25C627.104 33.5833 629.25 42.5833 629.25 54.25V60.0625H601.188ZM609.625 52.25V31.5625C609.625 27.6458 608.229 25.6875 605.438 25.6875C602.604 25.6875 601.188 27.6458 601.188 31.5625V52.25H609.625ZM683.612 18.625C684.987 17.25 685.675 16.1667 685.675 15.375C685.675 14.25 684.842 13.2083 683.175 12.25C680.925 10.9167 679.8 9.29167 679.8 7.375C679.8 3.5 682.467 1.5625 687.8 1.5625C691.05 1.5625 693.425 2.22917 694.925 3.5625C696.425 4.89583 697.175 6.52083 697.175 8.4375C697.175 12.1042 694.467 16.4167 689.05 21.375C698.258 27.9167 702.862 36.8542 702.862 48.1875C702.862 57.8958 700.196 65.5833 694.862 71.25C689.571 76.9167 683.446 79.75 676.487 79.75C674.321 79.75 671.946 79.3958 669.362 78.6875C667.946 78.3542 666.883 78.1875 666.175 78.1875C664.842 78.1875 663.425 78.6875 661.925 79.6875C660.467 80.6875 659.737 81.7708 659.737 82.9375C659.737 84.9792 662.008 86 666.55 86H683.612C689.696 86 694.675 87.25 698.55 89.75C702.425 92.25 704.362 96.2708 704.362 101.812C704.362 113.562 694.362 119.438 674.362 119.438C666.654 119.438 660.446 118.667 655.737 117.125C651.071 115.583 648.737 113.146 648.737 109.812C648.737 108.021 649.217 106.604 650.175 105.562C651.133 104.562 652.821 103.458 655.237 102.25C655.571 102.083 656.071 101.833 656.737 101.5C651.029 99 648.175 94.8542 648.175 89.0625C648.175 82.5208 652.258 77.625 660.425 74.375C652.717 68.2917 648.862 60.0417 648.862 49.625C648.862 40.3333 651.467 32.6875 656.675 26.6875C661.925 20.6458 668.279 17.625 675.737 17.625C677.862 17.625 680.487 17.9583 683.612 18.625ZM680.425 34.3125C680.425 28.8958 678.925 26.1875 675.925 26.1875C674.425 26.1875 673.237 27.0625 672.362 28.8125C671.487 30.5208 671.05 32.3542 671.05 34.3125V65.375C671.05 67.0833 671.467 68.5208 672.3 69.6875C673.175 70.8125 674.279 71.375 675.612 71.375C677.029 71.375 678.175 70.7708 679.05 69.5625C679.967 68.3125 680.425 66.7292 680.425 64.8125V34.3125ZM664.925 103.688C662.217 104.771 660.862 106.104 660.862 107.688C660.862 109.271 661.821 110.458 663.737 111.25C665.696 112.042 669.717 112.438 675.8 112.438C686.3 112.438 691.55 110.604 691.55 106.938C691.55 104.854 689.779 103.812 686.237 103.812H668.925C667.55 103.812 666.217 103.771 664.925 103.688ZM744.287 35.25C744.787 34.25 745.392 32.5 746.1 30C747.683 24.5833 749.225 21.1875 750.725 19.8125C752.267 18.4375 753.954 17.75 755.787 17.75C758.287 17.75 760.162 18.9375 761.412 21.3125C762.704 23.6875 763.35 26.6667 763.35 30.25C763.35 37.9583 761.183 41.8125 756.85 41.8125C754.683 41.8125 753.017 40.5417 751.85 38C751.142 36.5417 750.412 35.8125 749.662 35.8125C747.787 35.8125 746.85 37.875 746.85 42V91.9375C746.85 93.5208 747.579 94.6875 749.037 95.4375C750.496 96.1458 751.225 97.2917 751.225 98.875V101.688C751.225 102.688 751.1 103.333 750.85 103.625C750.642 103.875 749.996 104 748.912 104H725.35C723.725 104 722.912 103.229 722.912 101.688V98.25C722.912 97.0833 723.267 96.3125 723.975 95.9375C725.392 95.2292 726.1 94.1458 726.1 92.6875V29.75C726.1 28.3333 725.6 27.3125 724.6 26.6875C723.517 26.0625 722.892 25.5833 722.725 25.25C722.558 24.875 722.475 23.7917 722.475 22C722.475 20.5 722.683 19.5625 723.1 19.1875C723.558 18.8125 724.308 18.625 725.35 18.625H742.225C743.017 18.625 743.558 18.8542 743.85 19.3125C744.142 19.7292 744.287 20.7708 744.287 22.4375V35.25ZM812.588 43.4375V31.375C812.588 28.0417 811.233 26.375 808.525 26.375C804.817 26.375 802.963 28.8958 802.963 33.9375C802.963 36.7708 802.629 38.7917 801.963 40C801.338 41.2083 799.879 42.25 797.588 43.125C795.338 43.9583 792.921 44.375 790.338 44.375C785.046 44.375 782.4 41.5417 782.4 35.875C782.4 30.5417 784.692 26.1875 789.275 22.8125C793.9 19.4375 799.921 17.75 807.338 17.75C812.213 17.75 816.588 18.4167 820.463 19.75C824.379 21.0833 827.504 23.3333 829.838 26.5C832.171 29.6667 833.338 33.1458 833.338 36.9375V94C833.421 94.2917 834.046 94.9167 835.213 95.875C836.046 96.5 836.463 97.4167 836.463 98.625C836.463 100.292 836.233 101.479 835.775 102.188C835.317 102.854 834.192 103.479 832.4 104.062C830.65 104.646 828.442 104.938 825.775 104.938C822.525 104.938 819.817 104.354 817.65 103.188C815.483 101.979 813.796 99.6458 812.588 96.1875C808.963 99.9375 806.025 102.333 803.775 103.375C801.525 104.417 799.213 104.938 796.838 104.938C791.546 104.938 787.442 102.875 784.525 98.75C781.65 94.5833 780.213 87.7917 780.213 78.375C780.213 68.9583 781.567 62.4375 784.275 58.8125C786.983 55.1458 792.275 51.7708 800.15 48.6875C805.15 46.7708 809.296 45.0208 812.588 43.4375ZM812.588 51.5625C807.879 53.6458 805.067 56 804.15 58.625C803.233 61.2083 802.775 67.0625 802.775 76.1875C802.775 82.8958 803.15 87.1458 803.9 88.9375C804.65 90.6875 805.942 91.5625 807.775 91.5625C810.983 91.5625 812.588 88.8958 812.588 83.5625V51.5625ZM857.575 27.1875H855.138C854.429 27.1875 853.971 27.1042 853.763 26.9375C853.596 26.7708 853.513 26.3125 853.513 25.5625V21.0625C853.513 20.2292 853.596 19.6875 853.763 19.4375C853.971 19.1875 854.533 19 855.45 18.875C858.45 18.4167 861.471 16.75 864.513 13.875C867.554 11 869.367 7.91667 869.95 4.625C870.158 3.45833 870.408 2.75 870.7 2.5C871.033 2.20833 871.679 2.0625 872.638 2.0625H876.7C877.783 2.0625 878.325 2.79167 878.325 4.25V18.625H882.2C883.658 18.625 884.388 19.3125 884.388 20.6875V25.1875C884.388 26.5208 883.658 27.1875 882.2 27.1875H878.325V91.9375C878.325 94.1458 879.304 95.7292 881.263 96.6875C882.221 97.1458 882.846 97.7083 883.138 98.375C883.429 99.0417 883.575 100.25 883.575 102C883.575 103.083 883.492 103.688 883.325 103.812C883.2 103.938 882.7 104 881.825 104H862.075C859.075 101.333 857.575 97.3125 857.575 91.9375V27.1875ZM919.562 0.875C924.271 0.875 926.625 2.45833 926.625 5.625C926.625 8.125 925.042 10.25 921.875 12C918.75 13.7083 915.188 14.5625 911.188 14.5625C906.021 14.5625 903.438 12.8333 903.438 9.375C903.438 6.625 905.25 4.52083 908.875 3.0625C912.5 1.60417 916.062 0.875 919.562 0.875ZM902.062 24.8125V20.6875C902.062 19.3125 902.896 18.625 904.562 18.625H924.5C925.917 18.625 926.625 19.3125 926.625 20.6875V92.5625C926.625 93.5625 926.688 94.2083 926.812 94.5C926.938 94.7917 927.312 95.0625 927.938 95.3125C929.438 95.8958 930.188 97.1875 930.188 99.1875C930.188 101.479 930.083 102.854 929.875 103.312C929.667 103.771 929 104 927.875 104H903.625C903.042 103.917 902.667 103.667 902.5 103.25C902.333 102.792 902.25 101.625 902.25 99.75C902.25 97.5 902.792 96.1875 903.875 95.8125C905.208 95.3542 905.875 94.5208 905.875 93.3125V31C905.875 28.5833 904.979 27.125 903.188 26.625C902.438 26.4167 902.062 25.8125 902.062 24.8125ZM975.925 17.75C983.758 17.75 990.3 21.2708 995.55 28.3125C1000.8 35.3125 1003.42 45.7292 1003.42 59.5625C1003.42 74.4792 1000.76 85.7708 995.425 93.4375C990.092 101.062 983.446 104.875 975.487 104.875C969.987 104.875 965.217 103.125 961.175 99.625C957.133 96.125 954.008 91.4583 951.8 85.625C949.633 79.7917 948.55 71.8125 948.55 61.6875C948.55 47.2292 951.05 36.2917 956.05 28.875C961.092 21.4583 967.717 17.75 975.925 17.75ZM980.425 33.4375C980.425 28.2708 978.925 25.6875 975.925 25.6875C972.675 25.6875 971.05 28.8542 971.05 35.1875V87.125C971.05 93.4167 972.529 96.5625 975.487 96.5625C978.779 96.5625 980.425 93.4167 980.425 87.125V33.4375ZM1046.41 27.125C1051.37 20.875 1057.04 17.75 1063.41 17.75C1067.79 17.75 1071.12 19.1667 1073.41 22C1075.7 24.7917 1076.85 28.3125 1076.85 32.5625V92.4375C1076.85 93.7708 1077.37 94.7917 1078.41 95.5C1079.37 96.0833 1079.85 97.5833 1079.85 100C1079.85 101.917 1079.68 103.062 1079.35 103.438C1079.06 103.812 1078.41 104 1077.41 104H1059.85C1057.35 101.875 1056.1 99.1042 1056.1 95.6875V36.25C1056.1 33 1054.77 31.375 1052.1 31.375C1050.35 31.375 1048.45 32.2917 1046.41 34.125V92.4375C1046.41 93.9375 1047.14 95.1042 1048.6 95.9375C1049.47 96.4375 1049.91 97.3542 1049.91 98.6875V101.875C1049.91 103.292 1048.89 104 1046.85 104H1024.66C1023.58 104 1022.89 103.854 1022.6 103.562C1022.31 103.229 1022.16 102.438 1022.16 101.188V98.875C1022.16 97.6667 1022.54 96.8125 1023.29 96.3125C1024.29 95.6042 1024.93 94.9375 1025.22 94.3125C1025.52 93.6875 1025.66 92.3125 1025.66 90.1875V29.0625C1025.66 27.6042 1024.95 26.5417 1023.54 25.875C1022.75 25.5 1022.35 24.8333 1022.35 23.875V20.5625C1022.35 19.2708 1022.93 18.625 1024.1 18.625H1044.47C1045.35 18.625 1045.89 18.75 1046.1 19C1046.31 19.25 1046.41 19.7708 1046.41 20.5625V27.125ZM1130.21 43.4375V31.375C1130.21 28.0417 1128.86 26.375 1126.15 26.375C1122.44 26.375 1120.59 28.8958 1120.59 33.9375C1120.59 36.7708 1120.25 38.7917 1119.59 40C1118.96 41.2083 1117.5 42.25 1115.21 43.125C1112.96 43.9583 1110.55 44.375 1107.96 44.375C1102.67 44.375 1100.03 41.5417 1100.03 35.875C1100.03 30.5417 1102.32 26.1875 1106.9 22.8125C1111.53 19.4375 1117.55 17.75 1124.96 17.75C1129.84 17.75 1134.21 18.4167 1138.09 19.75C1142 21.0833 1145.13 23.3333 1147.46 26.5C1149.8 29.6667 1150.96 33.1458 1150.96 36.9375V94C1151.05 94.2917 1151.67 94.9167 1152.84 95.875C1153.67 96.5 1154.09 97.4167 1154.09 98.625C1154.09 100.292 1153.86 101.479 1153.4 102.188C1152.94 102.854 1151.82 103.479 1150.03 104.062C1148.28 104.646 1146.07 104.938 1143.4 104.938C1140.15 104.938 1137.44 104.354 1135.28 103.188C1133.11 101.979 1131.42 99.6458 1130.21 96.1875C1126.59 99.9375 1123.65 102.333 1121.4 103.375C1119.15 104.417 1116.84 104.938 1114.46 104.938C1109.17 104.938 1105.07 102.875 1102.15 98.75C1099.28 94.5833 1097.84 87.7917 1097.84 78.375C1097.84 68.9583 1099.19 62.4375 1101.9 58.8125C1104.61 55.1458 1109.9 51.7708 1117.78 48.6875C1122.78 46.7708 1126.92 45.0208 1130.21 43.4375ZM1130.21 51.5625C1125.5 53.6458 1122.69 56 1121.78 58.625C1120.86 61.2083 1120.4 67.0625 1120.4 76.1875C1120.4 82.8958 1120.78 87.1458 1121.53 88.9375C1122.28 90.6875 1123.57 91.5625 1125.4 91.5625C1128.61 91.5625 1130.21 88.8958 1130.21 83.5625V51.5625ZM1172.01 8.25V5.125C1172.01 3.79167 1172.89 3.125 1174.64 3.125H1193.95C1194.99 3.125 1195.68 3.20833 1196.01 3.375C1196.35 3.54167 1196.51 4.25 1196.51 5.5V92.8125C1196.51 94.7292 1197.14 95.9167 1198.39 96.375C1199.26 96.7083 1199.7 97.4167 1199.7 98.5V102.062C1199.7 103.354 1198.76 104 1196.89 104H1173.95C1172.66 104 1172.01 103.354 1172.01 102.062V98.5C1172.01 97.0417 1172.66 95.9583 1173.95 95.25C1174.78 94.8333 1175.3 94.4583 1175.51 94.125C1175.72 93.75 1175.82 93.0625 1175.82 92.0625V14.625C1175.82 13.1667 1175.26 12.1875 1174.14 11.6875C1172.72 10.9792 1172.01 9.83333 1172.01 8.25ZM1306.11 97.875C1302.36 102.708 1297.74 105.125 1292.24 105.125C1283.65 105.125 1276.63 100.083 1271.18 90C1265.72 79.9167 1262.99 67.9583 1262.99 54.125C1262.99 38.4583 1266.07 25.7708 1272.24 16.0625C1278.4 6.3125 1285.7 1.4375 1294.11 1.4375C1298.15 1.4375 1301.74 2.47917 1304.86 4.5625C1305.86 5.1875 1306.63 5.5 1307.18 5.5C1307.93 5.5 1308.57 4.79167 1309.11 3.375C1309.61 2.08333 1310.49 1.4375 1311.74 1.4375H1312.49L1314.49 1.5625C1315.82 1.77083 1316.65 2.70833 1316.99 4.375L1320.99 24.25C1321.4 26.2917 1321.61 27.6667 1321.61 28.375C1321.61 29.8333 1320.51 30.5625 1318.3 30.5625C1316.13 30.5625 1314.74 30.25 1314.11 29.625C1313.49 29 1312.24 26.8125 1310.36 23.0625C1307.86 17.9792 1305.65 14.4583 1303.74 12.5C1301.86 10.5 1299.84 9.5 1297.68 9.5C1291.97 9.5 1289.11 14.0417 1289.11 23.125V90.25C1289.11 95.1667 1290.68 97.625 1293.8 97.625C1297.22 97.625 1298.93 95.1667 1298.93 90.25V57.5625C1298.93 55.4375 1298.2 54.0625 1296.74 53.4375C1295.15 52.7708 1294.36 51.4167 1294.36 49.375C1294.36 47.1667 1294.57 45.8542 1294.99 45.4375C1295.4 44.9792 1296.3 44.75 1297.68 44.75H1324.11C1325.4 44.75 1326.26 44.9792 1326.68 45.4375C1327.13 45.8958 1327.36 46.9375 1327.36 48.5625C1327.36 50.2708 1327.22 51.4167 1326.93 52C1326.68 52.5833 1326.03 53.0625 1324.99 53.4375C1323.49 53.9792 1322.74 55.125 1322.74 56.875V99.375C1322.74 101.917 1322.57 103.5 1322.24 104.125C1321.9 104.792 1321.03 105.125 1319.61 105.125C1318.32 105.125 1317.38 105.021 1316.8 104.812C1316.26 104.646 1315.49 104.083 1314.49 103.125C1311.7 100.417 1308.9 98.6667 1306.11 97.875ZM1366.79 35.25C1367.29 34.25 1367.89 32.5 1368.6 30C1370.18 24.5833 1371.72 21.1875 1373.22 19.8125C1374.77 18.4375 1376.45 17.75 1378.29 17.75C1380.79 17.75 1382.66 18.9375 1383.91 21.3125C1385.2 23.6875 1385.85 26.6667 1385.85 30.25C1385.85 37.9583 1383.68 41.8125 1379.35 41.8125C1377.18 41.8125 1375.52 40.5417 1374.35 38C1373.64 36.5417 1372.91 35.8125 1372.16 35.8125C1370.29 35.8125 1369.35 37.875 1369.35 42V91.9375C1369.35 93.5208 1370.08 94.6875 1371.54 95.4375C1373 96.1458 1373.72 97.2917 1373.72 98.875V101.688C1373.72 102.688 1373.6 103.333 1373.35 103.625C1373.14 103.875 1372.5 104 1371.41 104H1347.85C1346.22 104 1345.41 103.229 1345.41 101.688V98.25C1345.41 97.0833 1345.77 96.3125 1346.47 95.9375C1347.89 95.2292 1348.6 94.1458 1348.6 92.6875V29.75C1348.6 28.3333 1348.1 27.3125 1347.1 26.6875C1346.02 26.0625 1345.39 25.5833 1345.22 25.25C1345.06 24.875 1344.97 23.7917 1344.97 22C1344.97 20.5 1345.18 19.5625 1345.6 19.1875C1346.06 18.8125 1346.81 18.625 1347.85 18.625H1364.72C1365.52 18.625 1366.06 18.8542 1366.35 19.3125C1366.64 19.7292 1366.79 20.7708 1366.79 22.4375V35.25ZM1427.9 17.75C1435.73 17.75 1442.28 21.2708 1447.53 28.3125C1452.78 35.3125 1455.4 45.7292 1455.4 59.5625C1455.4 74.4792 1452.73 85.7708 1447.4 93.4375C1442.07 101.062 1435.42 104.875 1427.46 104.875C1421.96 104.875 1417.19 103.125 1413.15 99.625C1409.11 96.125 1405.98 91.4583 1403.78 85.625C1401.61 79.7917 1400.53 71.8125 1400.53 61.6875C1400.53 47.2292 1403.03 36.2917 1408.03 28.875C1413.07 21.4583 1419.69 17.75 1427.9 17.75ZM1432.4 33.4375C1432.4 28.2708 1430.9 25.6875 1427.9 25.6875C1424.65 25.6875 1423.03 28.8542 1423.03 35.1875V87.125C1423.03 93.4167 1424.5 96.5625 1427.46 96.5625C1430.75 96.5625 1432.4 93.4167 1432.4 87.125V33.4375ZM1477.45 28.1875C1476.91 27.9375 1476.49 27.75 1476.2 27.625C1475.16 27.1667 1474.49 26.7292 1474.2 26.3125C1473.95 25.8542 1473.82 24.9375 1473.82 23.5625C1473.82 22.8125 1473.8 22.1875 1473.76 21.6875C1473.76 20.4375 1473.93 19.625 1474.26 19.25C1474.64 18.8333 1475.43 18.625 1476.64 18.625H1496.07C1497.03 18.625 1497.62 18.7708 1497.82 19.0625C1498.03 19.3542 1498.14 20.0625 1498.14 21.1875V82.75C1498.14 88.125 1499.62 90.8125 1502.57 90.8125C1504.82 90.8125 1506.53 89.8542 1507.7 87.9375V30.125C1507.7 28.625 1506.97 27.4583 1505.51 26.625C1504.8 26.2083 1504.37 25.7708 1504.2 25.3125C1504.07 24.8125 1504.01 23.1875 1504.01 20.4375C1504.01 19.2292 1504.72 18.625 1506.14 18.625H1526.57C1527.45 18.625 1527.97 18.75 1528.14 19C1528.35 19.25 1528.45 19.9167 1528.45 21V92.625C1528.45 94 1529.01 94.9583 1530.14 95.5C1531.51 96.25 1532.2 97.5 1532.2 99.25C1532.2 101.75 1532.1 103.167 1531.89 103.5C1531.72 103.833 1531.07 104 1529.95 104H1510.95C1509.74 104 1508.91 103.792 1508.45 103.375C1507.99 102.917 1507.76 101.958 1507.76 100.5V98.9375C1507.76 97.2708 1507.74 96.3333 1507.7 96.125C1501.07 101.958 1495.47 104.875 1490.89 104.875C1486.93 104.875 1483.7 103.562 1481.2 100.938C1478.7 98.3125 1477.45 93.25 1477.45 85.75V28.1875ZM1574 24.75C1576.46 22.4167 1578.71 20.6667 1580.75 19.5C1582.79 18.3333 1585.21 17.75 1588 17.75C1594.42 17.75 1599.1 21.0833 1602.06 27.75C1605.06 34.375 1606.56 45 1606.56 59.625C1606.56 69.125 1606.08 76.9375 1605.12 83.0625C1604.17 89.1875 1602.02 94.2083 1598.69 98.125C1595.35 102.042 1591.52 104 1587.19 104C1581.98 104 1577.58 101.125 1574 95.375V109.312C1574 110.729 1574.79 111.708 1576.38 112.25C1577.92 112.792 1578.69 113.812 1578.69 115.312V117.562C1578.69 118.438 1578.58 118.958 1578.38 119.125C1578.17 119.333 1577.6 119.438 1576.69 119.438H1552.62C1550.96 119.438 1550.12 119.021 1550.12 118.188V115.875C1550.12 114.333 1550.83 113.146 1552.25 112.312C1552.96 111.896 1553.31 111.229 1553.31 110.312V29.4375C1553.31 27.8958 1552.77 26.7292 1551.69 25.9375C1550.94 25.3958 1550.48 24.9792 1550.31 24.6875C1550.19 24.3958 1550.12 23.7917 1550.12 22.875V20.9375C1550.12 19.8125 1550.23 19.1458 1550.44 18.9375C1550.69 18.7292 1551.31 18.625 1552.31 18.625H1571.38C1572.58 18.625 1573.31 18.7708 1573.56 19.0625C1573.85 19.3542 1574 20.1042 1574 21.3125V24.75ZM1583.62 36.5625C1583.62 33.9792 1583.1 32.0625 1582.06 30.8125C1581.02 29.5208 1579.88 28.875 1578.62 28.875C1577.71 28.875 1576.71 29.4167 1575.62 30.5C1574.54 31.5833 1574 32.8125 1574 34.1875V86.6875C1574 87.8125 1574.58 89 1575.75 90.25C1576.92 91.5 1578.27 92.125 1579.81 92.125C1582.35 92.125 1583.62 90.1458 1583.62 86.1875V36.5625Z" fill="currentColor"/>
</svg>
