<svg viewBox="0 0 1776 105" fill="none" xmlns="http://www.w3.org/2000/svg">
<path d="M45.25 45.5C52.875 48.1667 58.125 51.4792 61 55.4375C63.875 59.3542 65.3125 64.7708 65.3125 71.6875C65.3125 82.2292 62.6667 90.0833 57.375 95.25C52.0833 100.417 43.8958 103 32.8125 103H2.25C1 103 0.375 102.354 0.375 101.062V97.3125C0.375 96.2708 0.9375 95.5 2.0625 95C4.4375 93.875 5.625 92.2292 5.625 90.0625V14.625C5.625 13.5833 5.45833 12.875 5.125 12.5C4.79167 12.125 3.79167 11.5417 2.125 10.75C1.29167 10.375 0.791667 9.95833 0.625 9.5C0.5 9.04167 0.4375 7.91667 0.4375 6.125C0.4375 4.54167 0.645833 3.47917 1.0625 2.9375C1.52083 2.39583 2.29167 2.125 3.375 2.125H37.625C45.875 2.125 52.2083 4.22917 56.625 8.4375C61.0417 12.6458 63.25 18 63.25 24.5C63.25 29.9167 61.5 34.4583 58 38.125C54.5417 41.7917 50.2917 44.25 45.25 45.5ZM28.875 9.1875V42H32.1875C34.2708 42 35.8958 41.3958 37.0625 40.1875C38.2708 38.9792 38.9583 36.9792 39.125 34.1875C39.3333 31.3542 39.4375 27.7917 39.4375 23.5C39.4375 17.5 38.8542 13.625 37.6875 11.875C36.5625 10.0833 34.7292 9.1875 32.1875 9.1875H28.875ZM28.875 49.125V95.8125C32.7083 95.8125 35.2708 95.2917 36.5625 94.25C37.8958 93.2083 38.6667 91.1458 38.875 88.0625C39.125 84.9792 39.25 79.7708 39.25 72.4375C39.25 70.9375 39.1875 67.5417 39.0625 62.25C38.9375 56.9167 38.6875 53.7083 38.3125 52.625C37.9375 51.5417 37.2708 50.6875 36.3125 50.0625C35.3958 49.4375 34.0208 49.125 32.1875 49.125H28.875ZM112.925 81.4375H97.3L96.6125 87.1875C96.6125 87.3125 96.5708 87.5 96.4875 87.75C96.1542 88.9583 95.9875 90.0417 95.9875 91C95.9875 92.5 96.9667 93.7708 98.925 94.8125C99.9667 95.3542 100.613 95.9167 100.863 96.5C101.113 97.0833 101.238 98.0417 101.238 99.375C101.238 101.083 101.133 102.125 100.925 102.5C100.758 102.833 100.321 103 99.6125 103H83.1125C82.1958 103 81.7375 102.042 81.7375 100.125C81.7375 97.8333 82.4667 95.9792 83.925 94.5625C85.3 93.2708 86.0917 91.8958 86.3 90.4375L97.8625 16.875C98.0708 15.75 98.175 14.7708 98.175 13.9375C98.175 12.6458 97.2792 11.5 95.4875 10.5C94.6542 10 94.2375 8.89583 94.2375 7.1875C94.2375 4.89583 94.3625 3.47917 94.6125 2.9375C94.8625 2.39583 95.5292 2.125 96.6125 2.125H120.488C121.946 2.125 122.967 2.8125 123.55 4.1875C124.133 5.5625 124.717 8.5625 125.3 13.1875C125.55 14.9792 125.8 16.75 126.05 18.5L136.3 87.1875C136.8 90.5208 138.029 93.0625 139.988 94.8125C140.529 95.2708 140.883 95.6458 141.05 95.9375C141.217 96.1875 141.3 97 141.3 98.375C141.3 100.5 141.154 101.812 140.863 102.312C140.571 102.771 139.946 103 138.988 103H111.175C110.342 103 109.925 102.208 109.925 100.625C109.925 98.625 110.029 97.375 110.238 96.875C110.446 96.375 111.05 95.7917 112.05 95.125C113.508 94.2083 114.238 93.0417 114.238 91.625C114.238 90.1667 113.8 86.7708 112.925 81.4375ZM105.425 25.6875L98.4875 74.25H112.238L105.425 25.6875ZM185.6 95.9375H189.163C190.996 95.9375 192.35 95.2083 193.225 93.75C194.1 92.2917 195.246 88.9167 196.663 83.625C197.163 81.5833 197.767 80.3542 198.475 79.9375C199.183 79.4792 200.392 79.25 202.1 79.25C203.975 79.25 205.183 79.4167 205.725 79.75C206.267 80.0417 206.538 80.6042 206.538 81.4375C206.538 82.0208 206.433 82.9583 206.225 84.25L204.038 99.1875C203.788 100.729 203.454 101.75 203.038 102.25C202.663 102.75 201.871 103 200.663 103H159.538C157.788 103 156.913 101.917 156.913 99.75C156.913 98.0833 157.017 97.0208 157.225 96.5625C157.475 96.0625 157.975 95.6875 158.725 95.4375C161.1 94.6875 162.288 92.5 162.288 88.875V14.625C162.288 13.0833 161.538 11.9792 160.038 11.3125C158.746 10.7708 157.954 10.1667 157.663 9.5C157.371 8.83333 157.225 7.72917 157.225 6.1875C157.225 4.35417 157.35 3.22917 157.6 2.8125C157.85 2.35417 158.517 2.125 159.6 2.125H188.413C189.496 2.125 190.225 2.39583 190.6 2.9375C191.017 3.4375 191.225 4.83333 191.225 7.125C191.225 8.5 191.079 9.4375 190.788 9.9375C190.538 10.3958 189.85 10.8125 188.725 11.1875C186.642 11.8958 185.6 13.2708 185.6 15.3125V95.9375ZM229.712 9.125H226.9C225.983 9.125 225.233 9.75 224.65 11C224.067 12.2083 223.462 15.5208 222.837 20.9375C222.546 23.3125 222.087 24.8125 221.462 25.4375C220.837 26.0208 219.587 26.3125 217.712 26.3125C215.921 26.3125 214.754 26.1042 214.212 25.6875C213.712 25.2292 213.462 24.3542 213.462 23.0625C213.462 22.3125 213.483 21.5625 213.525 20.8125L214.275 6.25C214.358 4.54167 214.65 3.4375 215.15 2.9375C215.65 2.39583 216.9 2.125 218.9 2.125H264.712C266.046 2.125 266.858 2.29167 267.15 2.625C267.442 2.95833 267.671 4.16667 267.837 6.25L268.9 19.125C268.983 20.125 269.025 21.1458 269.025 22.1875C269.025 23.4375 268.858 24.3958 268.525 25.0625C268.233 25.7292 267.254 26.0625 265.587 26.0625C263.462 26.0625 262.087 25.8542 261.462 25.4375C260.879 25.0208 260.4 23.7083 260.025 21.5C259.358 17.875 258.629 14.9167 257.837 12.625C257.046 10.2917 256.067 9.125 254.9 9.125H253.025V89.375C253.025 91.6667 254.025 93.25 256.025 94.125C256.858 94.5 257.4 94.9583 257.65 95.5C257.942 96 258.087 97.0833 258.087 98.75C258.087 100.875 257.9 102.125 257.525 102.5C257.15 102.833 256.296 103 254.962 103H227.462C226.379 103 225.671 102.792 225.337 102.375C225.046 101.958 224.9 100.771 224.9 98.8125C224.9 96.4792 225.546 95.0625 226.837 94.5625C228.087 94.0625 228.879 93.5833 229.212 93.125C229.546 92.625 229.712 91.7917 229.712 90.625V9.125ZM285.825 7.375V4.0625C285.825 2.77083 286.513 2.125 287.888 2.125H317.825C318.95 2.125 319.679 2.27083 320.013 2.5625C320.346 2.85417 320.513 3.72917 320.513 5.1875C320.513 7.39583 320.388 8.77083 320.138 9.3125C319.929 9.85417 319.429 10.1875 318.638 10.3125C316.054 10.7708 314.763 12.4167 314.763 15.25V90.375C314.763 91.9583 315.7 93.2083 317.575 94.125C318.783 94.7083 319.513 95.2292 319.763 95.6875C320.013 96.1458 320.138 96.9375 320.138 98.0625V100.5C320.138 101.833 320.013 102.583 319.763 102.75C319.513 102.917 318.867 103 317.825 103H287.325C286.158 103 285.575 102.542 285.575 101.625C285.575 98.625 285.679 96.7917 285.888 96.125C286.096 95.4583 286.825 94.9375 288.075 94.5625C290.325 93.9375 291.45 92.75 291.45 91V16.8125C291.45 15.0625 291.242 13.75 290.825 12.875C290.408 11.9583 289.492 11.2083 288.075 10.625C287.033 10.1667 286.388 9.77083 286.138 9.4375C285.929 9.0625 285.825 8.375 285.825 7.375ZM377.625 0.4375H380.875C381.625 0.4375 382.188 0.729167 382.562 1.3125C382.938 1.85417 383.208 3.35417 383.375 5.8125L384.812 25.9375C384.854 26.3542 384.875 26.75 384.875 27.125C384.875 28.5833 384.625 29.6042 384.125 30.1875C383.625 30.7708 382.625 31.0625 381.125 31.0625C379.292 31.0625 378.021 30.5833 377.312 29.625C376.604 28.6667 375.917 26.3958 375.25 22.8125C373.542 13.7292 371.104 9.1875 367.938 9.1875C365.312 9.1875 364 12.4583 364 19V89.3125C364 93.9792 365.375 96.3125 368.125 96.3125C371.625 96.3125 373.583 92.4167 374 84.625C374.125 82.375 374.562 80.8125 375.312 79.9375C376.062 79.0625 377.604 78.625 379.938 78.625C381.688 78.625 382.896 78.9583 383.562 79.625C384.271 80.25 384.625 81.5 384.625 83.375C384.625 89.3333 382.833 94.2917 379.25 98.25C375.667 102.167 371.208 104.125 365.875 104.125C360.708 104.125 356.167 102.479 352.25 99.1875C348.333 95.8958 344.938 90.2292 342.062 82.1875C339.229 74.1042 337.812 63.7708 337.812 51.1875C337.812 39.3125 339 29.8333 341.375 22.75C343.792 15.625 346.854 10.125 350.562 6.25C354.312 2.375 358.667 0.4375 363.625 0.4375C366.625 0.4375 369.229 1.25 371.438 2.875C372.271 3.45833 372.896 3.75 373.312 3.75C373.812 3.75 374.521 3.16667 375.438 2C376.229 0.958333 376.958 0.4375 377.625 0.4375ZM444.975 7.375V4.0625C444.975 2.77083 445.663 2.125 447.038 2.125H476.975C478.1 2.125 478.829 2.27083 479.163 2.5625C479.496 2.85417 479.663 3.72917 479.663 5.1875C479.663 7.39583 479.538 8.77083 479.288 9.3125C479.079 9.85417 478.579 10.1875 477.788 10.3125C475.204 10.7708 473.913 12.4167 473.913 15.25V90.375C473.913 91.9583 474.85 93.2083 476.725 94.125C477.933 94.7083 478.663 95.2292 478.913 95.6875C479.163 96.1458 479.288 96.9375 479.288 98.0625V100.5C479.288 101.833 479.163 102.583 478.913 102.75C478.663 102.917 478.017 103 476.975 103H446.475C445.308 103 444.725 102.542 444.725 101.625C444.725 98.625 444.829 96.7917 445.038 96.125C445.246 95.4583 445.975 94.9375 447.225 94.5625C449.475 93.9375 450.6 92.75 450.6 91V16.8125C450.6 15.0625 450.392 13.75 449.975 12.875C449.558 11.9583 448.642 11.2083 447.225 10.625C446.183 10.1667 445.538 9.77083 445.288 9.4375C445.079 9.0625 444.975 8.375 444.975 7.375ZM510.65 45.8125V89.9375C510.65 91.7708 511.692 93.1458 513.775 94.0625C515.525 94.8542 516.4 95.9792 516.4 97.4375C516.4 100.479 516.317 102.167 516.15 102.5C516.025 102.833 515.421 103 514.337 103H497.712C496.879 103 496.358 102.688 496.15 102.062C495.942 101.396 495.837 99.7917 495.837 97.25C495.837 96.0833 496.4 95.2708 497.525 94.8125C499.692 93.8542 500.775 92.7708 500.775 91.5625V17.6875C500.775 15.8958 500.608 14.5625 500.275 13.6875C499.942 12.7708 499.192 12.0208 498.025 11.4375C496.983 10.9375 496.275 10.3958 495.9 9.8125C495.567 9.22917 495.4 8.125 495.4 6.5C495.4 3.58333 496.171 2.125 497.712 2.125H515.087L536.087 50.8125V14.9375C536.087 12.9375 535.067 11.5208 533.025 10.6875C531.817 10.1458 531.025 9.54167 530.65 8.875C530.317 8.16667 530.15 6.8125 530.15 4.8125C530.15 3.5625 530.275 2.8125 530.525 2.5625C530.775 2.27083 531.254 2.125 531.962 2.125H549.212C550.171 2.25 550.65 3.625 550.65 6.25C550.65 7.79167 550.546 8.77083 550.337 9.1875C550.171 9.60417 549.754 9.95833 549.087 10.25C547.629 10.8333 546.712 11.3958 546.337 11.9375C545.962 12.4792 545.775 13.2292 545.775 14.1875V103H535.15L510.65 45.8125ZM583.388 9.125H580.575C579.658 9.125 578.908 9.75 578.325 11C577.742 12.2083 577.138 15.5208 576.513 20.9375C576.221 23.3125 575.763 24.8125 575.138 25.4375C574.513 26.0208 573.263 26.3125 571.388 26.3125C569.596 26.3125 568.429 26.1042 567.888 25.6875C567.388 25.2292 567.138 24.3542 567.138 23.0625C567.138 22.3125 567.158 21.5625 567.2 20.8125L567.95 6.25C568.033 4.54167 568.325 3.4375 568.825 2.9375C569.325 2.39583 570.575 2.125 572.575 2.125H618.388C619.721 2.125 620.533 2.29167 620.825 2.625C621.117 2.95833 621.346 4.16667 621.513 6.25L622.575 19.125C622.658 20.125 622.7 21.1458 622.7 22.1875C622.7 23.4375 622.533 24.3958 622.2 25.0625C621.908 25.7292 620.929 26.0625 619.263 26.0625C617.138 26.0625 615.763 25.8542 615.138 25.4375C614.554 25.0208 614.075 23.7083 613.7 21.5C613.033 17.875 612.304 14.9167 611.513 12.625C610.721 10.2917 609.742 9.125 608.575 9.125H606.7V89.375C606.7 91.6667 607.7 93.25 609.7 94.125C610.533 94.5 611.075 94.9583 611.325 95.5C611.617 96 611.763 97.0833 611.763 98.75C611.763 100.875 611.575 102.125 611.2 102.5C610.825 102.833 609.971 103 608.638 103H581.138C580.054 103 579.346 102.792 579.013 102.375C578.721 101.958 578.575 100.771 578.575 98.8125C578.575 96.4792 579.221 95.0625 580.513 94.5625C581.763 94.0625 582.554 93.5833 582.888 93.125C583.221 92.625 583.388 91.7917 583.388 90.625V9.125ZM668.125 9.8125V45.5H672.375C673.542 45.5 674.396 45.25 674.938 44.75C675.479 44.25 675.896 43.1667 676.188 41.5C676.688 38.5417 677.083 36.7708 677.375 36.1875C677.708 35.6042 678.208 35.3125 678.875 35.3125C682.167 35.3125 684.021 35.4583 684.438 35.75C684.896 36 685.125 37.0417 685.125 38.875V59.6875C685.125 60.9792 684.917 61.8333 684.5 62.25C684.083 62.625 682.792 62.8125 680.625 62.8125C679.208 62.8125 678.25 62.5625 677.75 62.0625C677.292 61.5208 676.833 60.0417 676.375 57.625C675.917 55.4167 675.458 54.0625 675 53.5625C674.583 53.0625 673.917 52.8125 673 52.8125H668.125V95.875H671.438C673.479 95.875 674.875 95.3125 675.625 94.1875C676.417 93.0208 677.667 89.7083 679.375 84.25C680.083 81.9583 680.812 80.4583 681.562 79.75C682.312 79.0417 683.625 78.6875 685.5 78.6875C688.083 78.6875 689.375 79.5208 689.375 81.1875C689.375 81.6875 689.292 82.4167 689.125 83.375L686.812 97.5625C686.396 100.146 686.042 101.708 685.75 102.25C685.5 102.75 684.667 103 683.25 103H641.562C640.521 103 639.854 102.771 639.562 102.312C639.271 101.812 639.125 100.417 639.125 98.125C639.125 96.6667 639.875 95.6042 641.375 94.9375C643.667 93.9792 644.812 92.6667 644.812 91V13.0625C644.771 12.2708 643.833 11.4792 642 10.6875C640.75 10.1458 640 9.625 639.75 9.125C639.542 8.625 639.438 7.41667 639.438 5.5C639.438 3.875 639.562 2.91667 639.812 2.625C640.062 2.29167 640.792 2.125 642 2.125H681.875C682.875 2.125 683.604 2.29167 684.062 2.625C684.521 2.95833 684.875 3.75 685.125 5L688.312 21.125C688.479 21.9583 688.562 22.5208 688.562 22.8125C688.562 23.9375 687.562 24.5 685.562 24.5C683.312 24.5 681.812 24.25 681.062 23.75C680.312 23.2083 679.583 21.8958 678.875 19.8125C677.583 16.0625 676.458 13.4583 675.5 12C674.583 10.5417 673.542 9.8125 672.375 9.8125H668.125ZM750.362 96.875C746.612 101.708 741.987 104.125 736.487 104.125C727.904 104.125 720.883 99.0833 715.425 89C709.967 78.9167 707.237 66.9583 707.237 53.125C707.237 37.4583 710.321 24.7708 716.487 15.0625C722.654 5.3125 729.946 0.4375 738.362 0.4375C742.404 0.4375 745.987 1.47917 749.112 3.5625C750.112 4.1875 750.883 4.5 751.425 4.5C752.175 4.5 752.821 3.79167 753.362 2.375C753.862 1.08333 754.737 0.4375 755.987 0.4375H756.737L758.737 0.5625C760.071 0.770833 760.904 1.70833 761.237 3.375L765.237 23.25C765.654 25.2917 765.862 26.6667 765.862 27.375C765.862 28.8333 764.758 29.5625 762.55 29.5625C760.383 29.5625 758.987 29.25 758.362 28.625C757.737 28 756.487 25.8125 754.612 22.0625C752.112 16.9792 749.904 13.4583 747.987 11.5C746.112 9.5 744.092 8.5 741.925 8.5C736.217 8.5 733.362 13.0417 733.362 22.125V89.25C733.362 94.1667 734.925 96.625 738.05 96.625C741.467 96.625 743.175 94.1667 743.175 89.25V56.5625C743.175 54.4375 742.446 53.0625 740.987 52.4375C739.404 51.7708 738.612 50.4167 738.612 48.375C738.612 46.1667 738.821 44.8542 739.237 44.4375C739.654 43.9792 740.55 43.75 741.925 43.75H768.362C769.654 43.75 770.508 43.9792 770.925 44.4375C771.383 44.8958 771.612 45.9375 771.612 47.5625C771.612 49.2708 771.467 50.4167 771.175 51C770.925 51.5833 770.279 52.0625 769.237 52.4375C767.737 52.9792 766.987 54.125 766.987 55.875V98.375C766.987 100.917 766.821 102.5 766.487 103.125C766.154 103.792 765.279 104.125 763.862 104.125C762.571 104.125 761.633 104.021 761.05 103.812C760.508 103.646 759.737 103.083 758.737 102.125C755.946 99.4167 753.154 97.6667 750.362 96.875ZM816.725 58.625V89.625C816.725 91.0833 816.808 92.0625 816.975 92.5625C817.183 93.0625 817.725 93.5833 818.6 94.125C819.725 94.8333 820.287 96.0208 820.287 97.6875C820.287 100.104 820.058 101.604 819.6 102.188C819.183 102.729 818.392 103 817.225 103H790.787C789.287 103 788.537 101.917 788.537 99.75C788.537 97.6667 788.6 96.3333 788.725 95.75C788.85 95.125 789.267 94.6875 789.975 94.4375C792.267 93.5208 793.412 91.7292 793.412 89.0625V15.875C793.412 13.1667 792.412 11.5208 790.412 10.9375C789.412 10.6042 788.787 10.2708 788.537 9.9375C788.287 9.60417 788.162 8.625 788.162 7C788.162 3.75 789.037 2.125 790.787 2.125H825.35C832.225 2.125 838.35 4.70833 843.725 9.875C849.142 15.0417 851.85 21.9792 851.85 30.6875C851.85 43.0625 845.537 51.1458 832.912 54.9375C844.454 57.4792 850.225 64.7917 850.225 76.875V91.75C850.225 93 850.704 93.9375 851.662 94.5625C852.787 95.3125 853.35 96.4583 853.35 98C853.35 100.417 853.204 101.854 852.912 102.312C852.621 102.771 851.85 103 850.6 103H833.85C831.85 103 830.204 101.875 828.912 99.625C827.621 97.3333 826.975 94.5208 826.975 91.1875V66C826.975 61.0833 824.496 58.625 819.537 58.625H816.725ZM816.725 9.25V51.375H820.787C824.912 51.375 826.975 47.2292 826.975 38.9375V18.8125C826.975 15.3125 826.308 12.8542 824.975 11.4375C823.683 9.97917 821.642 9.25 818.85 9.25H816.725ZM899.9 81.4375H884.275L883.588 87.1875C883.588 87.3125 883.546 87.5 883.463 87.75C883.129 88.9583 882.963 90.0417 882.963 91C882.963 92.5 883.942 93.7708 885.9 94.8125C886.942 95.3542 887.588 95.9167 887.838 96.5C888.088 97.0833 888.213 98.0417 888.213 99.375C888.213 101.083 888.108 102.125 887.9 102.5C887.733 102.833 887.296 103 886.588 103H870.088C869.171 103 868.713 102.042 868.713 100.125C868.713 97.8333 869.442 95.9792 870.9 94.5625C872.275 93.2708 873.067 91.8958 873.275 90.4375L884.838 16.875C885.046 15.75 885.15 14.7708 885.15 13.9375C885.15 12.6458 884.254 11.5 882.463 10.5C881.629 10 881.213 8.89583 881.213 7.1875C881.213 4.89583 881.338 3.47917 881.588 2.9375C881.838 2.39583 882.504 2.125 883.588 2.125H907.463C908.921 2.125 909.942 2.8125 910.525 4.1875C911.108 5.5625 911.692 8.5625 912.275 13.1875C912.525 14.9792 912.775 16.75 913.025 18.5L923.275 87.1875C923.775 90.5208 925.004 93.0625 926.963 94.8125C927.504 95.2708 927.858 95.6458 928.025 95.9375C928.192 96.1875 928.275 97 928.275 98.375C928.275 100.5 928.129 101.812 927.838 102.312C927.546 102.771 926.921 103 925.963 103H898.15C897.317 103 896.9 102.208 896.9 100.625C896.9 98.625 897.004 97.375 897.213 96.875C897.421 96.375 898.025 95.7917 899.025 95.125C900.483 94.2083 901.213 93.0417 901.213 91.625C901.213 90.1667 900.775 86.7708 899.9 81.4375ZM892.4 25.6875L885.463 74.25H899.213L892.4 25.6875ZM951.888 9.125H949.075C948.158 9.125 947.408 9.75 946.825 11C946.242 12.2083 945.638 15.5208 945.013 20.9375C944.721 23.3125 944.263 24.8125 943.638 25.4375C943.013 26.0208 941.763 26.3125 939.888 26.3125C938.096 26.3125 936.929 26.1042 936.388 25.6875C935.888 25.2292 935.638 24.3542 935.638 23.0625C935.638 22.3125 935.658 21.5625 935.7 20.8125L936.45 6.25C936.533 4.54167 936.825 3.4375 937.325 2.9375C937.825 2.39583 939.075 2.125 941.075 2.125H986.888C988.221 2.125 989.033 2.29167 989.325 2.625C989.617 2.95833 989.846 4.16667 990.013 6.25L991.075 19.125C991.158 20.125 991.2 21.1458 991.2 22.1875C991.2 23.4375 991.033 24.3958 990.7 25.0625C990.408 25.7292 989.429 26.0625 987.763 26.0625C985.638 26.0625 984.263 25.8542 983.638 25.4375C983.054 25.0208 982.575 23.7083 982.2 21.5C981.533 17.875 980.804 14.9167 980.013 12.625C979.221 10.2917 978.242 9.125 977.075 9.125H975.2V89.375C975.2 91.6667 976.2 93.25 978.2 94.125C979.033 94.5 979.575 94.9583 979.825 95.5C980.117 96 980.263 97.0833 980.263 98.75C980.263 100.875 980.075 102.125 979.7 102.5C979.325 102.833 978.471 103 977.138 103H949.638C948.554 103 947.846 102.792 947.513 102.375C947.221 101.958 947.075 100.771 947.075 98.8125C947.075 96.4792 947.721 95.0625 949.013 94.5625C950.263 94.0625 951.054 93.5833 951.388 93.125C951.721 92.625 951.888 91.7917 951.888 90.625V9.125ZM1008 7.375V4.0625C1008 2.77083 1008.69 2.125 1010.06 2.125H1040C1041.12 2.125 1041.85 2.27083 1042.19 2.5625C1042.52 2.85417 1042.69 3.72917 1042.69 5.1875C1042.69 7.39583 1042.56 8.77083 1042.31 9.3125C1042.1 9.85417 1041.6 10.1875 1040.81 10.3125C1038.23 10.7708 1036.94 12.4167 1036.94 15.25V90.375C1036.94 91.9583 1037.88 93.2083 1039.75 94.125C1040.96 94.7083 1041.69 95.2292 1041.94 95.6875C1042.19 96.1458 1042.31 96.9375 1042.31 98.0625V100.5C1042.31 101.833 1042.19 102.583 1041.94 102.75C1041.69 102.917 1041.04 103 1040 103H1009.5C1008.33 103 1007.75 102.542 1007.75 101.625C1007.75 98.625 1007.85 96.7917 1008.06 96.125C1008.27 95.4583 1009 94.9375 1010.25 94.5625C1012.5 93.9375 1013.62 92.75 1013.62 91V16.8125C1013.62 15.0625 1013.42 13.75 1013 12.875C1012.58 11.9583 1011.67 11.2083 1010.25 10.625C1009.21 10.1667 1008.56 9.77083 1008.31 9.4375C1008.1 9.0625 1008 8.375 1008 7.375ZM1091.05 0.4375C1097.18 0.4375 1102.47 2.5 1106.93 6.625C1111.43 10.7083 1115.09 16.5417 1117.93 24.125C1120.76 31.7083 1122.18 41.4375 1122.18 53.3125C1122.18 67.5625 1119.4 79.6042 1113.86 89.4375C1108.36 99.2292 1100.59 104.125 1090.55 104.125C1081.01 104.125 1073.49 99.3333 1067.99 89.75C1062.49 80.1667 1059.74 67.7917 1059.74 52.625C1059.74 37.0833 1062.55 24.5 1068.18 14.875C1073.84 5.25 1081.47 0.4375 1091.05 0.4375ZM1095.99 15.25C1095.99 10.0417 1094.3 7.4375 1090.93 7.4375C1089.51 7.4375 1088.3 8.08333 1087.3 9.375C1086.3 10.6667 1085.8 12.25 1085.8 14.125V89.5625C1085.8 92.1042 1086.3 94.0417 1087.3 95.375C1088.3 96.6667 1089.49 97.3125 1090.86 97.3125C1092.4 97.3125 1093.63 96.5833 1094.55 95.125C1095.51 93.6667 1095.99 92.0417 1095.99 90.25V15.25ZM1155.85 45.8125V89.9375C1155.85 91.7708 1156.89 93.1458 1158.97 94.0625C1160.72 94.8542 1161.6 95.9792 1161.6 97.4375C1161.6 100.479 1161.52 102.167 1161.35 102.5C1161.22 102.833 1160.62 103 1159.54 103H1142.91C1142.08 103 1141.56 102.688 1141.35 102.062C1141.14 101.396 1141.04 99.7917 1141.04 97.25C1141.04 96.0833 1141.6 95.2708 1142.72 94.8125C1144.89 93.8542 1145.97 92.7708 1145.97 91.5625V17.6875C1145.97 15.8958 1145.81 14.5625 1145.47 13.6875C1145.14 12.7708 1144.39 12.0208 1143.22 11.4375C1142.18 10.9375 1141.47 10.3958 1141.1 9.8125C1140.77 9.22917 1140.6 8.125 1140.6 6.5C1140.6 3.58333 1141.37 2.125 1142.91 2.125H1160.29L1181.29 50.8125V14.9375C1181.29 12.9375 1180.27 11.5208 1178.22 10.6875C1177.02 10.1458 1176.22 9.54167 1175.85 8.875C1175.52 8.16667 1175.35 6.8125 1175.35 4.8125C1175.35 3.5625 1175.47 2.8125 1175.72 2.5625C1175.97 2.27083 1176.45 2.125 1177.16 2.125H1194.41C1195.37 2.25 1195.85 3.625 1195.85 6.25C1195.85 7.79167 1195.75 8.77083 1195.54 9.1875C1195.37 9.60417 1194.95 9.95833 1194.29 10.25C1192.83 10.8333 1191.91 11.3958 1191.54 11.9375C1191.16 12.4792 1190.97 13.2292 1190.97 14.1875V103H1180.35L1155.85 45.8125ZM1241.78 81.4375H1226.15L1225.46 87.1875C1225.46 87.3125 1225.42 87.5 1225.34 87.75C1225 88.9583 1224.84 90.0417 1224.84 91C1224.84 92.5 1225.82 93.7708 1227.78 94.8125C1228.82 95.3542 1229.46 95.9167 1229.71 96.5C1229.96 97.0833 1230.09 98.0417 1230.09 99.375C1230.09 101.083 1229.98 102.125 1229.78 102.5C1229.61 102.833 1229.17 103 1228.46 103H1211.96C1211.05 103 1210.59 102.042 1210.59 100.125C1210.59 97.8333 1211.32 95.9792 1212.78 94.5625C1214.15 93.2708 1214.94 91.8958 1215.15 90.4375L1226.71 16.875C1226.92 15.75 1227.03 14.7708 1227.03 13.9375C1227.03 12.6458 1226.13 11.5 1224.34 10.5C1223.5 10 1223.09 8.89583 1223.09 7.1875C1223.09 4.89583 1223.21 3.47917 1223.46 2.9375C1223.71 2.39583 1224.38 2.125 1225.46 2.125H1249.34C1250.8 2.125 1251.82 2.8125 1252.4 4.1875C1252.98 5.5625 1253.57 8.5625 1254.15 13.1875C1254.4 14.9792 1254.65 16.75 1254.9 18.5L1265.15 87.1875C1265.65 90.5208 1266.88 93.0625 1268.84 94.8125C1269.38 95.2708 1269.73 95.6458 1269.9 95.9375C1270.07 96.1875 1270.15 97 1270.15 98.375C1270.15 100.5 1270 101.812 1269.71 102.312C1269.42 102.771 1268.8 103 1267.84 103H1240.03C1239.19 103 1238.78 102.208 1238.78 100.625C1238.78 98.625 1238.88 97.375 1239.09 96.875C1239.3 96.375 1239.9 95.7917 1240.9 95.125C1242.36 94.2083 1243.09 93.0417 1243.09 91.625C1243.09 90.1667 1242.65 86.7708 1241.78 81.4375ZM1234.28 25.6875L1227.34 74.25H1241.09L1234.28 25.6875ZM1314.45 95.9375H1318.01C1319.85 95.9375 1321.2 95.2083 1322.07 93.75C1322.95 92.2917 1324.1 88.9167 1325.51 83.625C1326.01 81.5833 1326.62 80.3542 1327.32 79.9375C1328.03 79.4792 1329.24 79.25 1330.95 79.25C1332.82 79.25 1334.03 79.4167 1334.57 79.75C1335.12 80.0417 1335.39 80.6042 1335.39 81.4375C1335.39 82.0208 1335.28 82.9583 1335.07 84.25L1332.89 99.1875C1332.64 100.729 1332.3 101.75 1331.89 102.25C1331.51 102.75 1330.72 103 1329.51 103H1288.39C1286.64 103 1285.76 101.917 1285.76 99.75C1285.76 98.0833 1285.87 97.0208 1286.07 96.5625C1286.32 96.0625 1286.82 95.6875 1287.57 95.4375C1289.95 94.6875 1291.14 92.5 1291.14 88.875V14.625C1291.14 13.0833 1290.39 11.9792 1288.89 11.3125C1287.6 10.7708 1286.8 10.1667 1286.51 9.5C1286.22 8.83333 1286.07 7.72917 1286.07 6.1875C1286.07 4.35417 1286.2 3.22917 1286.45 2.8125C1286.7 2.35417 1287.37 2.125 1288.45 2.125H1317.26C1318.35 2.125 1319.07 2.39583 1319.45 2.9375C1319.87 3.4375 1320.07 4.83333 1320.07 7.125C1320.07 8.5 1319.93 9.4375 1319.64 9.9375C1319.39 10.3958 1318.7 10.8125 1317.57 11.1875C1315.49 11.8958 1314.45 13.2708 1314.45 15.3125V95.9375ZM1439.74 96.875C1435.99 101.708 1431.36 104.125 1425.86 104.125C1417.28 104.125 1410.26 99.0833 1404.8 89C1399.34 78.9167 1396.61 66.9583 1396.61 53.125C1396.61 37.4583 1399.7 24.7708 1405.86 15.0625C1412.03 5.3125 1419.32 0.4375 1427.74 0.4375C1431.78 0.4375 1435.36 1.47917 1438.49 3.5625C1439.49 4.1875 1440.26 4.5 1440.8 4.5C1441.55 4.5 1442.2 3.79167 1442.74 2.375C1443.24 1.08333 1444.11 0.4375 1445.36 0.4375H1446.11L1448.11 0.5625C1449.45 0.770833 1450.28 1.70833 1450.61 3.375L1454.61 23.25C1455.03 25.2917 1455.24 26.6667 1455.24 27.375C1455.24 28.8333 1454.13 29.5625 1451.93 29.5625C1449.76 29.5625 1448.36 29.25 1447.74 28.625C1447.11 28 1445.86 25.8125 1443.99 22.0625C1441.49 16.9792 1439.28 13.4583 1437.36 11.5C1435.49 9.5 1433.47 8.5 1431.3 8.5C1425.59 8.5 1422.74 13.0417 1422.74 22.125V89.25C1422.74 94.1667 1424.3 96.625 1427.43 96.625C1430.84 96.625 1432.55 94.1667 1432.55 89.25V56.5625C1432.55 54.4375 1431.82 53.0625 1430.36 52.4375C1428.78 51.7708 1427.99 50.4167 1427.99 48.375C1427.99 46.1667 1428.2 44.8542 1428.61 44.4375C1429.03 43.9792 1429.93 43.75 1431.3 43.75H1457.74C1459.03 43.75 1459.88 43.9792 1460.3 44.4375C1460.76 44.8958 1460.99 45.9375 1460.99 47.5625C1460.99 49.2708 1460.84 50.4167 1460.55 51C1460.3 51.5833 1459.65 52.0625 1458.61 52.4375C1457.11 52.9792 1456.36 54.125 1456.36 55.875V98.375C1456.36 100.917 1456.2 102.5 1455.86 103.125C1455.53 103.792 1454.65 104.125 1453.24 104.125C1451.95 104.125 1451.01 104.021 1450.43 103.812C1449.88 103.646 1449.11 103.083 1448.11 102.125C1445.32 99.4167 1442.53 97.6667 1439.74 96.875ZM1506.1 58.625V89.625C1506.1 91.0833 1506.18 92.0625 1506.35 92.5625C1506.56 93.0625 1507.1 93.5833 1507.97 94.125C1509.1 94.8333 1509.66 96.0208 1509.66 97.6875C1509.66 100.104 1509.43 101.604 1508.97 102.188C1508.56 102.729 1507.77 103 1506.6 103H1480.16C1478.66 103 1477.91 101.917 1477.91 99.75C1477.91 97.6667 1477.97 96.3333 1478.1 95.75C1478.22 95.125 1478.64 94.6875 1479.35 94.4375C1481.64 93.5208 1482.79 91.7292 1482.79 89.0625V15.875C1482.79 13.1667 1481.79 11.5208 1479.79 10.9375C1478.79 10.6042 1478.16 10.2708 1477.91 9.9375C1477.66 9.60417 1477.54 8.625 1477.54 7C1477.54 3.75 1478.41 2.125 1480.16 2.125H1514.72C1521.6 2.125 1527.72 4.70833 1533.1 9.875C1538.52 15.0417 1541.22 21.9792 1541.22 30.6875C1541.22 43.0625 1534.91 51.1458 1522.29 54.9375C1533.83 57.4792 1539.6 64.7917 1539.6 76.875V91.75C1539.6 93 1540.08 93.9375 1541.04 94.5625C1542.16 95.3125 1542.72 96.4583 1542.72 98C1542.72 100.417 1542.58 101.854 1542.29 102.312C1542 102.771 1541.22 103 1539.97 103H1523.22C1521.22 103 1519.58 101.875 1518.29 99.625C1517 97.3333 1516.35 94.5208 1516.35 91.1875V66C1516.35 61.0833 1513.87 58.625 1508.91 58.625H1506.1ZM1506.1 9.25V51.375H1510.16C1514.29 51.375 1516.35 47.2292 1516.35 38.9375V18.8125C1516.35 15.3125 1515.68 12.8542 1514.35 11.4375C1513.06 9.97917 1511.02 9.25 1508.22 9.25H1506.1ZM1592.28 0.4375C1598.4 0.4375 1603.69 2.5 1608.15 6.625C1612.65 10.7083 1616.32 16.5417 1619.15 24.125C1621.98 31.7083 1623.4 41.4375 1623.4 53.3125C1623.4 67.5625 1620.63 79.6042 1615.09 89.4375C1609.59 99.2292 1601.82 104.125 1591.78 104.125C1582.23 104.125 1574.71 99.3333 1569.21 89.75C1563.71 80.1667 1560.96 67.7917 1560.96 52.625C1560.96 37.0833 1563.78 24.5 1569.4 14.875C1575.07 5.25 1582.69 0.4375 1592.28 0.4375ZM1597.21 15.25C1597.21 10.0417 1595.53 7.4375 1592.15 7.4375C1590.73 7.4375 1589.53 8.08333 1588.53 9.375C1587.53 10.6667 1587.03 12.25 1587.03 14.125V89.5625C1587.03 92.1042 1587.53 94.0417 1588.53 95.375C1589.53 96.6667 1590.71 97.3125 1592.09 97.3125C1593.63 97.3125 1594.86 96.5833 1595.78 95.125C1596.73 93.6667 1597.21 92.0417 1597.21 90.25V15.25ZM1644.14 2.125H1671.2C1672.12 2.125 1672.7 2.33333 1672.95 2.75C1673.2 3.125 1673.32 4.33333 1673.32 6.375C1673.32 8.41667 1672.72 9.77083 1671.51 10.4375C1670.6 10.9375 1669.97 11.4583 1669.64 12C1669.35 12.5417 1669.2 13.5833 1669.2 15.125V85.125C1669.2 87.0417 1669.74 88.6042 1670.82 89.8125C1671.91 90.9792 1673.28 91.5625 1674.95 91.5625C1676.49 91.5625 1677.8 90.8958 1678.89 89.5625C1679.97 88.2292 1680.51 86.75 1680.51 85.125V15.125C1680.51 13.9167 1680.39 13.0833 1680.14 12.625C1679.93 12.125 1679.37 11.5208 1678.45 10.8125C1677.03 9.72917 1676.32 8.0625 1676.32 5.8125C1676.32 4.0625 1676.51 3.02083 1676.89 2.6875C1677.3 2.3125 1677.89 2.125 1678.64 2.125H1692.14C1693.64 2.125 1694.39 2.875 1694.39 4.375V7.375C1694.39 8.70833 1694.3 9.5625 1694.14 9.9375C1693.97 10.2708 1693.49 10.5833 1692.7 10.875C1690.74 11.5417 1689.76 12.8958 1689.76 14.9375V83.125C1689.76 89.5833 1687.91 94.7083 1684.2 98.5C1680.49 102.25 1675.32 104.125 1668.7 104.125C1661.28 104.125 1655.62 102.125 1651.7 98.125C1647.82 94.125 1645.89 88.3542 1645.89 80.8125V14.9375C1645.89 13.1875 1644.97 11.8958 1643.14 11.0625C1642.22 10.6458 1641.66 10.2708 1641.45 9.9375C1641.28 9.5625 1641.2 8.79167 1641.2 7.625C1641.2 5.20833 1641.35 3.6875 1641.64 3.0625C1641.93 2.4375 1642.76 2.125 1644.14 2.125ZM1739.06 68.625V89.4375C1739.06 91.8542 1740.1 93.4375 1742.19 94.1875C1743.19 94.5625 1743.88 95.0833 1744.25 95.75C1744.67 96.375 1744.88 97.5625 1744.88 99.3125C1744.88 100.979 1744.65 102.021 1744.19 102.438C1743.73 102.812 1742.81 103 1741.44 103H1713.12C1711.62 103 1710.88 101.688 1710.88 99.0625C1710.88 96.9792 1710.98 95.7083 1711.19 95.25C1711.4 94.75 1712.1 94.3125 1713.31 93.9375C1714.4 93.6042 1715.06 93.25 1715.31 92.875C1715.6 92.4583 1715.75 91.7708 1715.75 90.8125V15.3125C1715.75 13.5208 1714.65 12.0833 1712.44 11C1711.27 10.375 1710.67 9.41667 1710.62 8.125L1710.56 5.1875C1710.56 3.9375 1710.71 3.125 1711 2.75C1711.33 2.33333 1712.04 2.125 1713.12 2.125H1745.12C1754.33 2.125 1761.67 5.08333 1767.12 11C1772.62 16.875 1775.38 25.0208 1775.38 35.4375C1775.38 41.3125 1774.52 46.5417 1772.81 51.125C1771.15 55.7083 1769.02 59.0833 1766.44 61.25C1763.9 63.4167 1760.94 65.1875 1757.56 66.5625C1754.23 67.9375 1750.67 68.625 1746.88 68.625H1739.06ZM1739.06 9.0625V61.4375H1743.44C1744.94 61.4375 1746.27 60.625 1747.44 59C1748.65 57.3333 1749.25 54.5833 1749.25 50.75V19.5625C1749.25 12.5625 1746.92 9.0625 1742.25 9.0625H1739.06Z" fill="currentColor"/>
</svg>
