<svg viewBox="0 0 512 512" fill="none" xmlns="http://www.w3.org/2000/svg">
<path d="M301.281 256.005L502.618 54.6677C505.593 51.696 507.953 48.1671 509.563 44.2828C511.173 40.3984 512.002 36.2348 512.002 32.03C512.002 27.8252 511.173 23.6616 509.563 19.7773C507.953 15.893 505.593 12.3641 502.618 9.39234C499.647 6.41756 496.118 4.05765 492.233 2.44753C488.349 0.837415 484.186 0.00866699 479.981 0.00866699C475.776 0.00866699 471.612 0.837415 467.728 2.44753C463.844 4.05765 460.315 6.41756 457.343 9.39234L256.005 210.73L54.6571 9.39234C51.6854 6.41756 48.1565 4.05765 44.2721 2.44753C40.3878 0.837415 36.2242 0.00866699 32.0194 0.00866699C27.8146 0.00866699 23.651 0.837415 19.7667 2.44753C15.8823 4.05765 12.3534 6.41756 9.38172 9.39234C6.40694 12.3641 4.04703 15.893 2.43691 19.7773C0.826794 23.6616 -0.00195313 27.8252 -0.00195312 32.03C-0.00195313 36.2348 0.826794 40.3984 2.43691 44.2828C4.04703 48.1671 6.40694 51.696 9.38172 54.6677L210.73 256.005L9.38172 457.343C6.4096 460.316 4.05213 463.845 2.44389 467.729C0.835661 471.613 0.00816925 475.775 0.00866472 479.979C0.0091602 484.183 0.837633 488.345 2.44678 492.229C4.05593 496.112 6.41424 499.641 9.38706 502.613C12.3599 505.585 15.889 507.943 19.7729 509.551C23.6568 511.159 27.8195 511.987 32.0232 511.986C36.2269 511.986 40.3893 511.157 44.2729 509.548C48.1564 507.939 51.685 505.58 54.6571 502.608L256.005 301.27L457.343 502.608C463.597 508.862 471.794 511.989 479.981 511.989C488.167 511.989 496.364 508.862 502.618 502.608C505.593 499.636 507.953 496.107 509.563 492.223C511.173 488.338 512.002 484.175 512.002 479.97C512.002 475.765 511.173 471.602 509.563 467.717C507.953 463.833 505.593 460.304 502.618 457.332L301.281 256.005Z" fill="currentColor"/>
</svg>
