<svg  viewBox="0 0 512 512" fill="none" xmlns="http://www.w3.org/2000/svg">
<path d="M85.3333 277.333H426.667C432.325 277.333 437.751 275.086 441.752 271.085C445.752 267.084 448 261.658 448 256C448 250.342 445.752 244.916 441.752 240.915C437.751 236.914 432.325 234.667 426.667 234.667H85.3333C79.6754 234.667 74.2492 236.914 70.2484 240.915C66.2476 244.916 64 250.342 64 256C64 261.658 66.2476 267.084 70.2484 271.085C74.2492 275.086 79.6754 277.333 85.3333 277.333ZM426.667 106.667H85.3333C79.6754 106.667 74.2492 108.914 70.2484 112.915C66.2476 116.916 64 122.342 64 128C64 133.658 66.2476 139.084 70.2484 143.085C74.2492 147.086 79.6754 149.333 85.3333 149.333H426.667C432.325 149.333 437.751 147.086 441.752 143.085C445.752 139.084 448 133.658 448 128C448 122.342 445.752 116.916 441.752 112.915C437.751 108.914 432.325 106.667 426.667 106.667ZM85.3333 405.333H426.667C432.325 405.333 437.751 403.086 441.752 399.085C445.752 395.084 448 389.658 448 384C448 378.342 445.752 372.916 441.752 368.915C437.751 364.914 432.325 362.667 426.667 362.667H85.3333C79.6754 362.667 74.2492 364.914 70.2484 368.915C66.2476 372.916 64 378.342 64 384C64 389.658 66.2476 395.084 70.2484 399.085C74.2492 403.086 79.6754 405.333 85.3333 405.333Z" fill="currentColor"/>
</svg>
