<svg width="512" height="512" viewBox="0 0 512 512" fill="none" xmlns="http://www.w3.org/2000/svg">
<g clip-path="url(#clip0_126_2049)">
<path d="M256 512.002C397.385 512.002 512 397.387 512 256.002C512 114.617 397.385 0.00219727 256 0.00219727C114.615 0.00219727 0 114.617 0 256.002C0 397.387 114.615 512.002 256 512.002Z" fill="#AEE3D1"/>
<path fill-rule="evenodd" clip-rule="evenodd" d="M68.2744 232.135H224.994C230.614 232.135 235.216 236.737 235.216 242.357V365.642C235.216 371.262 230.614 375.864 224.994 375.864H68.2744V232.135Z" fill="#7D959E"/>
<path fill-rule="evenodd" clip-rule="evenodd" d="M235.216 240.303C235.216 235.808 230.614 232.135 224.994 232.135H68.2744V250.424H224.994C230.614 250.424 235.216 254.097 235.216 258.586V240.303Z" fill="#9AA8AD"/>
<path fill-rule="evenodd" clip-rule="evenodd" d="M224.994 357.581H68.2744V375.864H224.994C230.614 375.864 235.216 372.196 235.216 367.702V349.412C235.216 344.924 230.608 357.581 224.994 357.581Z" fill="#698994"/>
<path d="M200.091 362.183C206.677 362.183 212.016 356.844 212.016 350.258C212.016 343.672 206.677 338.333 200.091 338.333C193.505 338.333 188.166 343.672 188.166 350.258C188.166 356.844 193.505 362.183 200.091 362.183Z" fill="#F2E796"/>
<path d="M196.215 354.431C200.661 354.431 204.264 350.828 204.264 346.382C204.264 341.937 200.661 338.333 196.215 338.333C191.77 338.333 188.166 341.937 188.166 346.382C188.166 350.828 191.77 354.431 196.215 354.431Z" fill="#FCF3B3"/>
<path fill-rule="evenodd" clip-rule="evenodd" d="M235.217 240.297C236.8 231.831 263.18 187.478 307.129 181.822C347.702 157.258 333.759 115.298 343.159 111.029C348.684 108.516 360.776 109.969 365.902 116.083C382.339 135.67 384.792 189.508 350.22 202.79V365.564H283.708C283.708 365.564 252.589 366.314 235.217 355.295V242.357V240.297Z" fill="#FFDEB2"/>
<path fill-rule="evenodd" clip-rule="evenodd" d="M343.07 111.076C343.094 111.285 348.232 152.173 334.581 170.522C320.893 188.918 310.201 190.198 310.201 190.198C310.201 190.198 259.477 205.963 235.217 242.357V240.297C236.8 231.831 263.18 187.478 307.129 181.822C347.565 157.341 333.854 115.589 343.07 111.076Z" fill="#FFE9CC"/>
<path fill-rule="evenodd" clip-rule="evenodd" d="M349.202 109.862C364.074 117.179 371.016 141.785 367.301 163.687C362.258 193.473 340.391 204.314 341.82 208.595C344.332 205.612 347.5 203.629 351.173 202.391L351.298 202.349C384.733 188.371 382.167 135.462 365.902 116.083C362.24 111.719 355.031 109.731 349.202 109.862ZM235.217 338.565C248.463 344.191 279.344 352.955 337.343 348.371C342.005 348.001 346.279 347.787 350.22 347.716V365.564H283.708C283.708 365.564 252.589 366.314 235.217 355.294V338.565Z" fill="#FACE99"/>
<path fill-rule="evenodd" clip-rule="evenodd" d="M343.16 111.029C343.16 111.029 349.089 128.175 346.523 138.445C343.957 148.708 336.373 141.034 336.373 141.034L336.367 141.028C339.724 125.948 338.218 113.273 343.16 111.029Z" fill="#FFEED9"/>
<path fill-rule="evenodd" clip-rule="evenodd" d="M350.22 223.675L338.795 229.813C338.795 229.813 320.893 277.756 281.963 293.586C281.963 293.586 304.289 310.072 337.831 309.566C342.76 309.494 346.839 307.393 350.22 303.88V223.675Z" fill="#FACE99"/>
<path fill-rule="evenodd" clip-rule="evenodd" d="M422.965 201.087H359.811C329.567 201.087 329.567 242.202 359.811 242.202H422.965C453.203 242.202 453.203 201.087 422.965 201.087Z" fill="#FACE99"/>
<path fill-rule="evenodd" clip-rule="evenodd" d="M422.966 201.087H359.805C348.988 201.087 342.04 206.35 338.962 213.119C342.04 219.882 348.988 225.151 359.805 225.151H422.966C433.783 225.151 440.737 219.882 443.809 213.119C440.737 206.35 433.783 201.087 422.966 201.087Z" fill="#FFDEB2"/>
<path fill-rule="evenodd" clip-rule="evenodd" d="M422.965 283.323H359.811C329.567 283.323 329.567 242.202 359.811 242.202H422.965C453.203 242.202 453.203 283.323 422.965 283.323Z" fill="#FACE99"/>
<path fill-rule="evenodd" clip-rule="evenodd" d="M338.771 254.675C341.742 247.703 348.75 242.208 359.805 242.208H422.966C434.021 242.208 441.029 247.703 443.999 254.675C441.029 261.646 434.021 267.147 422.966 267.147H359.805C348.75 267.147 341.742 261.646 338.771 254.675Z" fill="#FFDEB2"/>
<path fill-rule="evenodd" clip-rule="evenodd" d="M413.667 283.323H357.353C330.39 283.323 330.39 324.444 357.353 324.444H413.667C440.63 324.444 440.63 283.323 413.667 283.323Z" fill="#FACE99"/>
<path fill-rule="evenodd" clip-rule="evenodd" d="M413.666 283.323H357.346C347.309 283.323 341.004 289.026 338.444 296.194C341.004 303.356 347.309 309.06 357.346 309.06H413.666C423.71 309.06 430.009 303.356 432.569 296.194C430.009 289.026 423.71 283.323 413.666 283.323Z" fill="#FFDEB2"/>
<path fill-rule="evenodd" clip-rule="evenodd" d="M405.17 365.558H355.107C331.133 365.558 331.133 324.443 355.107 324.443H405.17C429.145 324.443 429.145 365.558 405.17 365.558Z" fill="#FACE99"/>
<path fill-rule="evenodd" clip-rule="evenodd" d="M338.302 337.279C340.588 330.135 346.184 324.443 355.103 324.443H405.177C414.096 324.443 419.692 330.135 421.978 337.279C419.692 344.423 414.096 350.115 405.177 350.115H355.103C346.184 350.115 340.588 344.423 338.302 337.279Z" fill="#FFDEB2"/>
<path d="M200.091 335.023C204.276 335.023 208.092 336.726 210.849 339.488L210.861 339.494C213.623 342.256 215.326 346.067 215.326 350.258C215.326 354.449 213.623 358.259 210.861 361.016L210.849 361.028C208.092 363.79 204.276 365.493 200.091 365.493C195.9 365.493 192.089 363.79 189.333 361.028L189.321 361.016C186.559 358.259 184.856 354.449 184.856 350.258C184.856 346.055 186.559 342.239 189.315 339.488C192.072 336.726 195.888 335.023 200.091 335.023ZM206.175 344.156C204.627 342.608 202.478 341.649 200.091 341.649C197.715 341.649 195.56 342.614 194.006 344.168C192.447 345.727 191.482 347.882 191.482 350.258C191.482 352.645 192.441 354.794 193.995 356.342L194.006 356.354C195.554 357.908 197.704 358.867 200.091 358.867C202.478 358.867 204.627 357.908 206.175 356.354L206.187 356.342C207.741 354.794 208.7 352.645 208.7 350.258C208.7 347.871 207.741 345.715 206.187 344.168L206.175 344.156ZM349.702 368.874H283.19V368.863C281.678 368.892 250.707 369.369 232.924 358.087L236.473 352.496C253 362.986 283.035 362.26 283.124 362.26L283.19 362.248H349.702V368.874ZM231.382 242.357V240.041L231.448 239.69C232.502 234.046 243.623 213.667 262.865 198.021C274.277 188.746 288.601 180.976 305.48 178.643C330.841 162.961 333.324 139.778 334.896 125.02C335.819 116.405 336.485 110.189 341.284 108.01C344.838 106.397 350.482 106.105 355.781 107.284C360.466 108.326 365.032 110.517 367.92 113.958C370.891 117.5 373.433 122.061 375.427 127.252C379.577 138.052 381.357 151.745 379.666 164.753C377.945 177.976 372.647 190.585 362.645 198.974C359.287 201.796 355.37 204.147 350.881 205.868L348.529 199.706C352.268 198.271 355.554 196.289 358.4 193.901C367.003 186.686 371.593 175.606 373.117 163.896C374.665 151.971 373.052 139.457 369.265 129.604C367.545 125.121 365.372 121.209 362.847 118.203C360.966 115.964 357.751 114.482 354.358 113.732C350.387 112.845 346.35 112.976 344.005 114.041C342.659 114.649 342.159 119.292 341.474 125.716C339.754 141.844 337.039 167.254 308.319 184.644L307.718 185.007L307.022 185.096C291.245 187.126 277.778 194.413 267.032 203.147C249.439 217.453 239.271 235.266 238.015 240.601V242.357H231.382Z" fill="#6B605D"/>
<path d="M422.966 204.397H359.811C350.429 204.397 344.475 208.869 341.921 214.578C340.933 216.787 340.445 219.21 340.445 221.645C340.445 224.08 340.933 226.503 341.921 228.706C344.475 234.421 350.423 238.892 359.811 238.892H422.966C432.349 238.892 438.296 234.421 440.85 228.706C441.839 226.503 442.333 224.08 442.333 221.645C442.333 219.21 441.839 216.787 440.85 214.578C438.302 208.869 432.349 204.397 422.966 204.397ZM359.811 197.771H422.966C435.355 197.771 443.339 203.963 446.881 211.893C448.262 214.983 448.959 218.329 448.959 221.645C448.959 224.961 448.262 228.307 446.881 231.402C443.339 239.327 435.355 245.518 422.966 245.518H359.811C347.422 245.518 339.433 239.321 335.89 231.402C334.509 228.301 333.812 224.961 333.812 221.645C333.812 218.329 334.509 214.989 335.89 211.893C339.433 203.963 347.422 197.771 359.811 197.771Z" fill="#6B605D"/>
<path d="M422.966 286.639H359.811C347.422 286.639 339.433 280.441 335.89 272.517C334.509 269.421 333.812 266.082 333.812 262.76C333.812 259.449 334.509 256.104 335.89 253.008C339.433 245.084 347.422 238.892 359.811 238.892H422.966C435.355 238.892 443.339 245.084 446.881 253.008C448.262 256.104 448.959 259.443 448.959 262.76C448.959 266.082 448.262 269.421 446.881 272.517C443.339 280.441 435.355 286.639 422.966 286.639ZM359.811 280.007H422.966C432.349 280.007 438.302 275.542 440.85 269.826C441.839 267.624 442.333 265.2 442.333 262.76C442.333 260.325 441.839 257.907 440.85 255.699C438.296 249.983 432.349 245.518 422.966 245.518H359.811C350.423 245.518 344.475 249.989 341.921 255.699C340.933 257.907 340.445 260.325 340.445 262.76C340.445 265.2 340.933 267.618 341.921 269.826C344.475 275.542 350.429 280.007 359.811 280.007Z" fill="#6B605D"/>
<path d="M413.667 286.639H357.353C349.214 286.639 344.029 291.044 341.784 296.688C340.891 298.927 340.445 301.397 340.445 303.88C340.445 306.369 340.891 308.833 341.784 311.072C344.029 316.716 349.214 321.127 357.353 321.127H413.667C421.799 321.127 426.985 316.716 429.229 311.072C430.128 308.833 430.575 306.369 430.575 303.88C430.575 301.397 430.128 298.927 429.229 296.688C426.985 291.044 421.799 286.639 413.667 286.639ZM357.353 280.007H413.667C424.937 280.007 432.182 286.258 435.367 294.253C436.588 297.319 437.201 300.612 437.201 303.88C437.201 307.149 436.588 310.447 435.367 313.507C432.182 321.508 424.943 327.754 413.667 327.754H357.353C346.071 327.754 338.831 321.502 335.646 313.507C334.426 310.447 333.812 307.149 333.812 303.88C333.812 300.612 334.426 297.319 335.646 294.253C338.831 286.258 346.071 280.007 357.353 280.007Z" fill="#6B605D"/>
<path d="M405.171 368.874H355.108C344.832 368.874 338.271 362.57 335.42 354.509C334.348 351.49 333.812 348.234 333.812 345.001C333.812 341.768 334.348 338.512 335.42 335.487C338.271 327.432 344.832 321.127 355.108 321.127H405.171C415.446 321.127 422.007 327.426 424.859 335.487C425.93 338.512 426.466 341.768 426.466 345.001C426.466 348.234 425.93 351.49 424.859 354.509C422.007 362.57 415.446 368.874 405.171 368.874ZM355.108 362.248H405.171C412.16 362.248 416.649 357.884 418.625 352.312C419.435 350.026 419.84 347.519 419.84 345.001C419.84 342.483 419.435 339.976 418.625 337.69C416.649 332.112 412.16 327.754 405.171 327.754H355.108C348.118 327.754 343.629 332.118 341.653 337.69C340.849 339.976 340.444 342.483 340.444 345.001C340.444 347.519 340.849 350.026 341.653 352.312C343.629 357.89 348.118 362.248 355.108 362.248ZM334.931 228.194C335.021 226.372 336.569 224.967 338.39 225.05C340.212 225.133 341.617 226.687 341.534 228.509C341.302 233.278 336.92 249.346 327.305 264.635C321.375 274.071 313.415 283.329 303.164 289.693C301.616 290.658 299.574 290.181 298.609 288.633C297.645 287.079 298.121 285.037 299.669 284.079C308.968 278.304 316.249 269.808 321.715 261.116C330.675 246.876 334.729 232.403 334.931 228.194ZM290.477 288.431C292.203 287.859 294.073 288.8 294.644 290.527C295.216 292.253 294.275 294.122 292.548 294.694C290.881 295.248 289.185 295.718 287.476 296.075V296.081C285.815 296.432 284.077 296.7 282.273 296.873C280.457 297.046 278.849 295.712 278.677 293.89C278.504 292.08 279.838 290.467 281.654 290.294C283.142 290.157 284.636 289.919 286.107 289.61H286.119C287.637 289.288 289.095 288.889 290.477 288.431ZM81.5509 360.784C79.7231 360.784 78.2407 359.295 78.2407 357.468C78.2407 355.64 79.7231 354.151 81.5509 354.151H156.785C158.613 354.151 160.101 355.64 160.101 357.468C160.101 359.295 158.613 360.784 156.785 360.784H81.5509ZM167.638 360.891C165.811 360.891 164.328 359.408 164.328 357.581C164.328 355.747 165.811 354.265 167.638 354.265H171.895C173.723 354.265 175.205 355.747 175.205 357.581C175.205 359.408 173.723 360.891 171.895 360.891H167.638ZM381.583 114.976C380.791 113.333 381.476 111.356 383.119 110.564C384.762 109.773 386.739 110.457 387.53 112.1C387.56 112.16 397.782 132.944 398.908 154.602C398.997 156.418 397.598 157.978 395.776 158.067C393.954 158.163 392.394 156.758 392.305 154.936C391.251 134.64 381.607 115.03 381.583 114.976ZM391.626 167.694C391.942 165.89 393.657 164.688 395.454 164.997C397.258 165.313 398.461 167.033 398.145 168.831C398.003 169.665 397.794 170.629 397.538 171.707L397.55 171.713C397.354 172.54 397.092 173.475 396.782 174.499C396.252 176.243 394.407 177.226 392.662 176.696C390.924 176.172 389.936 174.326 390.465 172.582C390.674 171.897 390.888 171.1 391.108 170.189H391.12C391.287 169.498 391.454 168.665 391.626 167.694Z" fill="#6B605D"/>
<path d="M68.2809 228.825H224.995C228.698 228.825 232.085 230.343 234.544 232.796V232.802L234.556 232.813C237.009 235.266 238.533 238.648 238.533 242.357V365.642C238.533 369.357 237.003 372.738 234.556 375.191L234.544 375.203C232.091 377.656 228.704 379.18 224.995 379.18H64.9648V228.825H68.2809ZM224.995 235.451H71.5911V372.554H224.995C226.888 372.554 228.614 371.78 229.865 370.53L229.882 370.518C231.127 369.267 231.901 367.541 231.901 365.642V242.357C231.901 240.458 231.127 238.725 229.882 237.481L229.865 237.469C228.626 236.225 226.9 235.451 224.995 235.451Z" fill="#6B605D"/>
</g>
<defs>
<clipPath id="clip0_126_2049">
<rect width="512" height="512" fill="white"/>
</clipPath>
</defs>
</svg>
