<svg width="512" height="512" viewBox="0 0 512 512" fill="none" xmlns="http://www.w3.org/2000/svg">
<g clip-path="url(#clip0_126_1973)">
<path d="M256 512C397.385 512 512 397.385 512 256C512 114.615 397.385 0 256 0C114.615 0 0 114.615 0 256C0 397.385 114.615 512 256 512Z" fill="#AEE3D1"/>
<path fill-rule="evenodd" clip-rule="evenodd" d="M152.641 262.498V269.571C152.641 272.133 153.932 274.368 155.982 275.639L140.443 288.226H133.781L118.222 275.639C120.272 274.368 121.563 272.133 121.563 269.571V263.585C122.404 264.159 123.285 264.712 124.208 265.245C125.868 266.229 131.198 268.669 136.384 268.648C141.694 268.648 146.86 266.147 148.561 265.143C150.037 264.282 151.39 263.4 152.641 262.498Z" fill="#FED198"/>
<path fill-rule="evenodd" clip-rule="evenodd" d="M103.421 201.163C104.425 172.013 167.154 169.43 168.159 201.163C168.159 208.113 168.097 214.242 167.913 219.654C169.594 218.629 173.407 218.158 174.063 221.704C174.821 225.722 172.525 240.523 166.334 238.391C164.059 252.269 159.077 258.911 148.561 265.143C146.859 266.147 141.694 268.648 136.384 268.648C131.198 268.669 125.868 266.229 124.207 265.245C114.859 259.731 109.161 253.294 106.147 239.129C99.9562 240.789 96.8812 225.947 97.6807 221.663C98.2342 218.67 101.965 218.588 103.831 219.224C103.544 213.894 103.421 207.928 103.421 201.163Z" fill="#FED198"/>
<path fill-rule="evenodd" clip-rule="evenodd" d="M103.421 201.163C104.22 177.835 144.543 171.521 161.148 186.178C161.558 187.777 161.824 189.479 161.886 191.303C161.886 204.853 161.127 216.518 159.979 230.047C157.601 244.5 152.415 251.408 141.489 257.886C139.705 258.931 134.334 261.535 128.82 261.535C123.408 261.555 117.873 259.013 116.13 257.988C115.208 257.455 114.347 256.902 113.486 256.348C110.165 252.146 107.767 246.755 106.147 239.129C99.9562 240.789 96.8812 225.947 97.6807 221.663C98.2342 218.67 101.965 218.588 103.831 219.224C103.544 213.894 103.421 207.928 103.421 201.163Z" fill="#FFDEB2"/>
<path fill-rule="evenodd" clip-rule="evenodd" d="M95.4873 206.637C95.4873 222.237 104.138 222.647 104.138 222.647L103.4 201.819C103.093 193.374 99.0337 191.508 96.8403 197.166C96.0408 199.277 95.4873 202.414 95.4873 206.637Z" fill="#C9897B"/>
<path fill-rule="evenodd" clip-rule="evenodd" d="M100.018 220.679C102.109 222.545 104.138 222.647 104.138 222.647L103.4 201.819C103.339 200.036 103.113 198.539 102.765 197.35C101.576 197.104 100.284 198.129 99.3618 200.569C98.5418 202.66 98.0088 205.796 98.0088 210.019C98.0088 214.919 98.8493 218.322 100.018 220.679Z" fill="#C27767"/>
<path fill-rule="evenodd" clip-rule="evenodd" d="M168.159 208.338C168.159 208.338 165.679 199.954 161.866 199.298C139.418 195.505 113.22 212.356 98.7676 198.58C95.1392 195.136 90.6908 186.117 94.8522 174.268C94.8522 174.268 103.852 181.976 119.718 178.983C125.479 177.876 150.611 170.229 161.989 181.996C167.175 187.367 167.401 191.467 168.159 201.163V208.338Z" fill="#C27767"/>
<path fill-rule="evenodd" clip-rule="evenodd" d="M94.8518 174.247C94.8518 174.247 103.851 181.976 119.718 178.983C125.478 177.876 150.611 170.229 161.988 181.996C163.136 183.185 165.125 185.358 165.904 187.572C165.309 197.473 122.813 199.872 115.454 199.749C102.17 199.523 90.4034 190.791 94.8518 174.247Z" fill="#C9897B"/>
<path fill-rule="evenodd" clip-rule="evenodd" d="M138.004 288.226L131.055 342.796H155.183L143.068 287.734H141.1L140.444 288.226H138.004Z" fill="#ADD2ED"/>
<path fill-rule="evenodd" clip-rule="evenodd" d="M167.749 222.709C167.359 207.826 169.184 210.368 162.645 197.883C159.713 192.287 164.387 184.907 169.266 188.351C177.589 194.234 176.974 220.843 167.749 222.709Z" fill="#C9897B"/>
<path fill-rule="evenodd" clip-rule="evenodd" d="M167.749 222.709C167.359 207.826 169.184 210.368 162.644 197.883C161.681 196.038 161.066 191.959 163.198 189.499C163.198 189.499 163.177 193.804 167.708 199.359C172.218 204.915 169.573 214.468 167.749 222.709Z" fill="#C27767"/>
<path fill-rule="evenodd" clip-rule="evenodd" d="M155.982 275.639C156.577 276.008 157.212 276.295 157.909 276.479L187.039 284.433C187.039 284.433 202.537 289.004 204.095 303.088L207.457 333.345C207.723 335.826 207.006 338.081 205.325 339.967C203.664 341.832 201.491 342.796 198.991 342.796H75.2135C72.7125 342.796 70.56 341.832 68.8791 339.967C67.2186 338.081 66.4806 335.826 66.7676 333.345L70.109 303.088C71.6875 289.004 87.1648 284.433 87.1648 284.433L116.295 276.479C116.992 276.295 117.648 276.008 118.222 275.639L133.781 288.225H140.443L155.982 275.639Z" fill="#ADD2ED"/>
<path fill-rule="evenodd" clip-rule="evenodd" d="M133.186 287.734L126.196 342.796H147.495L140.484 287.734H133.186Z" fill="#FA96A2"/>
<path fill-rule="evenodd" clip-rule="evenodd" d="M137.409 292.961L142.596 341.279L141.837 342.796H147.495L140.566 288.41L140.525 288.144L140.484 287.734H136.835L136.897 288.226L137.409 292.961Z" fill="#E67C89"/>
<path fill-rule="evenodd" clip-rule="evenodd" d="M116.295 276.479L87.1853 284.433C87.1853 284.433 71.6875 289.005 70.109 303.088L66.7676 333.345C66.4806 335.826 67.2186 338.081 68.8791 339.967C70.56 341.832 72.7125 342.796 75.234 342.796H137.102L124.536 302.739L116.295 276.479Z" fill="#9AA8AD"/>
<path fill-rule="evenodd" clip-rule="evenodd" d="M116.294 276.479L87.1849 284.433C87.1849 284.433 79.7026 286.627 74.5981 292.715C76.3201 291.916 77.4886 291.567 77.4886 291.567C91.2439 287.816 105.143 285.704 119.062 285.274L116.294 276.479Z" fill="#7D959E"/>
<path fill-rule="evenodd" clip-rule="evenodd" d="M157.909 276.479L187.039 284.433C187.039 284.433 202.537 289.005 204.095 303.088L207.457 333.345C207.723 335.826 207.006 338.081 205.325 339.967C203.665 341.832 201.492 342.796 198.991 342.796H137.102L149.668 302.739L157.909 276.479Z" fill="#9AA8AD"/>
<path fill-rule="evenodd" clip-rule="evenodd" d="M157.909 276.479L187.039 284.433C187.039 284.433 202.537 289.005 204.095 303.088L207.457 333.345C207.723 335.826 207.006 338.081 205.325 339.967C203.665 341.832 201.492 342.796 198.991 342.796H190.176C191.057 341.32 191.426 339.639 191.221 337.835L188.044 309.217C186.568 295.892 171.911 291.567 171.911 291.567C166.089 289.989 160.246 288.697 154.383 287.693L157.909 276.479Z" fill="#7D959E"/>
<path fill-rule="evenodd" clip-rule="evenodd" d="M121.42 271.067L133.412 287.734L124.003 301.017L116.295 276.479C116.992 276.295 120.825 271.436 121.42 271.067ZM152.805 271.067L140.485 287.734L150.201 301.038L157.909 276.479C157.212 276.295 153.379 271.436 152.805 271.067Z" fill="#EFF4F7"/>
<path fill-rule="evenodd" clip-rule="evenodd" d="M390.437 262.498V269.571C390.437 272.133 391.708 274.368 393.778 275.639L378.219 288.226H371.557L355.998 275.639C358.068 274.368 359.339 272.133 359.339 269.571V263.585C360.2 264.159 361.061 264.712 361.983 265.245C363.644 266.229 368.994 268.669 374.181 268.648C379.49 268.648 384.656 266.147 386.358 265.143C387.813 264.282 389.166 263.4 390.437 262.498Z" fill="#FED198"/>
<path fill-rule="evenodd" clip-rule="evenodd" d="M341.197 201.163C342.201 172.013 404.951 169.43 405.955 201.163C405.955 208.113 405.873 214.242 405.709 219.654C407.39 218.629 411.203 218.158 411.859 221.704C412.597 225.722 410.322 240.523 404.131 238.391C401.835 252.269 396.853 258.911 386.357 265.143C384.656 266.147 379.49 268.648 374.181 268.648C368.994 268.669 363.644 266.229 361.983 265.245C352.635 259.731 346.937 253.294 343.944 239.129C337.732 240.789 334.678 225.947 335.477 221.663C336.01 218.67 339.741 218.588 341.607 219.224C341.34 213.894 341.197 207.928 341.197 201.163Z" fill="#FED198"/>
<path fill-rule="evenodd" clip-rule="evenodd" d="M341.197 201.163C341.996 177.835 382.319 171.521 398.924 186.178C399.354 187.777 399.6 189.479 399.662 191.303C399.662 204.853 398.903 216.518 397.776 230.047C395.398 244.5 390.211 251.408 379.265 257.886C377.502 258.931 372.131 261.535 366.596 261.535C361.204 261.555 355.649 259.013 353.906 257.988C353.004 257.455 352.123 256.902 351.282 256.348C347.962 252.146 345.563 246.755 343.944 239.129C337.732 240.789 334.678 225.947 335.477 221.663C336.01 218.67 339.741 218.588 341.607 219.224C341.34 213.894 341.197 207.928 341.197 201.163Z" fill="#FFDEB2"/>
<path fill-rule="evenodd" clip-rule="evenodd" d="M333.263 206.637C333.263 222.237 341.935 222.647 341.935 222.647L341.176 201.819C340.889 193.374 336.81 191.508 334.637 197.166C333.817 199.277 333.263 202.414 333.263 206.637Z" fill="#C9897B"/>
<path fill-rule="evenodd" clip-rule="evenodd" d="M337.794 220.679C339.905 222.545 341.935 222.647 341.935 222.647L341.176 201.819C341.115 200.036 340.889 198.539 340.541 197.35C339.352 197.104 338.081 198.129 337.138 200.569C336.338 202.66 335.785 205.796 335.785 210.019C335.785 214.919 336.646 218.322 337.794 220.679Z" fill="#C27767"/>
<path fill-rule="evenodd" clip-rule="evenodd" d="M405.955 208.338C405.955 208.338 403.475 199.954 399.662 199.298C377.215 195.505 350.996 212.356 336.543 198.58C332.915 195.136 328.487 186.117 332.628 174.268C332.628 174.268 341.627 181.976 357.494 178.983C363.254 177.876 388.387 170.229 399.785 181.996C404.971 187.367 405.197 191.467 405.955 201.163V208.338Z" fill="#C27767"/>
<path fill-rule="evenodd" clip-rule="evenodd" d="M332.628 174.247C332.628 174.247 341.627 181.976 357.494 178.983C363.254 177.876 388.387 170.229 399.785 181.996C400.933 183.185 402.901 185.358 403.68 187.572C403.085 197.473 360.61 199.872 353.23 199.749C339.946 199.523 328.2 190.791 332.628 174.247Z" fill="#C9897B"/>
<path fill-rule="evenodd" clip-rule="evenodd" d="M375.779 288.226L368.851 342.796H392.958L380.843 287.734H378.895L378.219 288.226H375.779Z" fill="#ADD2ED"/>
<path fill-rule="evenodd" clip-rule="evenodd" d="M405.525 222.709C405.135 207.826 406.96 210.368 400.42 197.883C397.489 192.287 402.163 184.907 407.042 188.351C415.365 194.234 414.75 220.843 405.525 222.709Z" fill="#C9897B"/>
<path fill-rule="evenodd" clip-rule="evenodd" d="M405.525 222.709C405.135 207.826 406.96 210.368 400.42 197.883C399.457 196.038 398.842 191.959 400.974 189.499C400.974 189.499 400.953 193.804 405.484 199.359C410.014 204.915 407.349 214.468 405.525 222.709Z" fill="#C27767"/>
<path fill-rule="evenodd" clip-rule="evenodd" d="M393.779 275.639C394.353 276.008 395.009 276.295 395.706 276.479L424.815 284.433C424.815 284.433 440.313 289.004 441.871 303.088L445.233 333.345C445.499 335.826 444.782 338.081 443.121 339.967C441.44 341.832 439.288 342.796 436.766 342.796H313.01C310.509 342.796 308.336 341.832 306.675 339.967C304.994 338.081 304.277 335.826 304.543 333.345L307.905 303.088C309.463 289.004 324.961 284.433 324.961 284.433L354.091 276.479C354.788 276.295 355.424 276.008 355.998 275.639L371.557 288.225H378.219L393.779 275.639Z" fill="#ADD2ED"/>
<path fill-rule="evenodd" clip-rule="evenodd" d="M370.983 287.734L363.972 342.796H385.271L378.26 287.734H370.983Z" fill="#FA96A2"/>
<path fill-rule="evenodd" clip-rule="evenodd" d="M375.185 292.961L380.372 341.279L379.613 342.796H385.271L378.342 288.41L378.322 288.144L378.26 287.734H374.632L374.673 288.226L375.185 292.961Z" fill="#E67C89"/>
<path fill-rule="evenodd" clip-rule="evenodd" d="M354.091 276.479L324.961 284.433C324.961 284.433 309.463 289.005 307.905 303.088L304.543 333.345C304.277 335.826 304.994 338.081 306.675 339.967C308.336 341.832 310.509 342.796 313.01 342.796H374.898L362.332 302.739L354.091 276.479Z" fill="#9AA8AD"/>
<path fill-rule="evenodd" clip-rule="evenodd" d="M354.091 276.479L324.961 284.433C324.961 284.433 317.478 286.627 312.395 292.715C314.096 291.916 315.264 291.567 315.264 291.567C329.02 287.816 342.919 285.704 356.838 285.274L354.091 276.479Z" fill="#7D959E"/>
<path fill-rule="evenodd" clip-rule="evenodd" d="M395.705 276.479L424.815 284.433C424.815 284.433 440.312 289.005 441.87 303.088L445.232 333.345C445.499 335.826 444.781 338.081 443.121 339.967C441.44 341.832 439.287 342.796 436.766 342.796H374.898L387.464 302.739L395.705 276.479Z" fill="#9AA8AD"/>
<path fill-rule="evenodd" clip-rule="evenodd" d="M395.705 276.479L424.815 284.433C424.815 284.433 440.312 289.005 441.87 303.088L445.232 333.345C445.499 335.826 444.781 338.081 443.121 339.967C441.44 341.832 439.287 342.796 436.766 342.796H427.951C428.853 341.32 429.202 339.639 428.997 337.835L425.819 309.217C424.343 295.892 409.706 291.567 409.706 291.567C403.885 289.989 398.042 288.697 392.179 287.693L395.705 276.479Z" fill="#7D959E"/>
<path fill-rule="evenodd" clip-rule="evenodd" d="M359.195 271.067L371.188 287.734L361.778 301.017L354.091 276.479C354.788 276.295 358.621 271.436 359.195 271.067ZM390.58 271.067L378.26 287.734L387.997 301.038L395.705 276.479C395.008 276.295 391.154 271.436 390.58 271.067Z" fill="#EFF4F7"/>
<path fill-rule="evenodd" clip-rule="evenodd" d="M277.709 262.765V274.86C277.709 279.226 279.903 283.039 283.408 285.212L256.84 306.696H245.484L218.916 285.212C222.442 283.039 224.635 279.226 224.635 274.86V264.651C226.07 265.594 227.567 266.537 229.125 267.459C231.974 269.14 241.097 273.302 249.953 273.281C259.013 273.261 267.828 269.017 270.739 267.295C273.24 265.799 275.557 264.302 277.709 262.765Z" fill="#FED198"/>
<path fill-rule="evenodd" clip-rule="evenodd" d="M193.64 158.053C195.362 108.259 302.493 103.872 304.195 158.053C304.195 169.922 304.092 180.377 303.764 189.622C306.634 187.88 313.153 187.06 314.281 193.107C315.552 199.974 311.657 225.25 301.079 221.602C297.184 245.32 288.677 256.656 270.739 267.295C267.828 269.017 259.014 273.261 249.953 273.281C241.097 273.302 231.974 269.14 229.125 267.459C213.176 258.07 203.459 247.083 198.314 222.873C187.716 225.701 182.488 200.364 183.862 193.045C184.805 187.962 191.16 187.798 194.358 188.884C193.866 179.803 193.64 169.573 193.64 158.053Z" fill="#FED198"/>
<path fill-rule="evenodd" clip-rule="evenodd" d="M193.64 158.053C195.014 118.222 263.851 107.459 292.203 132.469C292.92 135.216 293.371 138.106 293.474 141.202C293.474 164.366 292.182 184.251 290.235 207.354C286.176 232.036 277.32 243.844 258.645 254.893C255.631 256.697 246.447 261.125 237.017 261.145C227.793 261.166 218.322 256.82 215.349 255.078C213.791 254.155 212.295 253.233 210.86 252.269C205.181 245.094 201.081 235.89 198.314 222.873C187.716 225.701 182.488 200.364 183.862 193.045C184.805 187.962 191.16 187.798 194.358 188.884C193.866 179.803 193.64 169.573 193.64 158.053Z" fill="#FFDEB2"/>
<path fill-rule="evenodd" clip-rule="evenodd" d="M180.11 167.38C180.11 194.029 194.891 194.726 194.891 194.726L193.62 159.16C193.107 144.748 186.158 141.55 182.427 151.226C181.033 154.814 180.11 160.164 180.11 167.38Z" fill="#C9897B"/>
<path fill-rule="evenodd" clip-rule="evenodd" d="M187.838 191.364C191.426 194.562 194.89 194.726 194.89 194.726L193.619 159.159C193.517 156.105 193.107 153.563 192.512 151.554C190.503 151.103 188.31 152.887 186.711 157.028C185.338 160.615 184.395 165.965 184.395 173.181C184.395 181.525 185.85 187.326 187.838 191.364Z" fill="#C27767"/>
<path fill-rule="evenodd" clip-rule="evenodd" d="M304.195 170.311C304.195 170.311 299.951 155.982 293.453 154.875C255.118 148.377 210.368 177.158 185.707 153.645C179.516 147.741 171.931 132.346 179.003 112.113C179.003 112.113 194.378 125.294 221.478 120.169C231.298 118.304 274.224 105.225 293.658 125.335C302.514 134.478 302.903 141.489 304.195 158.053V170.311Z" fill="#C27767"/>
<path fill-rule="evenodd" clip-rule="evenodd" d="M179.003 112.113C179.003 112.113 194.378 125.294 221.479 120.169C231.298 118.304 274.224 105.245 293.658 125.335C295.626 127.344 298.988 131.054 300.321 134.826C299.316 151.759 226.768 155.839 214.181 155.634C191.508 155.244 171.439 140.361 179.003 112.113Z" fill="#C9897B"/>
<path fill-rule="evenodd" clip-rule="evenodd" d="M252.699 306.696L240.851 399.867H282.034L261.35 305.835H258.009L256.84 306.696H252.699Z" fill="#ADD2ED"/>
<path fill-rule="evenodd" clip-rule="evenodd" d="M303.478 194.829C302.801 169.43 305.937 173.776 294.765 152.456C289.763 142.883 297.738 130.275 306.06 136.179C320.287 146.224 319.242 191.672 303.478 194.829Z" fill="#C9897B"/>
<path fill-rule="evenodd" clip-rule="evenodd" d="M303.477 194.829C302.801 169.43 305.937 173.776 294.765 152.456C293.125 149.299 292.08 142.35 295.708 138.106C295.708 138.147 295.688 145.486 303.416 154.978C311.124 164.469 306.593 180.766 303.477 194.829Z" fill="#C27767"/>
<path fill-rule="evenodd" clip-rule="evenodd" d="M283.408 285.212C284.412 285.827 285.499 286.319 286.688 286.647L336.42 300.218C336.42 300.218 362.865 308.028 365.55 332.074L371.269 383.733C371.741 387.997 370.511 391.831 367.662 395.029C364.792 398.227 361.102 399.867 356.817 399.867H145.506C141.222 399.867 137.532 398.227 134.683 395.029C131.813 391.831 130.583 387.997 131.054 383.733L136.794 332.074C139.459 308.028 165.924 300.218 165.924 300.218L215.636 286.647C216.825 286.319 217.932 285.827 218.916 285.212L245.483 306.696H256.84L283.408 285.212Z" fill="#ADD2ED"/>
<path fill-rule="evenodd" clip-rule="evenodd" d="M244.5 305.835L232.528 399.867H268.894L256.922 305.835H244.5Z" fill="#FA96A2"/>
<path fill-rule="evenodd" clip-rule="evenodd" d="M251.674 314.793L260.53 397.284L259.239 399.867H268.894L257.066 307.003L257.025 306.573L256.922 305.835H250.711L250.793 306.696L251.674 314.793Z" fill="#E67C89"/>
<path fill-rule="evenodd" clip-rule="evenodd" d="M215.636 286.647L165.924 300.218C165.924 300.218 139.459 308.028 136.794 332.074L131.054 383.733C130.583 387.997 131.813 391.831 134.683 395.029C137.532 398.227 141.222 399.867 145.506 399.867H251.162L229.719 331.48L215.636 286.647Z" fill="#9AA8AD"/>
<path fill-rule="evenodd" clip-rule="evenodd" d="M215.636 286.647L165.925 300.218C165.925 300.218 153.133 303.99 144.461 314.363C147.372 312.989 149.361 312.415 149.361 312.415C172.853 305.999 196.592 302.411 220.351 301.653L215.636 286.647Z" fill="#7D959E"/>
<path fill-rule="evenodd" clip-rule="evenodd" d="M286.688 286.647L336.42 300.218C336.42 300.218 362.865 308.028 365.55 332.074L371.27 383.733C371.741 387.997 370.511 391.831 367.662 395.029C364.792 398.227 361.102 399.867 356.817 399.867H251.162L272.625 331.48L286.688 286.647Z" fill="#9AA8AD"/>
<path fill-rule="evenodd" clip-rule="evenodd" d="M286.688 286.647L336.42 300.218C336.42 300.218 362.865 308.028 365.55 332.074L371.27 383.733C371.741 387.997 370.511 391.831 367.662 395.029C364.792 398.227 361.102 399.867 356.817 399.867H341.771C343.288 397.345 343.903 394.475 343.554 391.4L338.142 342.529C335.621 319.795 310.591 312.415 310.591 312.415C300.669 309.689 290.685 307.495 280.682 305.794L286.688 286.647Z" fill="#7D959E"/>
<path fill-rule="evenodd" clip-rule="evenodd" d="M224.369 277.402L244.869 305.835L228.777 328.528L215.636 286.647C216.825 286.319 223.385 278.017 224.369 277.402ZM277.955 277.402L256.923 305.835L273.527 328.569L286.688 286.647C285.499 286.319 278.96 278.017 277.955 277.402Z" fill="#EFF4F7"/>
<path d="M155.346 262.457L155.49 271.026L150.098 271.108L149.955 262.539L155.346 262.457ZM119.021 271.108L118.857 263.646L124.269 263.544L124.412 271.006L119.021 271.108Z" fill="#6B605D"/>
<path d="M171.419 222.196C171.152 220.72 172.116 219.306 173.592 219.039C175.047 218.773 176.461 219.757 176.728 221.212C177.179 223.631 176.728 229.33 175.19 233.758C174.616 235.439 173.858 237.017 172.915 238.268C171.767 239.805 170.332 240.871 168.59 241.199H168.569C167.36 247.37 165.494 252.146 162.768 256.164C159.672 260.694 155.531 264.159 149.935 267.48C148.807 268.136 146.265 269.427 143.149 270.329L143.006 270.37C140.977 270.944 138.701 271.354 136.385 271.354C134.068 271.354 131.731 270.944 129.681 270.37C126.586 269.489 123.962 268.238 122.834 267.562C117.853 264.651 113.835 261.432 110.616 257.025C107.747 253.069 105.553 248.231 103.995 241.835C101.781 241.384 100.018 239.785 98.6447 237.591C97.4967 235.705 96.5947 233.389 95.9797 231.072L95.9387 230.929C94.9547 227.177 94.6472 223.242 95.0367 221.171C95.3032 219.695 96.6972 218.732 98.1732 218.998C99.6287 219.265 100.613 220.679 100.346 222.135C100.08 223.549 100.387 226.522 101.187 229.555L101.207 229.658C101.72 231.564 102.396 233.389 103.237 234.742C103.852 235.726 104.467 236.402 105.02 236.525L105.082 236.546C105.164 236.566 105.287 236.546 105.43 236.525L105.594 236.484C107.05 236.177 108.485 237.099 108.792 238.575C110.227 245.279 112.236 250.096 114.983 253.848C117.689 257.579 121.194 260.346 125.561 262.908C126.442 263.421 128.533 264.425 131.137 265.163C132.797 265.614 134.622 265.963 136.385 265.963C138.168 265.963 139.931 265.614 141.53 265.163L141.633 265.143C144.195 264.405 146.265 263.359 147.188 262.806C152.108 259.895 155.695 256.923 158.299 253.11C160.882 249.317 162.563 244.561 163.649 238.104C163.67 237.919 163.711 237.714 163.772 237.509C164.264 236.095 165.802 235.336 167.216 235.828C167.401 235.89 167.524 235.91 167.606 235.89C167.893 235.828 168.241 235.521 168.59 235.049C169.164 234.291 169.656 233.225 170.066 231.995C171.316 228.366 171.747 223.959 171.419 222.196Z" fill="#6B605D"/>
<path d="M100.756 224.41C99.9159 224 99.1574 223.488 98.3989 222.832L98.2349 222.688C95.3035 220.085 93.6635 215.677 93.0485 211.003C92.372 206.083 92.823 200.712 94.0735 196.961C92.4335 194.296 91.0395 190.709 90.609 186.424C90.24 182.632 90.609 178.265 92.249 173.53C92.3515 173.161 92.536 172.833 92.782 172.525C93.7455 171.377 95.447 171.234 96.5949 172.177C97.8864 173.263 99.6084 174.165 101.474 174.903C103.729 175.764 106.148 176.379 108.218 176.666L108.341 176.687C110.268 176.912 112.031 176.994 113.774 176.933C115.496 176.871 117.218 176.666 119.042 176.359L119.206 176.318C121.154 175.928 122.568 175.641 123.942 175.354C130.665 173.919 136.61 172.669 144.298 172.853H144.4C149.218 173.038 154.937 174.268 159.652 176.871C163.034 178.757 165.925 181.381 167.667 184.825C167.852 184.866 168.036 184.887 168.2 184.928C169 185.112 169.799 185.461 170.599 185.994L170.824 186.137C173.94 188.331 175.99 192.615 177.015 197.535L177.077 197.781C177.876 201.799 178.04 206.329 177.548 210.47C177.036 214.755 175.826 218.691 173.899 221.417C172.464 223.426 170.66 224.82 168.446 225.312C168.241 225.374 168.036 225.394 167.811 225.394C166.314 225.435 165.084 224.267 165.043 222.77C165.023 221.93 165.023 221.048 165.002 220.146V220.126C164.982 218.301 165.002 216.825 165.023 215.513C165.105 210.614 165.146 208.728 161.845 202.209C161.763 202.147 161.702 202.086 161.62 202.045C161.558 202.004 161.497 201.983 161.435 201.963C152.662 200.487 142.986 202.393 133.761 204.197C123.819 206.165 114.368 208.031 106.25 205.776L106.845 222.565C106.845 222.729 106.824 222.893 106.804 223.057C106.578 224.533 105.205 225.538 103.729 225.312C102.622 225.148 101.658 224.841 100.756 224.41ZM101.269 218.096L100.715 201.901C100.654 200.425 101.822 199.175 103.319 199.134C103.79 199.113 104.221 199.216 104.61 199.4C111.888 202.988 121.994 200.999 132.715 198.888C142.412 196.981 152.559 194.993 162.317 196.633C163.014 196.756 163.649 197.002 164.285 197.35C164.859 197.678 165.412 198.109 165.904 198.58C166.15 198.826 166.355 199.113 166.478 199.421C170.558 207.416 170.517 209.63 170.435 215.595L170.414 216.682C171.275 214.816 171.87 212.438 172.177 209.835C172.587 206.247 172.464 202.332 171.767 198.847L171.726 198.621C170.968 194.952 169.615 191.918 167.708 190.565L167.585 190.463C167.36 190.34 167.175 190.258 166.97 190.196C166.806 190.176 166.642 190.155 166.519 190.196C165.166 190.504 163.813 189.745 163.362 188.454C162.296 185.461 159.918 183.206 157.028 181.607C153.113 179.434 148.295 178.409 144.216 178.245H144.175C137.123 178.081 131.465 179.29 125.048 180.643C123.347 180.992 121.584 181.361 120.252 181.627L119.985 181.668C117.894 182.037 115.926 182.263 113.958 182.345C111.888 182.406 109.838 182.324 107.685 182.058L107.46 182.017C105.02 181.668 102.191 180.971 99.5264 179.926C98.4604 179.516 97.4354 179.065 96.4514 178.532C95.8774 181.197 95.775 183.677 96.0004 185.891C96.3899 189.786 97.7839 192.923 99.2804 195.034C99.8749 195.854 99.9364 196.879 99.5469 197.74L99.4444 197.945L99.4034 198.047L99.3624 198.17L99.3214 198.273C98.2144 201.286 97.8044 205.94 98.3989 210.286C98.8089 213.443 99.7519 216.333 101.269 218.096ZM135.565 290.44L132.223 318.873H126.77L130.522 287.385L130.809 285.007H142.863L143.15 287.385L145.856 310.058C144.134 311.903 142.535 313.973 141.161 316.29L138.107 290.44H135.565Z" fill="#6B605D"/>
<path d="M154.916 278.119C153.543 277.525 152.907 275.946 153.522 274.573C154.096 273.199 155.695 272.564 157.069 273.158L158.811 273.917L187.736 281.83L187.839 281.85C187.859 281.85 193.927 283.654 199.196 288.41L192.738 290.194C189.335 287.939 186.26 287.016 186.24 287.016L157.212 279.083C157.089 279.042 156.966 279.001 156.843 278.939L154.916 278.119ZM135.011 345.502H75.2341C73.5941 345.502 72.0566 345.174 70.6421 344.538C69.2276 343.903 67.9567 342.98 66.8702 341.771C65.7837 340.541 64.9842 339.188 64.5127 337.712C64.0412 336.215 63.8977 334.657 64.0822 333.058L67.4237 302.78C69.1866 286.934 86.3244 281.871 86.3654 281.85L86.5909 281.789L115.598 273.876V273.855C115.823 273.794 116.049 273.712 116.213 273.65C116.438 273.548 116.623 273.445 116.807 273.343C118.058 272.564 119.739 272.933 120.518 274.224C121.317 275.475 120.928 277.156 119.657 277.935C119.226 278.201 118.796 278.427 118.365 278.611C117.894 278.796 117.443 278.98 116.992 279.083L88.0054 287.016H87.9644C87.9439 287.016 74.1681 291.096 72.8151 303.375L69.4531 333.632C69.3506 334.514 69.4326 335.334 69.6581 336.051C69.9041 336.81 70.3346 337.527 70.8881 338.163C71.4621 338.798 72.1386 339.29 72.8561 339.598C73.5531 339.905 74.3321 340.09 75.2341 340.09H135.606L135.011 345.502Z" fill="#6B605D"/>
<path d="M123.613 269.489L135.606 286.155L136.733 287.713L135.606 289.271L126.196 302.575L123.039 307.024L121.42 301.817L113.712 277.279L112.872 274.593L115.598 273.855C115.967 273.753 116.398 272.605 117.423 271.416C118.468 270.206 119.411 269.12 119.985 268.771L122.117 267.439L123.613 269.489ZM130.091 287.734L121.174 275.331C120.579 276.008 119.985 276.705 119.39 277.299L124.946 295.011L130.091 287.734ZM153.01 275.311L143.826 287.734L149.238 295.113L154.814 277.299C154.219 276.684 153.604 275.987 153.01 275.311ZM138.312 286.114L150.632 269.448L152.108 267.459L154.219 268.771C154.814 269.14 155.736 270.206 156.782 271.416C157.807 272.584 158.217 273.753 158.606 273.855L160.615 274.409V276.869L160.492 277.279L152.784 301.837L151.185 306.962L148.029 302.637L138.291 289.312L137.123 287.713L138.312 286.114Z" fill="#6B605D"/>
<path d="M134.519 341.996L135.872 337.712L135.36 342.242L134.519 341.996ZM143.785 312.456L147.639 300.238L152.784 301.837L151.862 304.769C149.074 306.819 146.245 309.361 143.785 312.456Z" fill="#6B605D"/>
<path d="M134.519 343.595L121.317 301.509L126.483 299.89L136.528 331.89L135.237 343.37L134.519 343.595ZM393.123 262.375L393.471 270.001L388.059 270.247L387.731 262.601L393.123 262.375ZM356.613 270.206L356.654 263.585L362.045 263.605L362.025 270.227L356.613 270.206Z" fill="#6B605D"/>
<path d="M408.948 221.684C407.554 221.151 406.858 219.593 407.411 218.199C407.944 216.805 409.502 216.108 410.896 216.661C411.818 217.01 412.679 217.604 413.335 218.465L413.479 218.691C413.971 219.367 414.319 220.208 414.504 221.212L414.545 221.335C414.955 223.836 414.483 229.391 412.987 233.758C412.392 235.439 411.634 237.017 410.691 238.268C409.543 239.805 408.128 240.871 406.366 241.199C405.136 247.37 403.291 252.146 400.564 256.164C397.469 260.694 393.307 264.159 387.731 267.48C386.583 268.136 384.041 269.427 380.925 270.329L380.782 270.37C378.773 270.944 376.497 271.354 374.181 271.354C371.844 271.354 369.528 270.944 367.457 270.37L367.334 270.329C364.28 269.468 361.738 268.238 360.61 267.582C355.649 264.651 351.611 261.432 348.413 257.025C345.522 253.069 343.349 248.231 341.771 241.835C339.557 241.384 337.794 239.785 336.421 237.591L336.339 237.427C335.211 235.582 334.371 233.307 333.756 231.052L333.735 230.929C332.751 227.178 332.423 223.242 332.813 221.171C332.956 220.331 333.264 219.613 333.674 218.998C334.125 218.301 334.699 217.768 335.334 217.338C336.585 216.538 338.266 216.887 339.065 218.137C339.885 219.388 339.537 221.048 338.286 221.868C338.225 221.909 338.184 221.95 338.184 221.971C338.163 221.991 338.143 222.053 338.122 222.135C337.856 223.529 338.163 226.522 338.963 229.555L338.983 229.658C339.475 231.503 340.131 233.266 340.951 234.619L341.033 234.742C341.628 235.705 342.243 236.402 342.817 236.525L342.858 236.546C342.96 236.566 343.083 236.546 343.206 236.525L343.37 236.484C344.846 236.177 346.281 237.099 346.588 238.575C348.003 245.279 350.032 250.096 352.759 253.848C355.485 257.579 358.97 260.346 363.357 262.908C364.218 263.421 366.268 264.405 368.81 265.122L368.913 265.163C370.573 265.614 372.418 265.963 374.181 265.963C375.944 265.963 377.727 265.614 379.326 265.163L379.408 265.143C381.971 264.405 384.041 263.359 384.964 262.806C389.884 259.895 393.492 256.923 396.095 253.11C398.678 249.317 400.359 244.561 401.425 238.124C401.446 237.919 401.487 237.714 401.569 237.509C402.04 236.095 403.598 235.336 405.013 235.828C405.177 235.89 405.3 235.91 405.402 235.89C405.669 235.828 406.017 235.521 406.386 235.029C406.94 234.291 407.432 233.204 407.862 231.995C409.092 228.428 409.522 224.103 409.215 222.278L409.194 222.196C409.174 222.012 409.133 221.889 409.071 221.807L409.051 221.766C409.03 221.725 408.989 221.704 408.948 221.684Z" fill="#6B605D"/>
<path d="M338.553 224.41C337.712 224 336.933 223.488 336.175 222.832L336.011 222.688C333.1 220.085 331.46 215.677 330.824 211.003C330.148 206.083 330.599 200.712 331.849 196.961C330.23 194.296 328.836 190.709 328.405 186.424C328.016 182.632 328.405 178.265 330.025 173.53C330.127 173.161 330.312 172.833 330.558 172.525C331.521 171.377 333.223 171.234 334.371 172.177C335.662 173.263 337.405 174.165 339.25 174.903C341.505 175.764 343.924 176.379 346.015 176.666L346.117 176.687C348.044 176.912 349.827 176.994 351.57 176.933C353.292 176.871 355.014 176.666 356.818 176.359L356.982 176.318C358.909 175.928 360.364 175.641 361.738 175.334C368.462 173.919 374.386 172.669 382.073 172.853H382.176C386.993 173.038 392.713 174.268 397.428 176.871C400.831 178.757 403.721 181.381 405.464 184.825C405.628 184.866 405.812 184.887 405.997 184.928C406.776 185.112 407.575 185.461 408.375 185.994L408.6 186.137C411.716 188.331 413.766 192.615 414.791 197.535L414.852 197.781C415.672 201.799 415.816 206.329 415.324 210.47C414.832 214.755 413.602 218.691 411.696 221.417C410.281 223.426 408.457 224.82 406.243 225.312C406.038 225.374 405.812 225.394 405.607 225.394C404.111 225.435 402.86 224.267 402.84 222.77C402.819 221.93 402.799 221.048 402.778 220.146V219.654C402.778 218.055 402.799 216.702 402.819 215.534C402.881 210.614 402.922 208.748 399.601 202.188C399.539 202.127 399.478 202.086 399.416 202.045C399.334 202.004 399.273 201.983 399.211 201.963C390.437 200.487 380.761 202.393 371.537 204.197C361.594 206.165 352.144 208.01 344.026 205.776L344.621 222.34C344.641 222.565 344.641 222.811 344.6 223.057C344.375 224.533 342.981 225.538 341.505 225.312C340.439 225.148 339.475 224.861 338.553 224.41ZM339.065 218.096L338.491 201.901C338.45 200.425 339.619 199.175 341.115 199.134C341.566 199.113 341.997 199.216 342.386 199.4C349.663 202.988 359.79 200.999 370.491 198.888C380.188 196.981 390.355 194.993 400.113 196.633C400.79 196.756 401.446 197.002 402.061 197.35C402.655 197.699 403.188 198.109 403.68 198.58C403.906 198.785 404.07 199.031 404.213 199.298C408.354 207.375 408.313 209.589 408.211 215.616L408.19 216.682C409.051 214.816 409.646 212.438 409.953 209.835C410.384 206.247 410.24 202.332 409.543 198.847L409.502 198.621C408.744 194.952 407.391 191.918 405.484 190.565L405.361 190.463C405.156 190.34 404.951 190.258 404.767 190.196C404.603 190.176 404.439 190.155 404.295 190.196C402.942 190.504 401.589 189.745 401.138 188.454C400.072 185.461 397.715 183.206 394.804 181.607C390.909 179.434 386.091 178.409 381.991 178.245H381.971C374.919 178.081 369.241 179.29 362.824 180.643C361.102 180.992 359.401 181.361 358.027 181.627L357.761 181.668C355.69 182.037 353.722 182.263 351.754 182.345C349.663 182.406 347.614 182.324 345.461 182.058L345.256 182.017C342.817 181.668 339.967 180.971 337.302 179.926C336.236 179.516 335.211 179.065 334.227 178.532C333.653 181.217 333.551 183.677 333.776 185.891C334.166 189.807 335.56 192.923 337.077 195.034C337.692 195.895 337.733 196.981 337.261 197.863L337.241 197.904L337.138 198.17L337.097 198.273C335.99 201.286 335.601 205.94 336.175 210.286C336.605 213.443 337.528 216.333 339.065 218.096ZM368.298 287.385C368.482 285.909 369.856 284.864 371.311 285.048C372.787 285.233 373.833 286.586 373.669 288.062L370.286 319.611H364.833L368.298 287.385ZM379.593 319.611L375.575 288.062C375.411 286.586 376.457 285.233 377.912 285.048C379.388 284.864 380.741 285.909 380.946 287.385L385.046 319.611H379.593Z" fill="#6B605D"/>
<path d="M372.787 285.294H376.723L376.108 286.114C375.37 287.098 375.411 288.39 376.087 289.312L377.092 290.686L372.397 290.706L373.34 289.394C374.037 288.472 374.099 287.139 373.402 286.135L372.787 285.294ZM396.608 273.917L425.533 281.83L425.615 281.85C425.656 281.871 442.793 286.934 444.577 302.78L447.918 333.058C448.103 334.657 447.959 336.215 447.467 337.712C446.996 339.188 446.217 340.541 445.13 341.771C444.023 342.98 442.752 343.903 441.358 344.538C439.923 345.174 438.386 345.502 436.766 345.502H367.334L366.74 340.09H436.766C437.668 340.09 438.447 339.905 439.165 339.598C439.882 339.29 440.518 338.798 441.112 338.163C441.666 337.527 442.096 336.81 442.342 336.051C442.568 335.334 442.65 334.514 442.547 333.632L439.185 303.375C437.812 291.096 424.057 287.016 424.016 287.016L397.51 279.78L398.289 277.299C398.35 277.012 398.412 276.746 398.412 276.479C398.412 275.29 397.653 274.286 396.608 273.917ZM310.734 290.501C316.351 284.146 324.141 281.85 324.162 281.85L324.387 281.789L353.189 273.917C351.836 274.388 351.057 275.885 351.488 277.279L352.287 279.78L325.781 287.016H325.761C325.74 287.016 320.923 288.451 316.72 292.121L310.734 290.501ZM396.259 273.773L396.567 273.917L396.403 273.855C396.362 273.855 396.321 273.814 396.259 273.773Z" fill="#6B605D"/>
<path d="M361.492 269.632L373.381 286.155C374.099 287.139 374.037 288.471 373.32 289.394L363.972 302.575C363.132 303.785 361.43 304.072 360.221 303.211C359.729 302.862 359.38 302.37 359.216 301.817H359.196L351.508 277.279C351.057 275.844 351.857 274.327 353.271 273.896L353.374 273.855C353.743 273.753 354.194 272.584 355.198 271.416C356.264 270.206 357.187 269.12 357.761 268.771C359.032 267.972 360.713 268.361 361.492 269.632ZM367.888 287.734L358.95 275.352C358.376 276.008 357.761 276.705 357.166 277.299L362.742 295.011L367.888 287.734ZM390.806 275.311L381.622 287.734L387.014 295.113L392.61 277.299C391.995 276.684 391.38 275.987 390.806 275.311ZM376.087 286.114L388.326 269.591C389.125 268.361 390.765 267.992 392.016 268.771C392.59 269.12 393.533 270.206 394.578 271.416C395.583 272.584 396.034 273.732 396.403 273.855C397.551 274.163 398.412 275.229 398.412 276.479H398.391C398.391 276.746 398.371 277.012 398.268 277.279L390.581 301.837H390.56C390.396 302.37 390.068 302.862 389.597 303.211C388.387 304.092 386.686 303.846 385.804 302.637L376.087 289.312C375.411 288.389 375.37 287.098 376.087 286.114Z" fill="#6B605D"/>
<path d="M377.481 343.595C377.03 345.03 375.513 345.83 374.078 345.379C372.664 344.928 371.864 343.411 372.315 341.996L385.415 300.238C385.845 298.803 387.362 298.004 388.797 298.455C390.212 298.906 391.011 300.423 390.581 301.837L377.481 343.595Z" fill="#6B605D"/>
<path d="M377.481 341.996C377.912 343.411 377.112 344.928 375.698 345.379C374.263 345.83 372.746 345.03 372.315 343.595L359.093 301.509C358.663 300.074 359.462 298.557 360.877 298.106C362.311 297.676 363.828 298.475 364.259 299.89L377.481 341.996ZM280.395 262.724L280.661 277.361L275.249 277.443L275.003 262.806L280.395 262.724ZM222.176 277.463L221.93 264.692L227.321 264.589L227.588 277.34L222.176 277.463Z" fill="#6B605D"/>
<path d="M311.616 193.599C311.349 192.144 312.333 190.729 313.789 190.463C315.265 190.196 316.679 191.16 316.946 192.615C317.663 196.53 316.905 205.796 314.383 213.074L314.301 213.32C313.358 215.944 312.19 218.383 310.775 220.269C309.095 222.504 307.045 224.062 304.564 224.533C304.154 224.594 303.724 224.656 303.293 224.656C301.243 235.623 298.127 243.946 293.412 250.875C288.308 258.378 281.42 264.097 272.113 269.612C270.248 270.719 266.066 272.81 260.941 274.306C257.579 275.27 253.786 275.987 249.953 275.987C246.16 275.987 242.368 275.311 238.986 274.368C233.881 272.933 229.617 270.862 227.772 269.796C219.49 264.917 212.808 259.587 207.478 252.31C202.537 245.504 198.827 237.058 196.203 225.783C195.834 225.763 195.485 225.701 195.157 225.64C191.898 225.045 189.233 222.606 187.142 219.244C185.276 216.251 183.821 212.438 182.796 208.625C181.136 202.393 180.582 195.895 181.197 192.553C181.402 191.406 181.833 190.401 182.386 189.561C183.001 188.618 183.8 187.859 184.682 187.285C185.932 186.465 187.593 186.834 188.413 188.085C189.233 189.335 188.864 190.996 187.613 191.816C187.326 192 187.08 192.246 186.896 192.512C186.732 192.779 186.588 193.107 186.506 193.517C186.014 196.182 186.547 201.717 188.023 207.231C188.925 210.593 190.176 213.873 191.734 216.395C193.046 218.527 194.542 220.044 196.121 220.331C196.572 220.413 197.084 220.392 197.617 220.249L197.761 220.228C199.216 219.921 200.651 220.843 200.959 222.299C203.439 234.024 207.006 242.491 211.844 249.133C216.661 255.734 222.832 260.612 230.499 265.122C232.098 266.065 235.849 267.869 240.441 269.161C243.434 269.981 246.734 270.596 249.953 270.596C253.233 270.575 256.513 269.96 259.444 269.12C263.995 267.808 267.706 265.942 269.366 264.958C277.997 259.854 284.331 254.586 288.943 247.841C293.556 241.035 296.528 232.61 298.414 221.171C298.435 221.028 298.476 220.864 298.537 220.72C299.009 219.306 300.546 218.568 301.961 219.06C302.555 219.265 303.109 219.306 303.601 219.224C304.605 219.019 305.569 218.219 306.45 217.03C307.537 215.616 308.439 213.689 309.197 211.536L309.259 211.331C311.493 204.833 312.231 196.858 311.616 193.599ZM246.878 308.561L240.667 357.412H235.214L241.815 305.507L242.122 303.129H259.301L259.608 305.507L267.132 357.371H261.699L254.545 308.561H246.878Z" fill="#6B605D"/>
<path d="M284.597 282.793L287.569 284.085L337.138 297.614L337.24 297.655C338.47 298.024 365.427 306.491 368.236 331.767L373.955 383.447C374.242 385.927 373.996 388.325 373.279 390.601C372.561 392.856 371.352 394.947 369.671 396.833C367.99 398.719 366.042 400.154 363.869 401.117C361.696 402.081 359.339 402.573 356.817 402.573H145.507C143.006 402.573 140.628 402.081 138.455 401.117C136.302 400.154 134.355 398.719 132.674 396.833C130.993 394.947 129.763 392.856 129.045 390.601L129.004 390.498C128.328 388.264 128.102 385.886 128.369 383.447L134.109 331.767C136.958 305.937 165.043 297.655 165.125 297.635L165.207 297.614L214.939 284.023C215.431 283.88 215.882 283.736 216.271 283.572C216.702 283.388 217.112 283.162 217.501 282.916C218.506 282.301 219.777 282.424 220.638 283.142H220.658L245.402 303.621L256.471 303.58L281.706 283.121C282.547 282.424 283.695 282.342 284.597 282.793ZM285.622 289.107L283.838 288.349L259.136 308.377C258.665 308.746 258.07 308.971 257.435 308.971L244.623 309.033C243.967 309.074 243.27 308.889 242.716 308.418L218.588 288.451L218.403 288.513C217.706 288.82 217.03 289.066 216.333 289.25L166.642 302.821C165.391 303.19 141.878 310.673 139.48 332.361L133.74 384.021C133.555 385.742 133.699 387.362 134.15 388.858L134.191 388.961C134.683 390.498 135.523 391.933 136.692 393.225C137.86 394.537 139.193 395.521 140.648 396.177C142.104 396.833 143.744 397.161 145.507 397.161H356.817C358.601 397.161 360.22 396.833 361.676 396.177C363.131 395.521 364.464 394.537 365.653 393.225C366.821 391.933 367.641 390.498 368.133 388.961C368.625 387.444 368.769 385.783 368.584 384.021L362.844 332.361C360.446 310.673 336.933 303.19 335.682 302.821L285.991 289.25V289.23C285.868 289.209 285.745 289.169 285.622 289.107Z" fill="#6B605D"/>
<path d="M226.563 275.823L247.062 304.277L248.169 305.835L247.062 307.393L230.991 330.086L227.834 334.534L226.194 329.348L213.053 287.446L212.213 284.761L214.939 284.023C215.021 284.003 217.071 281.461 218.998 279.247C220.7 277.299 222.196 275.577 222.955 275.106L225.087 273.773L226.563 275.823ZM241.548 305.855L224.103 281.625L223.098 282.793C221.663 284.433 220.105 286.237 218.752 287.528L229.74 322.521L241.548 305.855ZM278.222 281.604L260.285 305.855L272.564 322.665L283.572 287.528C282.24 286.237 280.661 284.433 279.247 282.793L278.222 281.604ZM254.75 304.236L275.782 275.803L277.258 273.794L279.37 275.106C280.149 275.577 281.645 277.299 283.326 279.247C285.253 281.461 287.324 284.003 287.406 284.023L289.394 284.556V287.036L289.271 287.446L276.11 329.389L274.511 334.493L271.354 330.168L254.75 307.434L253.581 305.835L254.75 304.236Z" fill="#6B605D"/>
<path d="M248.579 399.067L270.944 327.769L276.11 329.389L253.745 400.687L248.579 399.067Z" fill="#6B605D"/>
<path d="M248.579 400.666L226.029 328.815L231.195 327.195L253.745 399.067L248.579 400.666ZM281.481 377.174C279.984 377.174 278.775 375.964 278.775 374.468C278.775 372.971 279.984 371.762 281.481 371.762H315.613C317.109 371.762 318.319 372.971 318.319 374.468C318.319 375.964 317.109 377.174 315.613 377.174H281.481ZM189.827 188.064C190.606 188.72 191.364 189.253 192.164 189.643L191.036 158.463C190.995 156.987 192.143 155.716 193.64 155.675C194.132 155.654 194.603 155.777 195.013 155.982C208.133 162.234 225.804 158.852 244.52 155.244C261.022 152.087 278.303 148.766 294.724 151.472C295.687 151.636 296.61 151.964 297.45 152.436C298.291 152.907 299.09 153.522 299.828 154.219C300.095 154.465 300.3 154.752 300.423 155.039C307.27 168.159 307.208 171.746 307.044 181.463C307.024 183.431 306.983 185.666 307.003 188.269V189.212C307.803 188.556 308.52 187.736 309.196 186.752C311.636 183.226 313.214 177.896 313.932 171.992C314.67 165.945 314.444 159.364 313.296 153.481C311.943 146.532 309.319 140.648 305.466 137.983C304.789 137.512 304.133 137.225 303.518 137.081C302.924 136.938 302.35 136.958 301.817 137.061C300.484 137.368 299.152 136.61 298.68 135.359C296.692 129.865 292.284 125.766 286.913 122.855C279.882 119.042 271.272 117.258 263.974 116.971H263.933C251.531 116.705 241.691 118.734 230.539 121.03C227.71 121.604 224.799 122.199 222.298 122.691H222.257C218.69 123.326 215.287 123.716 211.823 123.839C208.379 123.962 204.956 123.818 201.327 123.388L201.122 123.347C197.043 122.773 192.246 121.645 187.777 119.944C185.194 118.96 182.693 117.791 180.479 116.418C178.901 122.055 178.573 127.221 179.044 131.792C179.762 138.721 182.283 144.277 185.03 148.028C185.665 148.889 185.727 149.996 185.255 150.898L185.153 151.103L184.968 151.534H184.989C182.898 156.823 182.119 165.125 183.185 172.812C184.046 179.085 186.137 184.846 189.704 187.962L189.827 188.064ZM190.052 194.644C188.74 194.009 187.531 193.209 186.321 192.184L186.137 192.041C181.504 188.003 178.86 181.012 177.835 173.55C176.666 165.166 177.527 156.023 179.803 149.955C176.933 145.63 174.411 139.623 173.673 132.346V132.325C173.038 126.176 173.673 119.103 176.441 111.334C176.523 111.006 176.687 110.698 176.933 110.411C177.876 109.243 179.577 109.079 180.725 110.022C183.123 111.969 186.301 113.589 189.683 114.88C193.763 116.438 198.15 117.463 201.881 117.996L201.963 118.017C205.366 118.406 208.523 118.55 211.639 118.427C214.754 118.324 217.932 117.955 221.335 117.361C224.492 116.746 227.013 116.233 229.453 115.721C240.933 113.363 251.059 111.293 264.036 111.58H264.159C272.195 111.887 281.706 113.855 289.496 118.078C295.318 121.256 300.218 125.663 302.965 131.587C303.539 131.608 304.133 131.669 304.728 131.813C305.978 132.1 307.27 132.674 308.541 133.535C313.665 137.081 317.007 144.215 318.606 152.456C319.877 158.893 320.102 166.047 319.303 172.628C318.503 179.331 316.617 185.522 313.645 189.827C311.369 193.127 308.459 195.362 304.912 196.059C304.769 196.079 304.605 196.1 304.461 196.1C302.965 196.141 301.735 194.952 301.694 193.476C301.653 192.041 301.632 190.565 301.612 189.089V188.29C301.591 185.625 301.612 183.37 301.653 181.381C301.796 172.73 301.858 169.491 295.81 157.868C295.482 157.581 295.175 157.356 294.847 157.171C294.498 156.987 294.17 156.864 293.863 156.802C278.385 154.26 261.576 157.479 245.545 160.574C227.628 163.997 210.634 167.277 196.592 162.439L197.699 193.025C197.473 194.501 196.079 196.202 194.603 195.977C192.922 195.731 191.446 195.3 190.052 194.644Z" fill="#6B605D"/>
</g>
<defs>
<clipPath id="clip0_126_1973">
<rect width="512" height="512" fill="white"/>
</clipPath>
</defs>
</svg>
