<svg width="512" height="512" viewBox="0 0 512 512" fill="none" xmlns="http://www.w3.org/2000/svg">
<g clip-path="url(#clip0_126_2077)">
<path d="M256.018 512.036C397.413 512.036 512.036 397.413 512.036 256.018C512.036 114.623 397.413 0 256.018 0C114.623 0 0 114.623 0 256.018C0 397.413 114.623 512.036 256.018 512.036Z" fill="#AEE3D1"/>
<path fill-rule="evenodd" clip-rule="evenodd" d="M175.023 129.798C175.534 129.761 176.045 129.725 176.556 129.725C185.79 129.725 193.273 137.207 193.273 146.442C193.273 155.677 185.79 163.16 176.556 163.16H110.051C98.4799 163.16 89.0991 153.779 89.0991 142.208C89.0991 130.82 98.1514 121.585 109.43 121.256C111.036 104.502 125.162 91.3621 142.354 91.3621C160.641 91.3621 175.424 106.181 175.424 124.468C175.424 126.294 175.278 128.046 175.023 129.798Z" fill="#BFD9EB"/>
<path fill-rule="evenodd" clip-rule="evenodd" d="M175.606 129.761C175.935 129.725 176.227 129.725 176.555 129.725C183.235 129.725 189.002 133.63 191.667 139.324C190.353 147.756 183.053 154.217 174.256 154.217C169.146 154.217 164.583 152.063 161.335 148.596C169.182 143.705 173.453 135.2 175.606 129.761ZM108.664 121.293C108.919 121.293 109.175 121.256 109.43 121.256C111.036 104.502 125.162 91.3621 142.354 91.3621C153.268 91.3621 162.977 96.6912 169 104.867C170.533 108.591 171.409 112.679 171.409 116.949C171.409 134.36 157.283 148.486 139.872 148.486C123.958 148.486 110.781 136.66 108.664 121.293Z" fill="#E4EFF7"/>
<path fill-rule="evenodd" clip-rule="evenodd" d="M127.206 145.822C123.957 151.479 117.862 155.312 110.854 155.312C100.451 155.312 92.019 146.88 92.019 136.441C92.019 134.032 92.4571 131.732 93.2966 129.615C96.5087 125.345 102.933 122.132 108.7 121.439C110.233 132.389 117.424 141.514 127.206 145.822ZM246.747 67.1619C264.924 67.1619 278.831 132.316 278.831 146.369V313.69H214.699V146.369C214.699 130.272 229.117 67.1619 246.747 67.1619ZM214.699 313.69H151.005C151.005 265.874 177.979 271.896 187.068 241.126C196.595 208.968 178.015 188.418 214.699 159.29V313.69Z" fill="#E4EFF7"/>
<path fill-rule="evenodd" clip-rule="evenodd" d="M207.253 165.788V313.69H214.699V159.291C211.925 161.481 209.443 163.634 207.253 165.788Z" fill="#BFD9EB"/>
<path fill-rule="evenodd" clip-rule="evenodd" d="M160.349 313.69C160.349 265.874 187.944 271.896 195.098 241.126C202.544 208.968 185.936 188.418 214.699 159.291C178.016 188.418 196.595 208.968 187.068 241.126C177.979 271.896 151.005 265.874 151.005 313.69H160.349ZM229.263 313.69V146.369C229.263 140.529 230.285 128.447 232.074 115.453H219.882C216.597 128.447 214.699 140.529 214.699 146.369V313.69H229.263Z" fill="#EFF4F7"/>
<path fill-rule="evenodd" clip-rule="evenodd" d="M278.831 313.69V146.369C278.831 141.149 276.897 128.849 273.539 115.453H261.384C263.209 128.849 264.267 141.149 264.267 146.369V313.69H278.831Z" fill="#BFD9EB"/>
<path fill-rule="evenodd" clip-rule="evenodd" d="M273.539 115.453C267.881 92.8586 258.135 67.1619 246.747 67.1619C235.541 67.1619 225.613 92.7126 219.882 115.453H261.384H273.539Z" fill="#7688A1"/>
<path fill-rule="evenodd" clip-rule="evenodd" d="M235.03 115.453C232.475 107.423 240.067 74.7906 250.032 67.8919C248.974 67.4174 247.879 67.1619 246.747 67.1619C235.541 67.1619 225.613 92.7126 219.882 115.453H235.03Z" fill="#9AA8AD"/>
<path fill-rule="evenodd" clip-rule="evenodd" d="M278.832 313.69H342.526C342.526 265.874 315.552 271.896 306.463 241.126C296.936 208.968 315.515 188.418 278.832 159.291V313.69Z" fill="#E4EFF7"/>
<path fill-rule="evenodd" clip-rule="evenodd" d="M286.278 165.788V313.69H278.832V159.291C281.606 161.481 284.088 163.634 286.278 165.788Z" fill="#BFD9EB"/>
<path fill-rule="evenodd" clip-rule="evenodd" d="M333.182 313.69C333.182 265.874 305.55 271.896 298.433 241.126C290.986 208.968 307.594 188.418 278.832 159.291C315.515 188.418 296.936 208.968 306.463 241.126C315.552 271.896 342.526 265.874 342.526 313.69H333.182Z" fill="#EFF4F7"/>
<path d="M246.747 167.686C256.625 167.686 264.632 159.678 264.632 149.8C264.632 139.922 256.625 131.915 246.747 131.915C236.869 131.915 228.861 139.922 228.861 149.8C228.861 159.678 236.869 167.686 246.747 167.686Z" fill="#FA96A2"/>
<path fill-rule="evenodd" clip-rule="evenodd" d="M246.747 167.649C256.639 167.649 264.632 159.656 264.632 149.8C264.632 139.909 256.639 131.915 246.747 131.915C246.053 131.915 245.36 131.951 244.666 132.061C251.492 132.937 256.785 138.777 256.785 145.858C256.785 153.56 250.543 159.802 242.841 159.802C235.76 159.802 229.92 154.545 229.007 147.72C228.934 148.377 228.898 149.07 228.898 149.8C228.898 159.656 236.892 167.649 246.747 167.649Z" fill="#E67C89"/>
<path d="M242.148 152.027C245.071 152.027 247.44 149.657 247.44 146.734C247.44 143.811 245.071 141.442 242.148 141.442C239.225 141.442 236.855 143.811 236.855 146.734C236.855 149.657 239.225 152.027 242.148 152.027Z" fill="#FCBDC4"/>
<path fill-rule="evenodd" clip-rule="evenodd" d="M407.315 225.868C407.753 225.832 408.191 225.795 408.629 225.795C416.513 225.795 422.938 232.183 422.938 240.067C422.938 247.988 416.513 254.376 408.629 254.376H351.797C341.905 254.376 333.875 246.345 333.875 236.454C333.875 226.744 341.613 218.86 351.249 218.568C352.637 204.223 364.718 193.017 379.392 193.017C395.014 193.017 407.68 205.683 407.68 221.306C407.68 222.875 407.571 224.372 407.315 225.868Z" fill="#BFD9EB"/>
<path fill-rule="evenodd" clip-rule="evenodd" d="M407.863 225.832C408.118 225.795 408.374 225.795 408.629 225.795C414.36 225.795 419.287 229.153 421.55 234.008C420.455 241.199 414.214 246.747 406.694 246.747C402.314 246.747 398.409 244.885 395.635 241.929C402.314 237.731 406.001 230.504 407.863 225.832ZM350.629 218.605C350.848 218.605 351.03 218.568 351.249 218.568C352.636 204.223 364.718 193.017 379.392 193.017C388.736 193.017 397.022 197.544 402.168 204.552C403.519 207.727 404.249 211.231 404.249 214.882C404.249 229.774 392.167 241.819 377.311 241.819C363.696 241.819 352.417 231.745 350.629 218.605Z" fill="#E4EFF7"/>
<path fill-rule="evenodd" clip-rule="evenodd" d="M366.47 239.556C363.696 244.411 358.477 247.66 352.491 247.66C343.584 247.66 336.394 240.469 336.394 231.563C336.394 229.482 336.759 227.511 337.489 225.722C340.226 222.072 345.738 219.298 350.629 218.714C351.979 228.095 358.112 235.906 366.47 239.556Z" fill="#E4EFF7"/>
<path fill-rule="evenodd" clip-rule="evenodd" d="M211.961 444.838C211.961 444.838 190.681 383.224 192.725 327.962H231.161C233.205 383.224 211.961 444.838 211.961 444.838Z" fill="#F2E796"/>
<path fill-rule="evenodd" clip-rule="evenodd" d="M229.007 273.977V313.799L214.699 313.69H200.464L200.391 273.977C200.391 241.746 229.007 242.111 229.007 273.977Z" fill="#BFD9EB"/>
<path fill-rule="evenodd" clip-rule="evenodd" d="M214.699 266.458C216.415 259.997 219.773 256.091 223.532 254.631C220.977 251.529 217.838 249.959 214.699 249.959C212.107 249.923 209.516 250.981 207.253 253.062C203.274 256.748 200.391 263.72 200.391 273.977V313.799L213.494 313.69V276.495C213.494 272.663 213.933 269.305 214.699 266.458Z" fill="#E4EFF7"/>
<path fill-rule="evenodd" clip-rule="evenodd" d="M211.962 394.065C211.962 394.065 195.755 359.207 197.288 327.962H226.599C228.168 359.207 211.962 394.065 211.962 394.065Z" fill="#FCF3B3"/>
<path fill-rule="evenodd" clip-rule="evenodd" d="M197.689 313.69L188.017 327.962H235.869L226.197 313.69H211.961H197.689Z" fill="#698994"/>
<path fill-rule="evenodd" clip-rule="evenodd" d="M206.012 327.962L212.034 313.69H197.689L188.017 327.962H197.288H206.012Z" fill="#92AAB2"/>
<path fill-rule="evenodd" clip-rule="evenodd" d="M277.992 444.838C277.992 444.838 256.748 383.224 258.792 327.962H297.228C299.272 383.224 277.992 444.838 277.992 444.838Z" fill="#F2E796"/>
<path fill-rule="evenodd" clip-rule="evenodd" d="M295.074 273.977V313.799L280.766 313.69H266.494L266.421 273.977C266.421 241.746 295.074 242.111 295.074 273.977Z" fill="#BFD9EB"/>
<path fill-rule="evenodd" clip-rule="evenodd" d="M280.766 266.458C282.481 259.997 285.839 256.091 289.599 254.631C287.044 251.529 283.905 249.959 280.766 249.959C278.174 249.923 275.583 250.981 273.32 253.062C269.341 256.748 266.421 263.72 266.421 273.977V313.799L279.561 313.69V276.495C279.561 272.663 279.999 269.305 280.766 266.458Z" fill="#E4EFF7"/>
<path fill-rule="evenodd" clip-rule="evenodd" d="M277.992 394.065C277.992 394.065 261.786 359.207 263.355 327.962H292.665C294.235 359.207 277.992 394.065 277.992 394.065Z" fill="#FCF3B3"/>
<path fill-rule="evenodd" clip-rule="evenodd" d="M263.756 313.69L254.083 327.962H301.936L292.264 313.69H277.992H263.756Z" fill="#698994"/>
<path fill-rule="evenodd" clip-rule="evenodd" d="M272.042 327.962L278.101 313.69H263.756L254.083 327.962H263.355H272.042Z" fill="#92AAB2"/>
<path d="M175.935 132.9L175.314 132.937L171.226 133.302L171.883 129.287C171.993 128.557 172.102 127.754 172.175 126.878C172.248 126.111 172.248 125.308 172.248 124.469C172.248 116.219 168.927 108.737 163.488 103.298C158.086 97.8958 150.603 94.5377 142.354 94.5377C134.616 94.5377 127.571 97.4943 122.242 102.312C116.876 107.167 113.299 113.956 112.569 121.548L112.314 124.359L109.503 124.432C104.721 124.578 100.378 126.622 97.2752 129.834C94.1726 133.01 92.2745 137.39 92.2745 142.208C92.2745 147.099 94.2456 151.552 97.4577 154.764C100.67 157.977 105.123 159.984 110.051 159.984H176.555C180.279 159.984 183.673 158.451 186.119 156.005H186.155C188.564 153.56 190.097 150.165 190.097 146.442C190.097 142.683 188.564 139.288 186.119 136.842C183.673 134.397 180.279 132.9 176.555 132.9H175.935ZM178.526 126.659C183.235 127.097 187.469 129.214 190.608 132.389C194.222 135.966 196.448 140.931 196.448 146.442C196.448 151.917 194.222 156.881 190.608 160.495C187.031 164.072 182.031 166.299 176.555 166.299H110.051C103.371 166.299 97.3482 163.598 93.0045 159.254H92.968C88.6244 154.874 85.9233 148.851 85.9233 142.208C85.9233 135.674 88.5149 129.761 92.749 125.418C96.3626 121.658 101.217 119.103 106.619 118.336C108.006 110.16 112.131 102.933 118.008 97.6038C124.432 91.7636 132.973 88.223 142.354 88.223C152.355 88.223 161.444 92.2746 167.978 98.8448C174.548 105.379 178.599 114.467 178.599 124.469C178.599 125.199 178.599 125.929 178.526 126.659Z" fill="#396182"/>
<path d="M171.956 128.922C172.431 127.243 174.183 126.257 175.862 126.732C177.577 127.206 178.526 128.958 178.052 130.674C178.052 130.674 177.03 135.09 174.11 140.055C173.234 141.551 171.299 142.062 169.803 141.186C168.306 140.31 167.795 138.375 168.671 136.842C171.044 132.791 171.956 128.922 171.956 128.922ZM164.036 142.646C165.35 141.478 167.357 141.624 168.489 142.975C169.62 144.289 169.474 146.26 168.16 147.428C167.795 147.72 167.467 148.012 167.211 148.231C166.883 148.486 166.518 148.742 166.153 148.997C164.729 150.019 162.758 149.691 161.736 148.267C160.75 146.844 161.079 144.873 162.503 143.851C162.722 143.668 163.014 143.486 163.269 143.267C163.561 143.011 163.817 142.829 164.036 142.646ZM197.69 310.514C199.442 310.514 200.865 311.938 200.865 313.69C200.865 315.442 199.442 316.829 197.69 316.829L151.005 316.866C149.253 316.866 147.866 315.442 147.866 313.69H147.829C147.829 283.832 157.903 274.013 168.051 264.085C174.292 257.989 180.607 251.857 184.038 240.213C187.104 229.811 187.141 220.539 187.141 211.779C187.177 193.31 187.214 177.067 212.728 156.808C214.115 155.713 216.086 155.932 217.181 157.319C218.276 158.67 218.021 160.678 216.67 161.736C193.528 180.133 193.492 194.952 193.455 211.779C193.455 220.977 193.419 230.76 190.097 242.002C186.192 255.215 179.329 261.931 172.467 268.611C163.671 277.225 154.91 285.767 154.217 310.551L197.69 310.514ZM273.539 112.277C275.291 112.277 276.714 113.701 276.714 115.453C276.714 117.205 275.291 118.628 273.539 118.628H219.882C218.13 118.628 216.707 117.205 216.707 115.453C216.707 113.701 218.13 112.277 219.882 112.277H273.539ZM292.264 316.866C290.512 316.866 289.088 315.442 289.088 313.69C289.088 311.938 290.512 310.514 292.264 310.514H339.277C338.62 285.767 329.86 277.225 321.027 268.611C314.201 261.931 307.339 255.215 303.433 242.002C300.075 230.76 300.075 220.977 300.038 211.779C300.038 194.952 300.002 180.133 276.86 161.736C275.473 160.678 275.254 158.67 276.349 157.319C277.444 155.932 279.415 155.713 280.802 156.808C306.317 177.067 306.353 193.31 306.39 211.779C306.39 220.539 306.39 229.811 309.492 240.213C312.923 251.857 319.201 257.989 325.443 264.085C335.627 274.013 345.701 283.832 345.701 313.69C345.701 315.442 344.278 316.866 342.526 316.866H292.264ZM246.747 128.739C252.587 128.739 257.843 131.112 261.639 134.908C265.435 138.74 267.808 143.997 267.808 149.8C267.808 155.604 265.435 160.86 261.639 164.656C257.843 168.489 252.587 170.825 246.747 170.825C240.943 170.825 235.687 168.489 231.891 164.656C228.058 160.86 225.722 155.604 225.722 149.8C225.722 143.997 228.058 138.704 231.891 134.908C235.687 131.112 240.943 128.739 246.747 128.739ZM257.15 139.397C254.485 136.733 250.835 135.09 246.747 135.09C242.695 135.09 239.045 136.733 236.381 139.397C233.716 142.062 232.073 145.749 232.073 149.8C232.073 153.852 233.716 157.539 236.381 160.167C239.045 162.831 242.695 164.474 246.747 164.474C250.835 164.474 254.485 162.831 257.15 160.167C259.814 157.539 261.457 153.852 261.457 149.8C261.457 145.712 259.814 142.062 257.15 139.397ZM261.968 177.103C261.968 175.826 262.99 174.803 264.267 174.803C265.508 174.803 266.53 175.826 266.53 177.103V218.422C266.53 219.663 265.508 220.685 264.267 220.685C262.99 220.685 261.968 219.663 261.968 218.422V177.103ZM261.968 228.825C261.968 227.547 262.99 226.525 264.267 226.525C265.508 226.525 266.53 227.547 266.53 228.825V236.162C266.53 237.403 265.508 238.425 264.267 238.425C262.99 238.425 261.968 237.403 261.968 236.162V228.825ZM408.118 228.971L407.607 229.008L403.555 229.373L404.212 225.357C404.285 224.773 404.395 224.08 404.431 223.35C404.504 222.693 404.504 222.036 404.504 221.306C404.504 214.371 401.694 208.092 397.168 203.566C392.605 199.004 386.327 196.193 379.392 196.193C372.894 196.193 366.981 198.675 362.528 202.69C358.039 206.778 355.009 212.473 354.425 218.86L354.133 221.634L351.359 221.744C347.38 221.853 343.803 223.532 341.212 226.197C338.657 228.862 337.05 232.475 337.05 236.454C337.05 240.542 338.73 244.228 341.394 246.893C344.022 249.558 347.709 251.2 351.797 251.2H408.629C411.695 251.2 414.506 249.959 416.513 247.952C418.521 245.944 419.762 243.17 419.762 240.067C419.762 237.001 418.521 234.227 416.513 232.22C414.506 230.212 411.695 228.971 408.629 228.971H408.118ZM410.819 222.766C414.761 223.24 418.302 225.065 420.966 227.73C424.142 230.906 426.113 235.249 426.113 240.067C426.113 244.885 424.142 249.266 420.966 252.405V252.441C417.827 255.58 413.447 257.551 408.629 257.551H351.797C345.957 257.551 340.701 255.179 336.904 251.383C333.072 247.55 330.736 242.294 330.736 236.454C330.736 230.76 332.999 225.576 336.685 221.78C339.788 218.605 343.876 216.378 348.475 215.648C349.753 208.713 353.257 202.581 358.294 198.018C363.879 192.945 371.288 189.842 379.392 189.842C388.079 189.842 395.963 193.383 401.657 199.077C407.351 204.771 410.856 212.619 410.856 221.306C410.856 221.78 410.856 222.291 410.819 222.766Z" fill="#396182"/>
<path d="M404.212 225.357C404.504 223.605 406.11 222.437 407.863 222.729C409.578 223.021 410.746 224.664 410.454 226.379C410.454 226.379 409.469 230.541 406.95 234.848C406.074 236.381 404.139 236.855 402.643 235.979C401.11 235.103 400.635 233.169 401.511 231.672C403.519 228.241 404.212 225.357 404.212 225.357ZM397.606 236.49C398.92 235.359 400.927 235.505 402.095 236.819C403.227 238.096 403.081 240.104 401.767 241.272C401.475 241.527 401.183 241.783 400.927 241.965C400.708 242.148 400.416 242.367 400.015 242.659C398.591 243.644 396.62 243.316 395.598 241.892C394.613 240.469 394.941 238.498 396.365 237.512C396.474 237.403 396.693 237.257 396.985 237.001C397.241 236.819 397.46 236.636 397.606 236.49ZM246.747 63.9863C255.398 63.9863 262.698 74.7176 268.356 88.6975C276.714 109.248 282.007 137.572 282.007 146.369V249.996C282.007 251.748 280.583 253.171 278.831 253.171C278.649 253.171 278.503 253.135 278.357 253.135H277.955C275.692 253.135 273.356 254.339 271.422 256.785C269.232 259.595 267.553 263.939 267.042 269.779C266.932 271.02 266.859 272.407 266.859 273.977L266.896 310.514H267.188V316.865H226.27C224.518 316.865 223.094 315.442 223.094 313.69V273.977C223.094 267.991 222.036 263.282 220.357 259.814C218.605 256.274 216.232 254.12 213.787 253.39C212.399 252.989 211.523 251.711 211.523 250.361V146.369C211.523 136.441 216.816 109.211 224.956 89.1355C230.723 74.9001 238.133 63.9863 246.747 63.9863ZM262.515 91.0701C257.734 79.3168 252.222 70.3375 246.747 70.3375C241.308 70.3375 235.687 79.5358 230.833 91.5081C222.985 110.89 217.875 136.952 217.875 146.369V248.244C221.05 249.85 223.934 252.806 226.014 257.04C228.131 261.311 229.445 267.005 229.445 273.977V310.551H260.581L260.544 273.977H260.508C260.508 272.407 260.581 270.801 260.727 269.232C261.384 262.041 263.537 256.566 266.458 252.879C269.049 249.558 272.298 247.587 275.656 247.003V146.369C275.656 138.01 270.546 110.927 262.515 91.0701ZM228.022 328.071C227.949 326.356 229.299 324.859 231.052 324.823C232.804 324.75 234.264 326.1 234.337 327.852C236.381 383.699 215.028 445.678 214.955 445.86C214.371 447.539 212.582 448.415 210.903 447.831C209.954 447.503 209.26 446.773 208.968 445.86C208.895 445.678 187.506 383.699 189.586 327.852C189.623 326.1 191.083 324.75 192.835 324.823C194.587 324.859 195.938 326.356 195.901 328.071C194.331 369.755 206.194 415.053 211.961 434.326C217.692 415.053 229.555 369.755 228.022 328.071Z" fill="#396182"/>
<path d="M200.865 313.69C200.865 315.442 199.442 316.829 197.69 316.829C195.937 316.829 194.55 315.442 194.55 313.69L194.477 273.977H194.441C194.441 261.238 198.748 252.952 204.26 249.193L204.479 249.083C206.778 247.55 209.333 246.783 211.925 246.783C214.553 246.783 217.145 247.623 219.554 249.229C225.102 252.989 229.445 261.311 229.445 273.977V313.799C229.445 315.551 228.022 316.975 226.27 316.975C224.518 316.975 223.094 315.551 223.094 313.799V273.977C223.094 263.647 219.992 257.15 216.013 254.449C214.662 253.573 213.275 253.098 211.925 253.098C210.574 253.098 209.26 253.5 207.983 254.339L207.837 254.449C203.895 257.113 200.792 263.574 200.792 273.977L200.865 313.69Z" fill="#396182"/>
<path d="M211.961 316.865H199.368L194.003 324.786H229.883L224.518 316.865H211.961ZM197.689 310.514H226.197C227.219 310.514 228.204 311.025 228.825 311.901L239.045 327.962C239.045 329.714 237.622 331.137 235.869 331.137H188.017C187.433 331.137 186.812 330.955 186.265 330.59C184.805 329.604 184.44 327.633 185.425 326.21L194.952 312.084L197.689 310.514ZM194.952 312.084C195.536 311.135 196.521 310.514 197.689 310.514L194.952 312.084ZM294.052 328.071C294.016 326.356 295.366 324.859 297.118 324.823C298.87 324.75 300.33 326.1 300.403 327.852C302.447 383.699 281.058 445.678 281.021 445.86C280.437 447.539 278.649 448.415 276.97 447.831C276.021 447.503 275.327 446.773 274.999 445.86C274.962 445.678 253.572 383.699 255.617 327.852C255.69 326.1 257.15 324.75 258.902 324.823C260.654 324.859 262.004 326.356 261.968 328.071C260.398 369.755 272.261 415.053 277.992 434.326C283.759 415.053 295.622 369.755 294.052 328.071ZM266.932 313.69C266.932 315.442 265.508 316.829 263.756 316.829C262.004 316.829 260.581 315.442 260.581 313.69L260.544 273.977H260.508C260.508 261.238 264.815 252.952 270.326 249.193L270.509 249.083C272.845 247.55 275.4 246.783 277.955 246.783C280.583 246.783 283.211 247.623 285.584 249.229C291.169 252.989 295.512 261.311 295.512 273.977V313.799C295.512 315.551 294.089 316.975 292.337 316.975C290.585 316.975 289.161 315.551 289.161 313.799V273.977C289.161 263.647 286.022 257.15 282.043 254.449C280.729 253.573 279.342 253.098 277.955 253.098C276.641 253.098 275.291 253.5 274.05 254.339L273.904 254.449C269.961 257.113 266.859 263.574 266.859 273.977L266.932 313.69Z" fill="#396182"/>
<path d="M265.436 316.865L260.07 324.786H295.95L290.585 316.865H277.992H265.436ZM301.937 331.137H254.084C253.5 331.137 252.879 330.955 252.332 330.59C250.872 329.604 250.47 327.633 251.456 326.21L261.019 312.084C261.566 311.135 262.588 310.514 263.756 310.514H292.264C293.286 310.514 294.271 311.025 294.892 311.901L305.112 327.962C305.112 329.714 303.324 331.137 301.572 331.137H301.937ZM317.997 327.597C317.997 325.845 319.421 324.421 321.173 324.421C322.925 324.421 324.312 325.845 324.312 327.597V356.177C324.312 357.929 322.925 359.353 321.173 359.353C319.421 359.353 317.997 357.929 317.997 356.177V327.597ZM317.997 367.857C317.997 366.105 319.421 364.682 321.173 364.682C322.925 364.682 324.312 366.105 324.312 367.857V373.588C324.312 375.34 322.925 376.764 321.173 376.764C319.421 376.764 317.997 375.34 317.997 373.588V367.857ZM332.196 327.597C332.196 325.845 333.619 324.421 335.372 324.421C337.124 324.421 338.547 325.845 338.547 327.597V340.555C338.547 342.307 337.124 343.73 335.372 343.73C333.619 343.73 332.196 342.307 332.196 340.555V327.597ZM169.182 327.597C169.182 325.845 170.606 324.421 172.358 324.421C174.11 324.421 175.533 325.845 175.533 327.597V356.177C175.533 357.929 174.11 359.353 172.358 359.353C170.606 359.353 169.182 357.929 169.182 356.177V327.597ZM169.182 367.857C169.182 366.105 170.606 364.682 172.358 364.682C174.11 364.682 175.533 366.105 175.533 367.857V373.588C175.533 375.34 174.11 376.764 172.358 376.764C170.606 376.764 169.182 375.34 169.182 373.588V367.857ZM154.983 327.597C154.983 325.845 156.407 324.421 158.159 324.421C159.911 324.421 161.335 325.845 161.335 327.597V340.555C161.335 342.307 159.911 343.73 158.159 343.73C156.407 343.73 154.983 342.307 154.983 340.555V327.597Z" fill="#396182"/>
</g>
<defs>
<clipPath id="clip0_126_2077">
<rect width="512" height="512" fill="white"/>
</clipPath>
</defs>
</svg>
