<svg viewBox="0 0 512 512" fill="none" xmlns="http://www.w3.org/2000/svg">
<path d="M117.189 337.231C117.189 339.692 116.303 341.464 114.925 342.252L74.3584 365.292C72.8814 366.178 70.9122 366.08 68.7461 364.8C64.4138 362.24 60.8691 356.135 60.8691 351.114C60.8691 348.455 61.8538 346.683 63.4291 345.994L103.7 323.151C105.078 322.264 107.146 322.363 109.312 323.643C113.645 326.203 117.189 332.209 117.189 337.231ZM287.134 240.935C287.134 243.397 286.248 245.169 284.869 245.957L244.303 268.997C242.826 269.883 240.857 269.784 238.691 268.504C234.358 265.944 230.814 259.84 230.814 254.818C230.814 252.258 231.798 250.388 233.472 249.698C233.275 249.698 233.177 249.698 233.078 249.797L273.645 226.855C275.023 225.969 277.091 226.068 279.257 227.348C283.589 229.908 287.134 235.914 287.134 240.935Z" fill="#1D2943"/>
<path d="M287.144 240.975C287.144 243.436 286.287 245.208 284.879 245.996L244.333 269.036C245.741 268.248 246.598 266.476 246.598 264.015C246.647 258.993 243.122 252.898 238.75 250.388C236.535 249.127 234.516 249.029 233.118 249.836L273.665 226.845C275.073 225.989 277.081 226.097 279.297 227.397C283.629 229.917 287.144 235.943 287.144 240.975Z" fill="#4C5C75"/>
<path d="M238.769 250.407C243.102 252.918 246.626 258.974 246.607 263.995C246.597 269.017 243.052 270.986 238.72 268.485C234.348 265.964 230.804 259.889 230.813 254.868C230.823 249.846 234.398 247.887 238.769 250.407Z" fill="#1D2943"/>
<path d="M117.179 337.26C117.179 339.722 116.323 341.484 114.915 342.282L74.3681 365.322C75.7761 364.524 76.6327 362.762 76.6327 360.3C76.6819 355.279 73.1669 349.184 68.7853 346.673C66.5798 345.413 64.5613 345.314 63.1533 346.122L103.71 323.131C105.118 322.274 107.126 322.373 109.342 323.682C113.664 326.193 117.179 332.229 117.179 337.26Z" fill="#4C5C75"/>
<path d="M68.8151 346.693C73.1475 349.194 76.6625 355.259 76.6527 360.28C76.6428 365.292 73.0982 367.271 68.7561 364.77C64.3942 362.25 60.8398 356.175 60.8595 351.153C60.8693 346.132 64.4435 344.172 68.8151 346.693Z" fill="#1D2943"/>
<path d="M289.89 43.6183C289.792 41.4521 289.004 39.9752 287.626 39.3844L267.933 28.0613C266.653 27.4706 265.078 27.4706 263.207 28.5536L26.2104 162.757C22.5673 164.824 19.7119 169.846 19.7119 173.883L20.1058 345.107C20.1058 347.077 20.8935 348.554 22.075 349.144L41.7673 360.369C42.9488 361.354 44.7211 361.354 46.7888 360.172L283.786 225.871C287.429 223.901 290.383 218.88 290.383 214.843L289.89 43.6183ZM46.2965 174.277C45.3119 174.769 43.9433 175.596 46.2965 174.178L283.293 39.9752L46.2965 174.277Z" fill="#1D2943"/>
<path d="M287.902 39.5125C286.789 38.8725 285.125 38.971 283.274 39.9654L46.3067 174.208C42.6144 176.295 39.6605 181.277 39.759 185.354L40.2218 356.549C40.2218 358.548 40.9602 359.995 42.1615 360.625L22.0753 349.174C20.8741 348.544 20.1356 347.097 20.1356 345.108L19.6729 173.903C19.6729 169.826 22.5282 164.844 26.2304 162.757L263.188 28.5143C265.029 27.5199 266.693 27.4313 267.894 28.0614L287.902 39.5125Z" fill="#4C5C75"/>
<path d="M283.284 39.9752C286.888 37.937 289.842 39.5814 289.852 43.638L290.344 214.833C290.354 218.88 287.42 223.882 283.826 225.91L46.8287 360.172C43.1857 362.24 40.222 360.596 40.2121 356.539L39.7198 185.354C39.7001 181.297 42.6441 176.295 46.2971 174.228L283.284 39.9752Z" fill="#1D2943"/>
<path d="M48.9453 185.324C49.2071 184.046 49.9028 182.898 50.9145 182.075L276.5 54.272C276.917 54.03 277.389 53.9012 277.871 53.8982C278.353 53.8953 278.828 54.0183 279.248 54.255C279.668 54.4918 280.018 54.8342 280.265 55.2482C280.512 55.6622 280.646 56.1334 280.655 56.6154L281.118 214.863C280.857 216.116 280.185 217.246 279.207 218.073L53.5632 345.895C53.1463 346.137 52.6734 346.266 52.1915 346.269C51.7095 346.272 51.2351 346.149 50.8153 345.912C50.3954 345.676 50.0447 345.333 49.7979 344.919C49.5511 344.505 49.4167 344.034 49.4081 343.552L48.9453 185.324Z" fill="white"/>
<path d="M469.78 321.575V344.714C469.78 346.191 468.894 347.569 467.023 348.554L230.026 482.757C226.482 484.825 220.574 484.825 217.029 482.757L66.1864 396.8C64.414 395.815 63.5279 394.437 63.5279 393.157V370.018C63.4294 368.64 64.3156 367.262 66.1864 366.277L303.282 231.975C306.925 229.908 312.734 229.908 316.377 231.975L467.122 317.932C468.894 318.917 469.78 320.295 469.78 321.575Z" fill="#DEDFFB"/>
<path d="M469.78 344.733C469.78 346.181 468.854 347.539 467.013 348.534L230.046 482.776C226.442 484.864 220.534 484.864 217.029 482.776L66.1861 396.819C64.4335 395.815 63.508 394.456 63.508 393.186L63.4883 370.038C63.4883 371.298 64.404 372.657 66.1664 373.661L217.01 459.618C220.603 461.706 226.413 461.706 230.016 459.618L466.984 325.376C468.825 324.381 469.75 322.934 469.75 321.575L469.78 344.733Z" fill="#DEDFFB"/>
<path d="M467.033 325.396L229.977 459.658C226.413 461.716 220.535 461.716 216.98 459.658C179.398 438.232 87.0111 385.516 66.2062 373.642C62.5336 371.584 62.6419 368.295 66.2062 366.237L303.262 231.975C306.935 229.917 312.705 229.917 316.367 231.975C311.848 229.405 380.899 268.8 467.142 317.981C470.706 319.941 470.706 323.338 467.033 325.396Z" fill="#F8F9FE"/>
<path d="M242.452 384.719C241.624 385.181 241.546 385.93 242.442 386.432L287.951 412.761C288.837 413.273 290.215 413.273 291.042 412.8L380.199 362.289C381.095 361.777 381.105 361.009 380.199 360.487L334.71 334.169C334.228 333.924 333.695 333.799 333.154 333.806C332.614 333.813 332.084 333.951 331.609 334.208L242.452 384.719ZM399.36 279.355L150.154 421.533L74.7617 378.516L323.978 236.337L399.36 279.355Z" fill="#E9E7FC"/>
<path d="M286.908 302.848C286.081 303.311 286.071 304.098 286.898 304.561L296.911 310.272C297.383 310.504 297.902 310.625 298.428 310.625C298.953 310.625 299.472 310.504 299.944 310.272L310.716 304.167C311.612 303.675 311.612 302.887 310.794 302.415L300.781 296.704C300.297 296.468 299.764 296.348 299.225 296.355C298.687 296.362 298.157 296.495 297.679 296.743L286.908 302.848ZM186.142 317.755C185.246 318.267 185.305 319.006 186.201 319.518L196.146 325.189C197.032 325.701 198.273 325.701 199.169 325.189L209.95 319.084C210.836 318.582 210.915 317.834 210.029 317.322L200.084 311.65C199.594 311.399 199.05 311.268 198.499 311.268C197.948 311.268 197.404 311.399 196.914 311.65L186.142 317.755ZM161.586 397.794C160.759 398.267 160.69 399.006 161.586 399.518L171.53 405.189C172.007 405.436 172.535 405.568 173.072 405.575C173.608 405.582 174.139 405.463 174.622 405.228L185.463 399.084C186.3 398.622 186.3 397.834 185.404 397.332L175.459 391.65C174.99 391.409 174.47 391.283 173.943 391.283C173.415 391.283 172.895 391.409 172.426 391.65L161.586 397.794ZM307.555 293.031C306.728 293.504 306.718 294.282 307.545 294.754L317.559 300.465C318.031 300.697 318.549 300.818 319.075 300.818C319.601 300.818 320.12 300.697 320.591 300.465L331.422 294.321C332.259 293.858 332.259 293.071 331.442 292.608L321.419 286.897C320.948 286.667 320.431 286.547 319.907 286.547C319.383 286.547 318.866 286.667 318.396 286.897L307.555 293.031ZM347.609 292.411C346.782 292.874 346.713 293.622 347.609 294.134L357.554 299.806C358.031 300.052 358.558 300.185 359.095 300.191C359.632 300.198 360.163 300.08 360.646 299.845L371.486 293.701C372.313 293.228 372.323 292.45 371.427 291.938L361.483 286.267C361.013 286.026 360.494 285.9 359.966 285.9C359.439 285.9 358.919 286.026 358.45 286.267L347.609 292.411ZM326.972 304.108C326.135 304.571 326.066 305.319 326.962 305.822L336.906 311.503C337.383 311.75 337.911 311.882 338.448 311.889C338.984 311.895 339.515 311.777 339.998 311.542L350.839 305.398C351.676 304.926 351.676 304.148 350.78 303.636L340.835 297.964C340.368 297.724 339.849 297.599 339.324 297.599C338.798 297.599 338.28 297.724 337.812 297.964L326.972 304.108ZM289.438 259.23C288.611 259.702 288.611 260.49 289.497 261.002L299.442 266.663C300.328 267.175 301.647 267.136 302.474 266.663L313.305 260.529C314.142 260.057 314.221 259.308 313.325 258.806L303.38 253.135C302.902 252.886 302.373 252.753 301.834 252.746C301.296 252.74 300.763 252.859 300.279 253.095L289.438 259.23ZM268.801 270.927C267.964 271.399 267.964 272.187 268.85 272.699L278.794 278.361C279.69 278.873 281 278.833 281.827 278.361L292.668 272.217C293.495 271.754 293.574 271.006 292.678 270.503L282.733 264.832C282.255 264.583 281.725 264.45 281.187 264.444C280.648 264.437 280.115 264.556 279.631 264.793L268.801 270.927Z" fill="#4C5C75"/>
<path d="M288.207 281.994C287.38 282.466 287.301 283.215 288.197 283.727L298.211 289.437C298.683 289.67 299.201 289.791 299.727 289.791C300.253 289.791 300.772 289.67 301.244 289.437L320.365 278.607L338.206 288.768C338.676 288.998 339.193 289.118 339.717 289.118C340.241 289.118 340.758 288.998 341.229 288.768L352.069 282.624C352.906 282.161 352.906 281.373 352.089 280.911L322.728 264.162C322.259 263.921 321.739 263.794 321.212 263.794C320.684 263.794 320.164 263.921 319.695 264.162L288.207 281.994ZM248.143 282.624C247.316 283.097 247.316 283.874 248.202 284.396L258.147 290.058C259.043 290.57 260.352 290.53 261.18 290.058L271.951 283.953C272.847 283.451 272.926 282.703 272.03 282.201L262.085 276.519C261.595 276.268 261.051 276.137 260.5 276.137C259.949 276.137 259.405 276.268 258.915 276.519L248.143 282.624ZM267.56 293.701C266.733 294.164 266.723 294.951 267.56 295.424L277.564 301.135C278.035 301.367 278.554 301.487 279.08 301.487C279.606 301.487 280.124 301.367 280.596 301.135L291.368 295.03C292.264 294.518 292.274 293.74 291.447 293.268L281.433 287.557C280.949 287.321 280.416 287.201 279.878 287.208C279.339 287.215 278.809 287.348 278.332 287.596L267.56 293.701ZM227.437 294.361C226.6 294.833 226.6 295.611 227.486 296.133L237.431 301.794C238.327 302.306 239.636 302.267 240.463 301.794L251.304 295.65C252.131 295.188 252.21 294.439 251.314 293.937L241.369 288.266C240.893 288.017 240.366 287.883 239.829 287.875C239.292 287.866 238.761 287.983 238.277 288.217L227.437 294.361ZM246.844 305.428C246.016 305.9 246.016 306.688 246.844 307.151L256.847 312.861C257.319 313.094 257.838 313.215 258.364 313.215C258.889 313.215 259.408 313.094 259.88 312.861L270.72 306.727C271.548 306.255 271.557 305.477 270.73 305.004L260.717 299.293C260.245 299.061 259.726 298.94 259.2 298.94C258.675 298.94 258.156 299.061 257.684 299.293L246.844 305.428ZM206.789 306.058C205.952 306.53 205.952 307.308 206.848 307.82L216.793 313.492C217.679 314.004 218.989 313.964 219.816 313.492L230.656 307.348C231.493 306.885 231.562 306.137 230.666 305.634L220.722 299.953C220.245 299.706 219.717 299.574 219.18 299.567C218.644 299.56 218.113 299.679 217.63 299.914L206.789 306.058ZM266.191 316.465C265.364 316.938 265.354 317.716 266.181 318.188L276.195 323.899C276.667 324.131 277.185 324.252 277.711 324.252C278.237 324.252 278.756 324.131 279.228 323.899L290.058 317.755C290.895 317.292 290.895 316.505 290.078 316.032L280.064 310.321C279.593 310.089 279.074 309.969 278.548 309.969C278.022 309.969 277.504 310.089 277.032 310.321L266.191 316.465ZM226.196 317.135C225.369 317.597 225.369 318.385 226.196 318.848L236.21 324.559C236.68 324.789 237.197 324.909 237.721 324.909C238.245 324.909 238.762 324.789 239.232 324.559L250.073 318.425C250.9 317.952 250.91 317.174 250.083 316.701L240.069 310.991C239.598 310.758 239.079 310.637 238.553 310.637C238.027 310.637 237.508 310.758 237.037 310.991L226.196 317.135ZM245.544 328.172C244.717 328.635 244.717 329.413 245.544 329.885L255.548 335.596C256.019 335.829 256.538 335.95 257.064 335.95C257.59 335.95 258.109 335.829 258.58 335.596L269.421 329.452C270.248 328.989 270.258 328.202 269.431 327.729L259.417 322.018C258.945 321.786 258.427 321.665 257.901 321.665C257.375 321.665 256.856 321.786 256.384 322.018L245.544 328.172ZM205.559 328.832C204.653 329.334 204.722 330.082 205.539 330.545L215.562 336.256C216.03 336.496 216.548 336.621 217.074 336.621C217.599 336.621 218.117 336.496 218.585 336.256L229.357 330.151C230.253 329.649 230.263 328.871 229.436 328.399L219.422 322.688C218.938 322.452 218.405 322.333 217.867 322.34C217.328 322.347 216.799 322.48 216.32 322.727L205.559 328.832ZM224.896 339.86C224.01 340.372 224.069 341.11 224.896 341.583L234.9 347.293C235.369 347.535 235.889 347.661 236.416 347.661C236.944 347.661 237.464 347.535 237.933 347.293L248.704 341.189C249.6 340.677 249.61 339.899 248.783 339.426L238.77 333.716C238.285 333.48 237.753 333.361 237.214 333.368C236.676 333.375 236.146 333.507 235.668 333.755L224.896 339.86ZM184.842 340.559C184.005 341.031 184.005 341.819 184.832 342.282L194.846 347.993C195.316 348.223 195.833 348.343 196.357 348.343C196.881 348.343 197.398 348.223 197.869 347.993L208.709 341.858C209.546 341.386 209.546 340.598 208.719 340.135L198.706 334.425C198.235 334.194 197.718 334.074 197.194 334.074C196.67 334.074 196.153 334.194 195.683 334.425L184.842 340.559ZM204.18 351.596C203.353 352.069 203.353 352.847 204.18 353.319L214.194 359.03C214.664 359.261 215.181 359.38 215.705 359.38C216.229 359.38 216.746 359.261 217.216 359.03L228.057 352.886C228.884 352.413 228.894 351.636 228.067 351.163L218.053 345.452C217.582 345.22 217.063 345.098 216.537 345.098C216.011 345.098 215.492 345.22 215.021 345.452L204.18 351.596ZM124.131 352.886C123.235 353.398 123.225 354.176 124.131 354.688L134.076 360.359C134.962 360.871 136.271 360.832 137.167 360.32L147.939 354.215C148.835 353.703 148.914 352.965 148.018 352.453L138.073 346.781C137.582 346.53 137.039 346.399 136.488 346.399C135.937 346.399 135.393 346.53 134.903 346.781L124.131 352.886ZM103.415 364.623C102.588 365.095 102.578 365.873 103.474 366.385L113.418 372.057C114.314 372.559 115.624 372.529 116.451 372.057L127.292 365.913C128.119 365.44 128.197 364.701 127.301 364.189L117.357 358.518C116.879 358.27 116.349 358.137 115.811 358.13C115.272 358.123 114.739 358.242 114.255 358.479L103.415 364.623ZM202.949 374.361C202.122 374.833 202.053 375.572 202.949 376.084L212.894 381.755C213.78 382.267 215.159 382.267 215.986 381.794L330.142 317.145C331.028 316.633 331.038 315.855 330.142 315.343L320.197 309.671C319.717 309.428 319.185 309.305 318.647 309.311C318.108 309.318 317.58 309.455 317.106 309.711L202.949 374.361ZM122.831 375.69C122.004 376.162 121.994 376.95 122.821 377.413L132.835 383.124C133.306 383.356 133.825 383.477 134.351 383.477C134.877 383.477 135.396 383.356 135.868 383.124L167.356 365.292C168.242 364.78 168.252 363.993 167.434 363.52L157.411 357.809C156.927 357.576 156.396 357.459 155.859 357.468C155.322 357.476 154.795 357.61 154.319 357.858L122.831 375.69ZM142.179 386.727C141.352 387.2 141.342 387.978 142.169 388.45L152.183 394.161C152.654 394.393 153.173 394.514 153.699 394.514C154.225 394.514 154.743 394.393 155.215 394.161L207.41 364.583C208.247 364.111 208.247 363.333 207.42 362.86L197.406 357.149C196.935 356.92 196.418 356.8 195.895 356.8C195.371 356.8 194.854 356.92 194.383 357.149L142.179 386.727ZM165.416 329.492C164.599 329.964 164.589 330.742 165.485 331.254L175.429 336.925C176.316 337.437 177.625 337.398 178.462 336.925L189.293 330.781C190.13 330.309 190.199 329.57 189.312 329.058L179.368 323.387C178.89 323.139 178.36 323.005 177.822 322.999C177.283 322.992 176.75 323.111 176.266 323.348L165.416 329.492ZM164.195 352.256C163.368 352.729 163.358 353.516 164.185 353.979L174.199 359.69C174.67 359.922 175.189 360.044 175.715 360.044C176.241 360.044 176.76 359.922 177.231 359.69L188.062 353.556C188.899 353.083 188.899 352.295 188.072 351.833L178.058 346.122C177.588 345.892 177.071 345.773 176.547 345.773C176.023 345.773 175.506 345.892 175.036 346.122L164.195 352.256ZM144.778 341.189C143.951 341.661 143.941 342.439 144.837 342.951L154.782 348.623C155.668 349.135 156.988 349.095 157.815 348.623L168.645 342.479C169.482 342.006 169.551 341.268 168.665 340.756L158.72 335.084C158.243 334.836 157.713 334.703 157.174 334.696C156.636 334.689 156.103 334.809 155.619 335.045L144.778 341.189ZM182.302 386.068C181.416 386.56 181.337 387.308 182.223 387.82L192.168 393.492C193.064 394.004 194.442 394.004 195.338 393.492L206.11 387.387C207.006 386.885 207.016 386.107 206.12 385.595L196.175 379.914C195.694 379.669 195.16 379.544 194.62 379.551C194.079 379.558 193.549 379.696 193.074 379.953L182.302 386.068Z" fill="#4C5C75"/>
<path d="M91.077 393.866L91.0475 406.951L69.957 395.008L69.9964 381.913L91.077 393.866Z" fill="#F8F9FE"/>
<path d="M71.4631 384.414L71.4336 394.171L71.4828 394.201L80.0982 389.317L71.4631 384.414Z" fill="#4C5C75"/>
<path d="M71.4834 394.201L89.5708 404.441L89.6102 394.693L80.0988 389.317L71.4834 394.201Z" fill="#1D2943"/>
<path d="M122.211 411.54L122.172 424.625L101.081 412.672L101.12 399.586L122.211 411.54Z" fill="#F8F9FE"/>
<path d="M102.587 402.087L102.558 411.835L102.607 411.874L111.222 406.981L102.587 402.087Z" fill="#4C5C75"/>
<path d="M102.597 411.865L120.694 422.124L120.733 412.377L111.222 406.981L102.597 411.865Z" fill="#1D2943"/>
<path d="M252.721 88.6843L230.705 126.838L230.617 164.352C203.737 178.471 190.474 148.283 209.723 114.944C218.171 100.303 237.322 81.7625 252.721 88.6843Z" fill="#57B3FE"/>
<path d="M230.706 126.927L253.844 140.78C247.021 152.448 238.337 160.335 230.617 164.352L230.706 126.927Z" fill="#F3F1FC"/>
<path d="M254.188 140.248L253.844 140.78L230.705 126.927V126.838L252.721 88.6841C268.938 95.9702 264.143 122.998 254.188 140.248Z" fill="#FEBC1F"/>
<path d="M207.872 191.508L208.029 247L195.033 254.503L194.875 199.01L207.872 191.508Z" fill="#DBA660"/>
<path d="M228.431 200.172L228.529 235.165L215.532 242.668L215.434 207.685L228.431 200.172Z" fill="#57B3FE"/>
<path d="M248.852 167.857L249.01 223.34L236.013 230.843L235.855 175.35L248.852 167.857Z" fill="#F45170"/>
<path d="M269.391 176.542L269.49 211.525L256.493 219.028L256.395 184.034L269.391 176.542Z" fill="#4C5C75"/>
<path d="M105.256 211.436C118.715 203.658 130.57 207.665 133.357 221.44C132.077 223.803 130.678 226.117 129.201 228.352C123.028 237.647 114.856 246.331 105.364 251.805C95.124 257.713 85.8489 258.452 79.0255 254.897C78.953 254.858 78.8808 254.819 78.8089 254.779L78.5135 254.621C74.6046 252.406 85.3369 222.936 105.256 211.436ZM105.197 176.128C112.443 171.943 118.371 175.271 118.39 183.65C118.42 192.029 112.532 202.181 105.285 206.365C97.94 210.599 92.0126 207.281 91.9929 198.902C91.9633 190.523 97.8513 180.372 105.197 176.128Z" fill="#F45170"/>
<path d="M105.118 163.998C126.189 151.828 143.361 161.615 143.42 185.826C143.469 199.71 137.906 215.286 129.202 228.362C130.679 226.117 132.077 223.803 133.357 221.44C130.57 207.655 118.716 203.658 105.246 211.436C85.5046 222.838 74.5951 252.406 78.5139 254.622C71.4739 250.722 67.0923 242.166 67.0529 229.918C66.984 205.706 83.9883 176.187 105.118 163.998ZM105.286 206.366C112.532 202.181 118.42 192.039 118.401 183.65C118.381 175.262 112.444 171.943 105.197 176.128C97.8517 180.362 91.9637 190.523 91.9834 198.902C92.0129 207.281 97.9502 210.609 105.286 206.366Z" fill="#F3F1FC"/>
<path d="M91.6976 304.384V311.906L177.871 262.164V254.631L91.6976 304.384ZM82.5111 309.681L60.7314 322.265L60.7511 329.787L82.5308 317.213L82.5111 309.681Z" fill="#DEDFFB"/>
<path d="M159.468 247.631L60.6719 304.669L60.6916 312.251L159.468 255.222V247.631Z" fill="#78E75A"/>
<path d="M177.871 219.441L60.623 287.133L60.6427 294.656L177.871 226.973V219.441Z" fill="#DEDFFB"/>
<path d="M397.213 230.892L370.53 246.252L343.847 230.794L343.552 176.443L370.235 161.083L396.918 176.541L397.213 230.892Z" fill="#5EC363"/>
<path d="M343.562 176.463L343.858 230.784L370.521 246.282L370.226 191.951L343.562 176.463Z" fill="#5EC363"/>
<path d="M370.216 191.951L370.511 246.282L397.224 230.853L396.928 176.531L370.216 191.951Z" fill="#72D561"/>
<path d="M343.562 176.463L370.226 191.951L396.938 176.532L370.275 161.044L343.562 176.463Z" fill="#78E75A"/>
<path d="M444.771 258.461L418.088 273.92L391.405 258.363L391.109 152.911L417.792 137.452L444.476 152.911L444.771 258.461Z" fill="#F9A83D"/>
<path d="M391.09 152.871L391.385 258.402L418.049 273.9L417.753 168.359L391.09 152.871Z" fill="#F9A83D"/>
<path d="M417.753 168.369L418.048 273.9L444.761 258.481L444.466 152.94L417.753 168.369Z" fill="#FEBC1F"/>
<path d="M391.09 152.871L417.753 168.359L444.466 152.94L417.802 137.452L391.09 152.871Z" fill="#FFD06C"/>
<path d="M492.328 286.129L465.546 301.489L438.961 286.031L438.666 142.375L465.349 126.917L492.032 142.375L492.328 286.129Z" fill="#E93565"/>
<path d="M438.627 142.346L438.922 286.031L465.576 301.519L465.28 157.844L438.627 142.346Z" fill="#DF3260"/>
<path d="M465.28 157.834L465.576 301.519L492.288 286.1L491.993 142.425L465.28 157.834Z" fill="#E93565"/>
<path d="M438.627 142.346L465.28 157.844L491.993 142.425L465.34 126.927L438.627 142.346Z" fill="#F45170"/>
</svg>
