<svg  viewBox="0 0 512 512" fill="none" xmlns="http://www.w3.org/2000/svg">
<path d="M379.279 383.993C384.069 380.555 394.357 375.673 401.821 373.482C409.296 371.288 410.686 361.267 409.446 356.385C408.203 351.495 380.482 359.395 380.482 359.395C380.482 359.395 359.958 366.548 358.689 377.541C357.731 385.843 374.491 387.434 379.279 383.993Z" fill="#B0B8CF"/>
<path d="M409.37 273.657C406.323 283.75 414.197 303.258 412.061 314.895C409.922 326.488 409.765 361.161 409.765 361.161C407.153 364.88 400.267 366.742 393.775 366.859C386.849 367.056 380.438 365.275 380.357 361.637C381.272 343.314 386.414 310.305 380.321 287.111C374.224 263.881 380.321 218.05 380.321 218.05L396.467 222.998L417.997 229.566L423.855 231.347L421.756 237.363C418.275 247.179 411.626 266.291 409.37 273.657Z" fill="#435268"/>
<path d="M412.061 314.894C409.922 326.488 409.764 361.161 409.764 361.161C407.153 364.88 400.267 366.742 393.775 366.859C398.01 362.507 400.029 357.518 400.505 350.753C401.455 337.733 398.091 324.827 396.782 311.808C396.189 305.993 395.992 300.094 395.875 294.235C395.359 273.024 395.319 251.728 395.754 230.517C395.834 228.023 395.911 225.412 396.467 222.998L417.997 229.566C419.383 232.1 420.608 234.671 421.756 237.363C418.275 247.179 411.626 266.291 409.369 273.657C406.323 283.75 414.197 303.257 412.061 314.894Z" fill="#3B4B5E"/>
<path d="M469.376 404.429C469.376 404.429 469.705 423.702 461.678 430.449C453.647 437.193 433.188 434.849 435.156 426.785C437.116 418.724 448.391 404.184 448.391 404.184L469.376 404.429Z" fill="#B0B8CF"/>
<path d="M469.764 405.723C469.764 409.051 463.631 410.551 457.93 410.317C452.985 410.119 448.392 408.576 448.392 405.723C443.919 370.779 432.798 339.511 424.767 316.24C421.479 306.703 421.837 295.899 419.541 286.043L408.064 222.482L437.548 227.547L454.92 230.517L459.791 307.573C469.885 333.063 469.647 371.054 469.764 405.723Z" fill="#4C5C75"/>
<path d="M469.764 405.723C469.764 409.051 463.631 410.551 457.929 410.317C459.593 408.101 460.383 405.723 460.858 402.834C463.59 387.913 457.732 373.036 453.654 358.945C449.657 345.253 446.969 331.202 444.277 317.191C443.363 312.4 442.416 307.61 441.505 302.822C440.517 297.68 439.53 292.535 438.934 287.309C438.221 280.74 438.14 274.132 438.064 267.56C437.866 254.182 437.745 240.885 437.548 227.551L454.919 230.513L459.791 307.573C469.884 333.063 469.647 371.054 469.764 405.723Z" fill="#3B4B5E"/>
<path d="M490.277 227.474C490.203 230.327 489.509 231.278 488.777 231.497H488.741C488.082 231.68 486.4 231.278 486.034 230.985C485.888 230.875 485.778 230.802 485.778 230.802C486.97 233.79 489.604 241.869 486.546 242.944C483.145 244.078 480.878 243.895 480.549 243.895L480.512 243.858C480.512 243.858 479.049 250.295 474.441 247.369C474.441 247.369 468.187 250.149 465.152 246.309C465.152 246.309 457.509 244.005 460.105 240.969C461.458 239.36 462.958 238.994 464.055 238.994C465.006 238.994 465.664 239.25 465.737 239.287V239.25L465.701 239.104L465.591 238.629C464.432 233.706 463.813 225.733 467.712 222.464L466.578 217.307C464.567 207.945 460.617 188.526 461.312 183.406C461.934 178.651 459.995 168.96 458.715 163.438C458.13 160.914 457.691 159.269 457.691 159.269L459.227 159.525L461.861 159.963L480.512 163.109C480.512 163.109 484.645 199.424 482.194 221.623C482.194 221.623 490.423 221.074 490.277 227.474Z" fill="#F4D6D4"/>
<path d="M460.094 240.969C458.182 243.405 462.373 245.076 465.298 246.082L465.357 246.151C466.399 247.369 467.957 247.987 469.574 248.002C471.764 248.053 473.436 247.325 474.482 246.992C475.835 247.746 476.998 248.199 478.219 247.259C479.236 246.447 479.854 245.109 480.245 243.822L480.318 243.576L480.501 243.613L480.633 243.642L480.571 243.628C482.363 243.785 484.696 243.394 486.418 242.896C487.062 242.765 487.541 242.216 487.75 241.58C487.6 242.223 487.146 242.849 486.47 243.054C482.823 244.425 480.86 244.121 480.468 244.14H480.505L480.761 243.939C480.183 246.243 478.779 248.675 476.409 248.451C475.604 248.415 474.917 248.046 474.262 247.691L474.599 247.713C471.351 249.04 467.028 249.304 464.925 246.495L465.061 246.586C462.055 245.526 457.929 243.28 460.094 240.969ZM461.316 183.387C460.402 190.255 467.73 222.482 467.73 222.482C469.702 221.352 472.466 220.69 475.491 220.185C475.491 220.185 469.625 205.118 467.683 198.835C465.726 192.545 470.737 181.105 470.737 181.105C470.737 181.105 473.121 176.216 469.212 174.541C465.298 172.866 463.909 162.955 463.909 162.955L461.842 159.949L459.213 159.51L458.712 163.423C459.985 168.967 461.952 178.644 461.316 183.387Z" fill="#F5C9C6"/>
<path d="M487.498 236.288C486.474 236.069 484.535 235.557 482.597 235.045C482.634 231.826 481.939 227.145 481.793 226.048C482.487 228.315 485.779 230.802 485.779 230.802C485.852 231.022 486.876 233.545 487.498 236.288ZM351.649 131.365L372.897 122.84L370.912 108.01L351.649 131.365Z" fill="#F5C9C6"/>
<path d="M366.029 108.507C367.784 116.612 370.33 125.107 371.595 124.818L387.976 117.54L388.005 117.526L387.968 117.577C387.628 118.082 386.674 121.457 386.674 143.345C386.674 170.035 378.12 217.695 378.12 217.695C395.242 236.668 416.165 239.971 438.927 235.688C444.687 234.617 450.564 233.051 456.529 231.139L453.888 166.978C454.876 173.447 484.447 168.927 483.46 162.457C483.46 162.457 482.396 127.667 477.298 112.596C472.214 97.5213 446.139 85.5075 446.139 85.5075C391.563 61.6813 365.477 94.0835 364.676 94.2701C363.564 94.5187 364.493 101.365 366.029 108.507Z" fill="#8FABFE"/>
<path d="M435.738 183.771C439.114 199.654 439.015 228.151 438.931 235.348C444.683 234.273 450.561 232.711 456.525 230.791L453.885 166.634L451.654 125.221C451.654 125.221 431.854 165.537 435.738 183.771ZM366.029 108.507C367.785 116.612 370.33 125.107 371.595 124.818L387.976 117.541C388.071 116.641 389.896 100.293 391.011 96.2194C392.13 92.1599 398.501 81.7371 398.925 81.0386C398.285 81.8029 387.939 94.1897 382.519 101.815C376.924 109.678 370.663 108.222 370.663 108.222L366.029 108.507Z" fill="#678AEE"/>
<path d="M401.43 50.4391L392.843 60.3207L391.743 74.5909C391.743 74.5909 387.146 76.5109 384.651 82.4062C382.157 88.3052 358.254 148.856 341.987 127.009C334.706 117.156 357.976 93.7653 357.976 93.7653L379.784 71.603C379.784 71.603 382.366 50.8268 394.434 46.3541C397.561 45.2057 400.995 47.1148 401.43 50.4391Z" fill="#F4D6D4"/>
<path d="M414.632 52.9261L393.102 77.3851C393 77.4974 392.866 77.5769 392.718 77.6139C392.571 77.6508 392.416 77.6435 392.272 77.5928C392.129 77.5421 392.003 77.4503 391.912 77.3288C391.82 77.2073 391.766 77.0616 391.757 76.9097L391.164 62.6285C391.164 62.1165 391.321 61.6009 391.676 61.2023L411.465 38.4475L414.632 52.9261Z" fill="#1D2943"/>
<path d="M413.349 92.6901C412.555 96.7825 414.373 101.621 416.165 105.183C416.165 105.183 435.156 109.433 445.422 95.0344L444.39 88.8757L443.074 81.1445C443.074 81.1445 441.158 82.6147 438.056 84.4286C432.655 87.7054 423.782 92.2549 415.393 92.628C415.334 92.6243 413.495 92.7011 413.349 92.6901Z" fill="#F5C9C6"/>
<path d="M443.063 81.1774C443.063 81.1774 441.176 82.622 438.035 84.414C432.659 87.7017 423.761 92.2512 415.382 92.6316C415.346 92.6316 415.185 92.6901 415.031 92.6791C412.574 92.7705 410.101 92.595 407.885 91.6368C397.221 87.0325 404.199 46.8222 409.037 41.8448C409.187 41.6845 409.367 41.5564 409.568 41.4681C415.039 38.8423 423.512 46.2041 434.495 50.7207C435.639 51.1998 436.477 51.6935 437.216 52.4469C443.561 58.2837 435.643 71.4201 435.643 71.4201L438.872 71.6981C438.872 71.6981 445.561 59.9513 449.708 65.0969C453.896 70.2096 443.063 81.1774 443.063 81.1774Z" fill="#F4D6D4"/>
<path d="M445.008 92.5695L443.074 81.1482C443.074 81.1482 453.91 70.2097 449.719 65.1226C445.561 59.9514 438.879 71.7201 438.879 71.7201L435.617 71.4349C435.617 71.4349 443.564 58.3094 437.208 52.447C424.971 53.8769 415.239 47.722 409.029 41.8742C404.03 37.2735 401.331 32.9032 401.331 32.9032C412.727 33.3933 420.407 20.6628 439.413 22.0415C460.793 23.5994 460.39 42.5544 460.39 42.5544C471.278 54.6449 445.008 92.5695 445.008 92.5695Z" fill="#1D2943"/>
<path d="M429.276 398.299C429.276 400.384 427.922 402.432 425.253 404.005L280.174 487.79C274.798 490.862 266.057 490.789 260.791 487.717L25.7831 351.195C23.1499 349.659 21.7968 347.648 21.7968 345.6L21.7236 333.093C21.7236 333.787 21.9065 334.519 22.3088 335.214C20.9556 332.544 22.1259 329.545 25.7831 327.424L170.862 243.675C176.201 240.567 184.942 240.567 190.281 243.675L425.289 380.233C427.959 381.806 429.276 383.854 429.239 385.938L429.276 398.299Z" fill="#9EA9C9"/>
<path d="M21.7236 333.093L21.7858 345.607C21.7858 347.633 23.1353 349.659 25.7721 351.192L260.791 487.72C266.065 490.792 274.78 490.851 280.181 487.782L425.238 404.023C427.937 402.428 429.287 400.402 429.287 398.318L429.228 385.861C429.228 387.888 427.875 389.972 425.242 391.508L280.119 475.264C274.78 478.336 266.002 478.336 260.729 475.264L25.7757 338.673C23.0731 337.137 21.7236 335.119 21.7236 333.093Z" fill="#9EA9C9"/>
<path d="M25.7758 327.442C20.4108 330.54 20.3815 335.561 25.7538 338.684L260.729 475.238C266.021 478.31 274.772 478.358 280.137 475.26L425.209 391.501C430.578 388.403 430.567 383.312 425.275 380.237L190.296 243.683C184.927 240.563 176.216 240.585 170.851 243.683L25.7758 327.442Z" fill="#4C5C75"/>
<path d="M32.4138 331.491C30.6145 332.529 30.6035 334.204 32.3553 335.221L256.549 465.51C258.305 466.527 261.194 466.527 262.993 465.485L408.028 381.751C409.791 380.734 409.802 379.059 408.05 378.042L183.852 247.753C182.104 246.736 179.211 246.736 177.452 247.753L32.4138 331.491Z" fill="white"/>
<path d="M54.8245 358.784C56.3752 359.68 57.604 361.808 57.5966 363.586C57.593 365.301 56.3532 366.007 54.8063 365.111L41.5893 357.478C40.0972 356.619 38.8684 354.49 38.8721 352.775C38.8757 350.998 40.1155 350.288 41.604 351.151L54.8245 358.784ZM77.8792 372.096C79.4005 372.974 80.6293 375.102 80.622 376.879C80.622 378.595 79.3786 379.3 77.8609 378.423L64.644 370.79C63.1226 369.913 61.8938 367.784 61.9011 366.073C61.9011 364.291 63.1409 363.586 64.6622 364.463L77.8792 372.096Z" fill="#4C5C75"/>
<path d="M359.527 418.948C362.398 420.604 362.38 423.311 359.527 424.971L338.188 437.369C335.335 439.025 330.701 439.025 327.831 437.369C324.923 435.69 324.941 433.028 327.794 431.371L349.134 418.97C351.986 417.313 356.62 417.269 359.527 418.948Z" fill="#9EA9C9"/>
<path d="M343.395 352.717C346.266 354.374 346.244 357.08 343.395 358.737L322.055 371.134C319.203 372.791 314.569 372.791 311.698 371.134C308.791 369.456 308.813 366.793 311.662 365.136L333.001 352.739C335.854 351.078 340.487 351.038 343.395 352.717Z" fill="#F45170"/>
<path d="M250.204 406.872C253.075 408.528 253.057 411.235 250.241 412.869L228.868 425.289C226.016 426.946 221.379 426.946 218.511 425.289C215.604 423.611 215.622 420.948 218.475 419.291L239.847 406.872C242.663 405.233 247.297 405.189 250.204 406.872Z" fill="#78E75A"/>
<path d="M382.146 381.418L361.3 393.53L356.056 390.502L376.901 378.39L382.146 381.418Z" fill="#D4DAEA"/>
<path d="M346.331 402.231L334.16 409.307L328.916 406.279L341.087 399.203L346.331 402.231Z" fill="#DBA660"/>
<path d="M358.898 367.996L338.052 380.109L332.768 377.059L353.613 364.946L358.898 367.996Z" fill="#D4DAEA"/>
<path d="M370.52 374.711L347.773 387.928L342.528 384.9L365.276 371.679L370.52 374.711Z" fill="#B28AFD"/>
<path d="M335.719 381.466L324.674 387.884L319.393 384.834L330.438 378.416L335.719 381.466ZM323.083 388.809L310.912 395.882L305.628 392.832L317.799 385.759L323.083 388.809ZM346.061 388.923L327.98 399.429L322.736 396.401L340.817 385.894L346.061 388.923ZM309.043 396.968L285.363 410.73L280.079 407.68L303.759 393.918L309.043 396.968ZM325.8 400.695L302.08 414.482L296.836 411.454L320.556 397.667L325.8 400.695ZM332.292 410.39L308.612 424.152L303.368 421.124L327.048 407.362L332.292 410.39ZM273.072 431.338L252.226 443.45L246.985 440.422L267.827 428.31L273.072 431.338ZM300.215 415.565L288.081 422.616L282.836 419.588L294.971 412.537L300.215 415.565ZM286.45 423.567L275.442 429.959L270.197 426.931L281.205 420.538L286.45 423.567ZM306.396 425.439L275.793 443.224L270.548 440.196L301.151 422.411L306.396 425.439Z" fill="#D4DAEA"/>
<path d="M283.147 412.017L256.852 427.297L251.571 424.247L277.862 408.967L283.147 412.017Z" fill="#8FABFE"/>
<path d="M250.833 430.797L240.604 436.74L235.319 433.69L245.548 427.747L250.833 430.797ZM274.081 444.218L263.852 450.161L258.608 447.137L268.837 441.19L274.081 444.218ZM358.971 394.887L347.926 401.306L342.682 398.277L353.727 391.859L358.971 394.887Z" fill="#D4DAEA"/>
<path d="M321.408 347.571L206.146 414.244C201.878 416.731 194.97 416.731 190.702 414.244L56.3639 336.172C52.0997 333.721 52.1326 329.71 56.4005 327.226L171.663 260.549C175.96 258.099 182.839 258.099 187.103 260.549L321.441 338.622C325.709 341.109 325.676 345.088 321.408 347.571Z" fill="#C9CEE2"/>
<path d="M305.324 342.923L168.887 263.636C168.303 263.31 167.614 263.226 166.968 263.403C166.322 263.58 165.772 264.004 165.436 264.583C165.1 265.162 165.004 265.85 165.17 266.498C165.336 267.147 165.751 267.704 166.324 268.05L178.787 275.291L122.178 308.681L110.827 302.084C110.244 301.781 109.568 301.715 108.938 301.899C108.308 302.082 107.773 302.501 107.444 303.068C107.114 303.636 107.016 304.308 107.169 304.946C107.323 305.584 107.716 306.138 108.267 306.494L120.09 313.369L133.965 353.02L118.064 362.258C117.479 362.598 117.053 363.156 116.88 363.809C116.706 364.463 116.799 365.159 117.139 365.743C117.478 366.328 118.036 366.754 118.69 366.928C119.344 367.101 120.039 367.008 120.624 366.669L136.441 357.482L170.475 377.26L156.724 385.251C156.434 385.419 156.181 385.643 155.978 385.91C155.775 386.176 155.626 386.48 155.54 386.804C155.455 387.128 155.434 387.466 155.479 387.798C155.524 388.13 155.634 388.45 155.802 388.74C155.971 389.029 156.195 389.283 156.461 389.486C156.728 389.689 157.032 389.837 157.356 389.923C157.68 390.009 158.017 390.029 158.349 389.985C158.682 389.94 159.002 389.83 159.291 389.661L205.335 362.906L224.264 373.903L207.953 383.382C207.402 383.738 207.009 384.292 206.856 384.93C206.702 385.568 206.801 386.24 207.13 386.808C207.459 387.375 207.994 387.794 208.624 387.977C209.254 388.161 209.931 388.094 210.513 387.792L229.34 376.854L244.7 385.777C245.282 386.076 245.956 386.14 246.583 385.956C247.211 385.772 247.744 385.355 248.072 384.79C248.401 384.225 248.5 383.555 248.35 382.919C248.2 382.283 247.811 381.728 247.264 381.37L234.416 373.903L291.296 340.674L302.761 347.337C303.345 347.651 304.028 347.726 304.666 347.546C305.304 347.365 305.846 346.943 306.179 346.37C306.511 345.796 306.608 345.116 306.448 344.473C306.288 343.829 305.887 343.274 305.324 342.923ZM262.218 323.774L205.335 357.003L171.301 337.225L228.181 303.996L262.218 323.774ZM183.845 278.235L223.097 301.045L166.218 334.274L127.233 311.621L183.845 278.235ZM126.878 317.308L161.145 337.225L138.456 350.409L126.878 317.308ZM175.529 374.323C175.456 374.276 175.394 374.217 175.32 374.177L141.517 354.531L166.221 340.176L200.258 359.954L175.529 374.323ZM229.34 370.951L210.414 359.954L267.294 326.725L286.384 337.807L229.34 370.951Z" fill="#F1F6FA"/>
<path d="M198.25 393.585L172.932 380.767C172.42 380.512 171.987 380.122 171.681 379.639C171.374 379.157 171.205 378.6 171.191 378.028C171.182 377.455 171.326 376.891 171.608 376.392C171.89 375.894 172.301 375.48 172.796 375.194L201.15 358.689L185.278 326.568L141.857 301.915C141.372 301.632 140.968 301.229 140.683 300.745C140.398 300.261 140.242 299.712 140.229 299.151C140.229 298.021 140.822 296.956 141.784 296.4L161.152 285.001C161.633 284.706 162.186 284.549 162.75 284.548C163.869 284.548 164.933 285.158 165.53 286.135C165.943 286.868 166.055 287.734 165.841 288.548C165.627 289.363 165.105 290.062 164.385 290.498L149.742 299.074L189.253 321.492C189.798 321.798 190.235 322.262 190.508 322.823L208.208 358.543C208.94 360.042 208.38 361.871 206.936 362.693L181.043 377.765L201.15 387.931C201.522 388.116 201.853 388.372 202.125 388.686C202.396 388.999 202.602 389.364 202.731 389.759C202.859 390.153 202.908 390.569 202.874 390.982C202.84 391.396 202.724 391.798 202.533 392.166C202.35 392.545 202.092 392.884 201.776 393.161C201.46 393.439 201.091 393.65 200.692 393.782C200.292 393.915 199.87 393.966 199.451 393.932C199.031 393.898 198.623 393.78 198.25 393.585Z" fill="#606D7F"/>
<path opacity="0.3" d="M215.699 317.308L239.426 331.348L220.336 343.058L212.232 338.366L223.298 331.092L208.257 321.755L215.699 317.308ZM270.666 339.58L253.682 349.623L245.311 344.24L262.061 334.274L270.666 339.58ZM199.227 297.626L182.243 307.668L173.869 302.288L190.618 292.319L199.227 297.626ZM273.317 366.694L256.019 376.923L247.648 371.54L264.708 361.388L273.317 366.694ZM117.706 325.899L97.0502 338.103L91.25 334.376L111.62 322.264L117.706 325.899ZM167.717 325.08L164.203 327.384L151.607 320.033L154.954 317.985L167.717 325.08Z" fill="white"/>
<path opacity="0.2" d="M153.52 373.614L149.519 376.229L132.283 366.171L136.354 363.809L153.52 373.614Z" fill="white"/>
<path opacity="0.3" d="M160.336 356.18L166.645 359.918L162.432 362.397L151.011 355.328L165.113 346.609L170.928 349.842L160.336 356.18Z" fill="white"/>
<path d="M215.921 384.347C222.672 388.242 222.702 394.558 216.002 398.453C209.291 402.355 198.385 402.359 191.634 398.46C184.879 394.562 184.85 388.242 191.561 384.344C198.261 380.449 209.166 380.449 215.921 384.347Z" fill="#38425D"/>
<path d="M210.992 387.211C215 389.526 215.019 393.278 211.04 395.589C207.053 397.908 200.573 397.912 196.565 395.597C192.549 393.278 192.534 389.526 196.521 387.207C200.5 384.896 206.98 384.896 210.992 387.211Z" fill="white"/>
<path d="M214.345 168.74C214.308 153.344 208.859 142.519 200.082 137.435L200.046 137.399C199.621 137.19 200.759 137.819 183.808 128.036C174.921 122.916 162.596 123.648 149.028 131.474C122.112 147.017 100.352 184.722 100.425 215.662C100.498 246.674 147.017 278.894 149.467 280.576L165.449 289.719C165.12 289.499 164.681 289.17 164.059 288.695C164.974 289.353 165.559 289.755 165.815 289.938C168.228 285.44 214.418 199.68 214.345 168.74ZM139.483 221.111C138.35 218.295 137.691 214.93 137.655 210.98C137.618 193.316 150.089 171.739 165.449 162.852C168.923 160.841 172.215 159.707 175.287 159.268C183.819 180.469 161.331 218.255 139.483 221.111Z" fill="#D63A63"/>
<path d="M193.409 178.798C193.533 206.994 163.449 239.119 145.793 228.853L129.456 219.48C147.036 229.698 177.196 197.811 177.072 169.428C177.072 160.625 173.967 154.459 168.939 151.552L185.275 160.925C190.304 163.833 193.409 169.995 193.409 178.798Z" fill="#D63A63"/>
<path d="M116.759 225.079C116.839 255.056 160.487 286.252 165.435 289.708L149.453 280.569C147.018 278.879 100.503 246.667 100.422 215.669C100.345 184.711 122.109 147.035 149.022 131.474C162.615 123.659 174.914 122.913 183.79 128.058L200.127 137.472C191.247 132.286 178.952 133.032 165.399 140.847C138.445 156.409 116.682 194.121 116.759 225.079Z" fill="#D63A63"/>
<path d="M165.38 140.859C192.33 125.301 214.254 137.768 214.342 168.73C214.43 199.695 168.236 285.429 165.804 289.942C163.354 288.245 116.853 256.033 116.762 225.068C116.678 194.107 138.434 156.416 165.38 140.859ZM165.625 226.929C181.022 218.039 193.474 196.473 193.427 178.809C193.375 161.112 180.842 153.973 165.446 162.864C150.071 171.736 137.619 193.306 137.67 210.999C137.721 228.663 150.25 235.805 165.625 226.929Z" fill="#F3516F"/>
</svg>
