<svg viewBox="0 0 512 512" fill="none" xmlns="http://www.w3.org/2000/svg">
<path d="M46.2773 360.369V403.692C46.2773 426.339 61.0466 448.985 90.585 466.708C150.647 501.169 248.123 501.169 308.185 466.708C338.708 448.985 353.477 426.339 353.477 403.692V360.369H46.2773Z" fill="#FFD475"/>
<path d="M91.5696 297.354C30.5234 331.815 30.5234 387.939 90.585 423.385C150.646 457.846 248.123 457.846 308.185 423.385C368.246 388.923 368.246 331.815 308.185 297.354C249.108 261.908 151.631 261.908 91.5696 297.354Z" fill="#F9A83D"/>
<path d="M199.877 433.231C238.277 433.231 273.723 424.369 300.308 409.6C323.939 395.815 337.723 378.092 337.723 360.369C337.723 342.646 324.923 324.923 301.293 311.139C274.708 295.385 239.262 287.508 200.862 287.508C162.462 287.508 127.016 296.369 100.431 311.139C76.8002 324.923 63.0156 342.646 63.0156 360.369C63.0156 378.092 75.8156 395.816 99.4464 408.616C125.046 424.369 161.477 433.231 199.877 433.231Z" fill="#FFD475"/>
<path d="M119.139 328.862L151.631 357.416L130.954 376.123L148.677 383.016L163.446 369.231L200.862 402.708L279.631 341.662L249.108 328.862L203.816 364.308L186.093 348.554L209.723 326.893L192 320L173.293 336.739L151.631 317.046L119.139 328.862Z" fill="#F9A83D"/>
<path d="M90.585 365.292C61.0466 347.569 46.2773 324.923 46.2773 302.277V345.6C46.2773 368.246 61.0466 390.892 90.585 408.616C150.647 443.077 248.123 443.077 308.185 408.616C338.708 390.892 353.477 368.246 353.477 345.6V302.277" fill="#FFD475"/>
<path d="M91.5694 239.262C31.5079 273.723 31.5079 330.831 90.5848 365.292C150.646 399.754 248.123 399.754 308.185 365.292C368.246 330.831 368.246 273.723 308.185 239.262C249.108 204.8 151.631 204.8 91.5694 239.262Z" fill="#F9A83D"/>
<path d="M199.877 375.139C238.277 375.139 273.723 366.277 300.308 351.508C323.939 337.723 337.723 320 337.723 302.277C337.723 284.554 324.923 266.831 301.293 253.046C274.708 237.292 239.262 229.416 200.862 229.416C162.462 229.416 127.016 238.277 100.431 253.046C76.8002 266.831 63.0156 284.554 63.0156 302.277C63.0156 320 75.8156 337.723 99.4464 350.523C125.046 366.277 161.477 375.139 199.877 375.139Z" fill="#FFD475"/>
<path d="M197.908 212.677V390.892C228.431 390.892 257.969 385.969 283.569 376.123V227.446C257.969 217.6 228.431 212.677 197.908 212.677ZM115.2 227.446V376.123C132.923 383.015 152.616 387.939 173.293 388.923V214.646C152.616 216.615 132.923 221.539 115.2 227.446Z" fill="white" fill-opacity="0.25098"/>
<path d="M444.062 19.6924L344.616 87.6308L367.262 100.431L379.077 107.323L328.862 191.015L231.385 176.246L166.4 299.323L189.047 312.123L213.662 322.954L259.939 234.339L355.447 248.123L424.37 132.923L456.862 151.631L465.723 32.4924L444.062 19.6924Z" fill="#F45170"/>
<path d="M351.508 203.816L328.862 191.016L379.078 107.323L401.724 120.123L351.508 203.816Z" fill="#DF3260"/>
<path d="M367.261 100.431L344.615 87.6308L444.061 19.6924L465.723 32.4924L367.261 100.431Z" fill="#E93565"/>
<path d="M231.385 176.246L328.862 191.015Z" fill="#CC104A"/>
<path d="M189.047 312.123L166.4 299.323L231.385 176.246L254.031 190.031L189.047 312.123Z" fill="#DF3260"/>
<path d="M367.262 100.431L465.724 32.4924L456.862 151.631L424.37 132.923L355.447 248.123L259.939 234.339L213.662 322.954L189.047 312.123L254.031 190.031L351.508 203.816L401.724 120.123L367.262 100.431Z" fill="#F45170"/>
</svg>
