<svg viewBox="0 0 512 512" fill="none" xmlns="http://www.w3.org/2000/svg">
<path d="M435.2 323.939L382.03 354.462L337.723 328.862V141.785L390.892 111.262L434.215 136.862L435.2 323.939Z" fill="#E9E7FC"/>
<path d="M382.03 354.462L337.723 328.862V141.785L381.046 167.385L382.03 354.462Z" fill="#DEDFFB"/>
<path d="M381.046 167.385L337.723 141.785L390.892 111.262L434.215 136.862L381.046 167.385Z" fill="#F3F1FC"/>
<path d="M434.215 136.862L435.2 323.939L382.03 354.462L381.046 167.385L434.215 136.862Z" fill="#E9E7FC"/>
<path d="M355.446 370.215L302.276 400.738L258.953 375.138L257.969 276.677L311.138 246.154L355.446 270.769V370.215Z" fill="#5094FF"/>
<path d="M302.276 400.739L258.953 375.139L257.969 276.677L302.276 301.292V400.739Z" fill="#497BFE"/>
<path d="M302.276 301.292L257.969 276.677L311.138 246.154L355.446 270.769L302.276 301.292Z" fill="#57B3FE"/>
<path d="M355.446 270.769V370.215L302.276 400.739V301.292L355.446 270.769Z" fill="#5094FF"/>
<path d="M275.692 415.508L222.523 446.031L179.2 421.415V284.554L231.385 254.031L275.692 279.631V415.508Z" fill="#72D561"/>
<path d="M222.523 446.031L179.2 421.415V284.554L222.523 310.154V446.031Z" fill="#5EC363"/>
<path d="M222.523 310.154L179.2 284.554L231.385 254.031L275.692 279.631L222.523 310.154Z" fill="#78E75A"/>
<path d="M275.692 279.631V415.508L222.522 446.031V310.154L275.692 279.631Z" fill="#72D561"/>
<path d="M195.939 461.785L143.754 492.308L99.4463 466.708V398.769L152.616 368.246L195.939 393.846V461.785Z" fill="#FEBC1F"/>
<path d="M143.754 492.308L99.4463 466.708V398.769L142.769 424.369L143.754 492.308Z" fill="#F9A83D"/>
<path d="M142.769 424.369L99.4463 398.769L152.616 368.246L195.939 393.846L142.769 424.369Z" fill="#FFD06C"/>
<path d="M195.938 393.846V461.785L143.753 492.308L142.769 424.369L195.938 393.846Z" fill="#FEBC1F"/>
<path d="M394.831 34.4616L386.954 135.877L359.384 120.123L284.554 244.185L203.815 232.369L123.077 383.015L102.4 374.154L76.7998 359.385L173.292 179.2L256 192L315.077 94.5232L310.154 91.5693L285.538 77.7847L369.231 19.6924L394.831 34.4616Z" fill="#E93565"/>
<path d="M281.6 205.785L256 192L315.077 94.5232L339.692 108.308L281.6 205.785Z" fill="#DF3260"/>
<path d="M310.154 91.5693L285.538 77.7847L370.215 19.6924L394.83 34.4616L310.154 91.5693ZM197.907 193.969L173.292 179.2L256 192L281.6 205.785L197.907 193.969Z" fill="#F45170"/>
<path d="M102.4 374.154L76.7998 360.369L173.292 179.2L197.908 193.969L102.4 374.154Z" fill="#DF3260"/>
<path d="M310.153 91.5694L394.83 34.4617L386.953 135.877L359.384 120.123L284.553 244.185L203.815 232.369L123.076 383.016L102.399 374.154L197.907 193.969L281.599 205.785L339.692 108.308L310.153 91.5694Z" fill="#E93565"/>
<path d="M266.831 70.8923C266.831 100.431 246.154 136.862 219.569 152.615C206.769 160.492 194.954 160.492 186.092 155.569H185.108L173.292 147.692C164.431 142.769 159.508 131.938 159.508 117.169C159.508 87.6308 180.185 51.2 206.769 36.4308C219.569 28.5538 231.385 28.5538 240.246 33.4769C241.231 34.4615 253.046 40.3692 254.031 41.3538C261.908 45.2923 266.831 56.1231 266.831 70.8923Z" fill="#FFD06C"/>
<path d="M253.046 40.3692C244.185 35.4461 232.369 36.4308 219.569 43.3231C193.969 58.0923 172.308 94.5231 172.308 124.062C172.308 138.831 177.231 149.662 186.092 154.585L173.292 147.692C164.431 142.769 159.508 131.938 159.508 117.169C159.508 87.6308 180.185 51.2 206.769 36.4308C219.569 28.5538 231.385 28.5538 240.246 33.4769L253.046 40.3692Z" fill="#FFD06C"/>
<path d="M219.569 44.3078C246.154 29.5386 266.831 41.354 266.831 70.8924C266.831 100.431 246.154 136.862 219.569 152.616C192.985 168.369 172.308 155.569 172.308 126.031C172.308 95.5078 193.969 59.077 219.569 44.3078Z" fill="#F9A83D"/>
<path d="M198.892 150.646C187.077 150.646 180.185 140.8 180.185 125.046C180.185 98.4617 199.877 64.0002 223.508 50.2156C229.415 46.2771 235.323 44.3079 241.231 44.3079C253.046 44.3079 259.938 54.154 259.938 69.9079C259.938 96.4925 240.246 130.954 216.615 144.739C209.723 149.662 203.815 150.646 198.892 150.646Z" fill="#FFD06C"/>
<g opacity="0.25">
<path d="M265.846 63.0155L211.692 156.554C199.876 161.477 190.03 159.508 182.153 153.6L249.107 39.3848C257.969 42.3386 263.876 50.2155 265.846 63.0155ZM242.215 37.4155L179.199 147.692C176.246 143.754 175.261 138.831 174.276 132.923L228.43 39.3848C232.369 38.4001 238.276 37.4155 242.215 37.4155Z" fill="white"/>
</g>
</svg>
