<svg width="512" height="512" viewBox="0 0 512 512" fill="none" xmlns="http://www.w3.org/2000/svg">
<path d="M103.384 436.185C85.6613 434.215 66.9536 427.323 60.0613 411.569C49.2305 387.939 70.8921 358.4 63.0151 270.769C70.8921 278.646 78.769 287.508 87.6305 295.385C101.415 250.092 105.354 201.846 100.431 154.585C120.123 165.415 136.861 184.123 145.723 205.785C144.738 203.815 148.677 193.969 149.661 191.015C155.569 164.431 157.538 137.846 154.584 110.277C153.6 100.431 148.677 88.6155 149.661 78.7693C156.554 82.7078 163.446 91.5693 168.369 97.477C174.277 104.369 179.2 112.246 184.123 121.108C192.984 136.862 198.892 154.585 201.846 172.308C202.831 119.139 214.646 66.9539 237.292 18.7078C260.923 67.9385 280.615 118.154 298.338 169.354C312.123 153.6 315.077 130.954 313.107 111.262C311.138 91.5693 302.277 71.877 294.4 52.1847C349.538 86.6462 380.061 155.569 369.231 218.585C382.031 208.739 388.923 192 388.923 176.246C388.923 160.492 385.969 143.754 382.031 128C401.723 151.631 413.538 182.154 413.538 212.677C414.523 243.2 403.692 273.723 384.984 298.339C360.369 329.846 322.954 348.554 287.507 366.277C247.138 385.969 207.754 405.662 167.384 425.354C159.507 429.292 152.615 432.246 144.738 435.2C134.892 438.154 125.046 438.154 115.2 437.169C109.292 437.169 106.338 436.185 103.384 436.185Z" fill="#F45170"/>
<path d="M231.384 210.708C229.415 205.785 225.476 201.846 223.507 196.923C219.569 190.031 218.584 181.169 218.584 173.292C217.599 150.646 222.522 128 227.445 105.354C229.415 95.5077 231.384 85.6616 235.322 76.8C270.769 155.569 266.83 139.815 270.769 152.615C275.692 168.369 270.768 186.092 273.722 202.831C277.661 227.446 277.661 222.523 246.153 244.185C243.199 246.154 235.322 254.031 231.384 248.123C229.415 244.185 231.384 236.308 232.369 232.369C234.338 225.477 234.338 217.6 231.384 210.708ZM138.83 329.846C135.876 325.908 131.938 321.969 128.984 318.031C124.061 312.123 122.092 304.246 120.122 296.369C115.199 274.708 116.184 252.062 116.184 229.415C116.184 219.569 117.169 209.723 119.138 200.862C167.384 269.785 161.476 255.015 167.384 266.831C175.261 280.615 173.292 298.339 179.199 314.092C182.153 320.985 186.092 328.862 183.138 334.769C182.153 336.739 180.184 338.708 178.215 340.677L160.492 358.4C157.538 361.354 151.63 370.215 147.692 365.292C144.738 362.339 145.722 353.477 145.722 349.539C143.753 343.631 142.769 335.754 138.83 329.846Z" fill="#FFD06C"/>
<path d="M149.661 294.4C162.461 270.769 157.538 254.031 160.492 236.308C161.476 231.385 162.461 225.477 164.43 220.554C173.292 191.016 177.23 179.2 178.215 167.385C180.184 167.385 181.169 170.339 181.169 172.308C187.076 198.892 190.03 211.692 191.015 222.523C191.015 227.446 192 233.354 192 238.277C192 249.108 192 258.954 192.984 269.785C192.984 274.708 192.984 280.616 189.046 284.554C186.092 287.508 181.169 288.492 176.246 288.492C171.323 288.492 167.384 287.508 162.461 288.492C154.584 289.477 146.707 296.369 145.723 304.246" fill="#FFD06C"/>
<path d="M332.8 265.846C337.723 263.877 342.646 261.908 346.585 259.938C354.462 256.985 363.323 253.046 370.216 247.139C376.123 242.215 381.046 237.292 386.954 234.338C377.108 250.092 374.154 268.8 366.277 285.539C365.292 288.492 363.323 291.446 361.354 293.415C359.385 294.4 357.416 295.385 355.446 295.385C348.554 296.369 341.662 297.354 334.769 296.369C330.831 296.369 327.877 295.385 324.923 292.431C322.954 290.462 321.969 287.508 320.985 284.554C319.016 274.708 322.954 264.862 330.831 258.954L332.8 265.846ZM325.908 171.323C327.877 160.492 328.862 148.677 330.831 137.846C339.692 152.615 343.631 169.354 343.631 186.092C343.631 188.062 343.631 190.031 342.646 192C341.662 195.939 338.708 198.892 335.754 200.862C330.831 204.8 315.077 212.677 318.031 199.877C319.016 194.954 321.969 191.015 322.954 186.092C324.923 182.154 324.923 177.231 325.908 171.323Z" fill="#F45170"/>
<path d="M331.816 380.061L398.769 341.662V143.754L354.462 118.154C353.477 119.138 284.554 158.523 287.508 156.554L226.462 192L219.569 196.923L158.523 232.369L152.615 235.323L91.5693 270.769V468.677L137.846 492.308L198.892 456.862L271.754 414.523L283.569 407.631L313.108 390.892L331.816 380.061Z" fill="#BF7D5A"/>
<path d="M337.723 377.108L293.415 351.508L353.477 316.062L397.784 341.662L337.723 377.108Z" fill="#C8C7D9"/>
<path d="M337.723 377.108L293.415 351.508V307.2L337.723 332.8V377.108Z" fill="#822B3C"/>
<path d="M397.784 298.339V341.662L337.723 377.108V332.8L397.784 298.339Z" fill="#BF7D5A"/>
<path d="M337.723 332.8L293.415 307.2L353.477 271.754L397.784 298.339L337.723 332.8Z" fill="#D24660"/>
<path d="M337.723 325.908L293.415 300.308L353.477 265.846L397.784 291.446L337.723 325.908Z" fill="#C8C7D9"/>
<path d="M397.784 247.138V291.446L337.723 325.908L336.738 282.585L397.784 247.138Z" fill="#BF7D5A"/>
<path d="M336.738 282.585L292.431 256.985L353.477 221.539L397.785 247.139L336.738 282.585Z" fill="#D24660"/>
<path d="M337.723 325.908L293.415 300.308L292.431 256.985L336.738 282.585L337.723 325.908Z" fill="#822B3C"/>
<path d="M336.738 275.692L292.431 250.092L353.477 214.646L397.785 240.246L336.738 275.692Z" fill="#C8C7D9"/>
<path d="M270.769 415.508L226.461 389.908V345.6L270.769 371.2V415.508Z" fill="#822B3C"/>
<path d="M270.769 371.2L226.461 345.6L287.507 311.139L330.83 336.739L270.769 371.2Z" fill="#C8C7D9"/>
<path d="M270.769 415.508L226.461 389.908V345.6L270.769 371.2V415.508Z" fill="#7D7B87"/>
<path d="M331.815 380.062L270.769 415.508V371.2L330.83 336.739L331.815 380.062Z" fill="#B4B3C3"/>
<path d="M270.769 371.2L226.461 345.6L287.507 311.139L330.83 336.739L270.769 371.2Z" fill="#D24660"/>
<path d="M336.738 275.692L292.431 250.092V205.785L336.738 231.385V275.692Z" fill="#822B3C"/>
<path d="M336.738 231.385L292.431 205.785L353.477 170.339L397.785 196.923L336.738 231.385Z" fill="#D24660"/>
<path d="M336.738 224.492L292.431 198.892L353.477 164.431L397.785 190.031L336.738 224.492Z" fill="#C8C7D9"/>
<path d="M270.769 364.308L226.461 338.708V295.385L270.769 320.985V364.308Z" fill="#822B3C"/>
<path d="M270.769 364.308L226.461 338.708V295.385L270.769 320.985V364.308Z" fill="#7D7B87"/>
<path d="M270.769 320.985L226.461 295.385L286.522 259.938L330.83 285.538L270.769 320.985Z" fill="#C8C7D9"/>
<path d="M270.769 320.985L226.461 295.385L286.522 259.938L330.83 285.538L270.769 320.985Z" fill="#D24660"/>
<path d="M203.816 453.908L159.508 428.308V384L203.816 409.6V453.908Z" fill="#822B3C"/>
<path d="M203.816 453.908L159.508 428.308V384L203.816 409.6V453.908Z" fill="#7D7B87"/>
<path d="M203.816 409.6L159.508 384L220.554 349.539L264.862 375.139L203.816 409.6Z" fill="#C8C7D9"/>
<path d="M203.816 409.6L159.508 384L220.554 349.539L264.862 375.139L203.816 409.6Z" fill="#D24660"/>
<path d="M336.738 224.492L292.431 198.892V155.569L336.738 181.169V224.492Z" fill="#822B3C"/>
<path d="M197.907 456.862L153.6 431.262V387.938L197.907 413.538V456.862Z" fill="#7D7B87"/>
<path d="M270.769 314.092L226.461 288.492V244.185L270.769 269.785V314.092Z" fill="#822B3C"/>
<path d="M270.769 314.092L226.461 288.492V244.185L270.769 269.785V314.092Z" fill="#7D7B87"/>
<path d="M270.769 269.785L226.461 244.185L286.522 209.723L330.83 235.323L270.769 269.785Z" fill="#C8C7D9"/>
<path d="M330.83 278.646L270.769 314.092V269.785L330.83 235.323V278.646Z" fill="#B4B3C3"/>
<path d="M270.769 269.785L226.461 244.185L286.522 209.723L330.83 235.323L270.769 269.785Z" fill="#D24660"/>
<path d="M137.846 492.308L93.5381 466.708L153.6 431.262L197.907 456.862L137.846 492.308ZM270.769 262.892L226.461 237.292L286.523 202.831L330.83 228.431L270.769 262.892Z" fill="#C8C7D9"/>
<path d="M203.816 402.708L159.508 377.108V333.785L203.816 359.385V402.708Z" fill="#822B3C"/>
<path d="M203.816 402.708L159.508 377.108V333.785L203.816 359.385V402.708Z" fill="#7D7B87"/>
<path d="M203.816 359.385L159.508 333.785L220.554 298.339L264.862 323.939L203.816 359.385Z" fill="#C8C7D9"/>
<path d="M203.816 359.385L159.508 333.785L220.554 298.339L264.862 323.939L203.816 359.385Z" fill="#D24660"/>
<path d="M197.907 406.646L153.6 381.046V336.739L197.907 362.339V406.646Z" fill="#7D7B87"/>
<path d="M137.846 448L93.5381 422.4L153.6 387.938L197.907 413.538L137.846 448Z" fill="#D24660"/>
<path d="M270.769 262.892L226.461 237.292L225.477 193.969L269.784 219.569L270.769 262.892Z" fill="#822B3C"/>
<path d="M137.846 441.108L93.5381 415.508L153.6 381.046L197.907 406.646L137.846 441.108Z" fill="#C8C7D9"/>
<path d="M264.862 317.046L203.815 352.492V308.185L264.862 273.723V317.046Z" fill="#B4B3C3"/>
<path d="M203.816 352.492L159.508 326.892V282.585L203.816 308.185V352.492Z" fill="#822B3C"/>
<path d="M203.816 308.185L159.508 282.585L220.554 248.123L264.862 273.723L203.816 308.185Z" fill="#C8C7D9"/>
<path d="M203.816 352.492L159.508 326.892V282.585L203.816 308.185V352.492Z" fill="#7D7B87"/>
<path d="M203.816 308.185L159.508 282.585L220.554 248.123L264.862 273.723L203.816 308.185Z" fill="#D24660"/>
<path d="M203.816 301.293L159.508 275.692L220.554 241.231L264.862 266.831L203.816 301.293Z" fill="#C8C7D9"/>
<path d="M197.907 355.446L153.6 329.846V286.523L197.907 312.123V355.446Z" fill="#7D7B87"/>
<path d="M136.861 397.785L92.5537 372.185L153.6 336.739L197.908 362.339L136.861 397.785Z" fill="#D24660"/>
<path d="M136.861 390.892L92.5537 365.292L153.6 329.846L197.908 355.446L136.861 390.892Z" fill="#C8C7D9"/>
<path d="M203.816 301.292L159.508 275.692V232.369L203.816 257.969V301.292Z" fill="#822B3C"/>
<path d="M136.861 346.585L92.5537 320.985L153.6 286.523L197.908 312.123L136.861 346.585Z" fill="#D24660"/>
<path d="M397.785 341.662L197.908 456.862V413.539L137.846 448L93.5383 422.4V415.508L137.846 442.092L197.908 406.646V362.339L136.861 397.785L93.5383 372.185L92.5537 365.292L136.861 390.892L197.908 355.446V312.123L136.861 346.585L92.5537 320.985V314.092L136.861 340.677L197.908 305.231V260.923L153.6 235.323L159.508 232.369L203.815 257.969V301.292L264.861 266.831L263.877 222.523L219.569 196.923L226.461 193.969L269.784 219.569L270.769 262.892L330.831 228.431V184.123L286.523 158.523L292.431 155.569L336.738 181.169V224.492L397.785 190.031V196.923L336.738 231.385V275.692L397.785 240.246V247.139L336.738 282.585L337.723 325.908L397.785 291.446V298.339L337.723 332.8V377.108L397.785 341.662Z" fill="#E9E7FC"/>
<path d="M137.846 492.308L197.907 456.862V413.538L137.846 448V441.108L197.907 406.646V362.338L136.861 397.785V390.892L197.907 355.446V312.123L136.861 346.585V339.692L197.907 305.231V260.923L203.815 257.969V301.292L264.861 266.831L263.877 222.523L269.784 219.569L270.769 262.892L330.831 228.431V184.123L336.738 181.169V224.492L397.784 190.031V196.923L336.738 231.385V275.692L397.784 240.246V247.138L336.738 282.585L337.723 325.908L397.784 291.446V298.338L337.723 332.8V377.108L397.784 341.662L137.846 492.308Z" fill="#E9E7FC"/>
<path d="M330.831 184.123L286.523 158.523L292.431 155.569L336.738 181.169L330.831 184.123ZM137.846 448L93.5383 422.4V415.508L137.846 441.108V448ZM263.877 222.523L219.569 196.923L225.477 193.969L269.784 219.569L263.877 222.523ZM136.861 397.785L92.5537 372.185V365.292L136.861 390.892V397.785ZM197.908 260.923L153.6 235.323L159.508 232.369L203.815 257.969L197.908 260.923ZM136.861 346.585L92.5537 320.985V314.092L136.861 339.692V346.585Z" fill="#F3F1FC"/>
<path d="M330.83 336.738L331.815 380.062L270.769 415.508V371.2L330.83 336.738ZM397.784 196.923V240.246L336.738 275.692V231.385L397.784 196.923Z" fill="#DBA660"/>
<path d="M264.862 418.462L203.815 453.908V409.6L264.862 375.139V418.462Z" fill="#B4B3C3"/>
<path d="M264.862 375.139V418.462L203.815 453.908V409.6L264.862 375.139Z" fill="#DBA660"/>
<path d="M397.784 145.723V190.031L336.738 224.492V181.169L397.784 145.723Z" fill="#BF7D5A"/>
<path d="M336.738 181.169L292.431 155.569L353.477 120.123L397.785 145.723L336.738 181.169Z" fill="#DBA660"/>
<path d="M330.83 228.431L286.522 202.831V158.523L330.83 184.123V228.431Z" fill="#7D7B87"/>
<path d="M330.83 235.323V278.646L270.769 314.092V269.785L330.83 235.323Z" fill="#DBA660"/>
<path d="M264.862 368.246L203.815 402.708V359.385L264.862 323.938V368.246Z" fill="#B4B3C3"/>
<path d="M264.861 323.938V368.246L203.815 402.708V359.385L264.861 323.938ZM137.846 492.308L93.5381 466.708V422.4L137.846 448V492.308Z" fill="#BF7D5A"/>
<path d="M197.907 413.539V456.862L137.846 492.308V448L197.907 413.539Z" fill="#DBA660"/>
<path d="M330.83 184.123V228.431L270.769 262.892L269.784 219.569L330.83 184.123Z" fill="#BF7D5A"/>
<path d="M269.784 219.569L225.477 193.969L286.523 158.523L330.83 184.123L269.784 219.569Z" fill="#DBA660"/>
<path d="M264.862 266.831L220.554 241.231L219.569 196.923L263.877 222.523L264.862 266.831Z" fill="#7D7B87"/>
<path d="M264.862 273.723V317.046L203.815 352.492V308.185L264.862 273.723Z" fill="#DBA660"/>
<path d="M197.907 362.339V406.646L137.846 441.108L136.861 397.785L197.907 362.339Z" fill="#BF7D5A"/>
<path d="M137.846 441.108L93.5383 415.508L92.5537 372.185L136.861 397.785L137.846 441.108Z" fill="#AA6256"/>
<path d="M203.816 257.969L159.508 232.369L219.569 196.923L263.877 222.523L203.816 257.969Z" fill="#DBA660"/>
<path d="M263.877 222.523L264.862 266.831L203.815 301.292V257.969L263.877 222.523Z" fill="#BF7D5A"/>
<path d="M197.907 305.231L153.6 279.631V235.323L197.907 260.923V305.231Z" fill="#7D7B87"/>
<path d="M136.861 390.892L92.5537 365.292V320.985L136.861 346.585V390.892Z" fill="#BF7D5A"/>
<path d="M197.907 312.123V355.446L136.861 390.892V346.585L197.907 312.123Z" fill="#DBA660"/>
<path d="M136.861 339.692L92.5537 314.092L153.6 279.631L197.908 305.231L136.861 339.692Z" fill="#C8C7D9"/>
<path d="M197.907 260.923V305.231L136.861 339.692V296.369L197.907 260.923Z" fill="#BF7D5A"/>
<path d="M136.861 339.692L92.5537 314.092V270.769L136.861 296.369V339.692Z" fill="#AA6256"/>
<path d="M136.861 296.369L92.5537 270.769L153.6 235.323L197.908 260.923L136.861 296.369Z" fill="#DBA660"/>
<path d="M330.83 285.539V329.846L270.769 364.308V320.985L330.83 285.539Z" fill="#BD3F57"/>
<path d="M330.83 329.846L270.769 364.308V320.985L330.83 285.539V329.846Z" fill="#BF7D5A"/>
<path d="M409.599 405.662C399.753 407.631 391.876 406.646 384.984 402.708L385.969 403.692L374.153 396.8C358.399 386.954 350.522 359.385 352.492 308.185C365.292 298.338 385.969 281.6 396.799 264.862C408.615 268.8 429.292 261.908 441.107 256.985L452.922 263.877C458.83 330.831 442.092 377.108 409.599 405.662Z" fill="#497BFE"/>
<path d="M409.599 271.754L397.784 264.862C409.599 268.8 430.276 261.908 442.092 256.985L453.907 263.877C442.092 268.8 421.415 275.692 409.599 271.754ZM385.969 403.692L374.153 396.8C358.399 386.954 350.522 359.385 352.492 308.185L364.307 315.077C362.338 366.277 370.215 394.831 385.969 403.692Z" fill="#5094FF"/>
<path d="M364.308 315.077L352.492 308.185C365.292 298.338 385.969 281.6 396.8 264.862L408.615 271.754C397.785 288.492 377.108 305.231 364.308 315.077Z" fill="#497BFE"/>
<path d="M409.6 271.754C421.415 275.692 442.092 268.8 453.908 263.877C457.846 330.831 441.108 377.108 409.6 406.646C377.108 414.523 361.354 386.954 364.308 316.062C377.108 305.231 397.785 288.492 409.6 271.754Z" fill="#57B3FE"/>
<path d="M399.753 398.769C393.845 398.769 389.907 396.8 385.969 392.862C379.076 384.985 371.199 366.277 373.169 319.015C390.892 304.246 404.676 291.446 413.538 280.615H417.476C425.353 280.615 435.199 278.646 447.015 274.708C448.984 329.846 435.199 371.2 406.645 397.785C403.692 398.769 401.722 398.769 399.753 398.769Z" fill="white"/>
<path d="M415.507 334.769L418.461 347.569L400.738 357.416V352.493L402.707 342.646V340.677C399.753 339.693 398.769 337.723 398.769 333.785C398.769 329.846 400.738 323.939 404.676 320C405.661 318.031 407.63 317.046 408.615 316.062C409.599 315.077 411.569 315.077 412.553 315.077H413.538C416.492 315.077 419.445 318.031 419.445 321.969C419.445 326.893 418.461 331.816 415.507 334.769Z" fill="#111D33"/>
<path d="M415.507 334.769C421.415 326.892 421.415 316.062 413.538 316.062H412.553C413.538 317.046 414.522 319.015 414.522 321.969C414.522 325.908 412.553 329.846 410.584 333.785L413.538 346.585L418.461 348.554L415.507 334.769Z" fill="#4C5C75"/>
<path d="M413.538 346.585L401.723 353.477L400.738 355.446V358.4L418.461 347.569L413.538 346.585Z" fill="#1D2943"/>
<path d="M410.585 332.8L411.569 335.754L413.539 346.585C412.554 347.569 400.739 354.462 401.723 353.477L403.692 343.631V341.662C401.723 340.677 399.754 338.708 399.754 334.769C399.754 330.831 401.723 324.923 405.662 320.985C406.646 319.015 408.615 318.031 409.6 317.046C410.585 316.062 412.554 316.062 413.539 316.062C414.523 317.046 415.508 319.015 415.508 321.969C415.508 324.923 413.539 329.846 410.585 332.8Z" fill="#111D33"/>
</svg>
